<?xml version="1.0" standalone="no"?>
<!DOCTYPE svg PUBLIC "-//W3C//DTD SVG 1.1//EN" "http://www.w3.org/Graphics/SVG/1.1/DTD/svg11.dtd" >
<svg xmlns="http://www.w3.org/2000/svg" xmlns:xlink="http://www.w3.org/1999/xlink" version="1.1">
<metadata>
Created by FontForge 20150824 at Tue Dec  8 03:20:45 2015
 By Everything Fonts
Copyright (c) 2007 by The Font Bureau, Inc.. All rights reserved.
</metadata>
<defs>
<font id="eyinterstateli" horiz-adv-x="1270" >
  <font-face 
    font-family="eyinterstateli"
    font-weight="300"
    font-style="italic"
    font-stretch="normal"
    units-per-em="2048"
    panose-1="2 0 5 6 3 0 0 9 0 4"
    ascent="1638"
    descent="-410"
    x-height="1075"
    cap-height="1434"
    bbox="-312 -489 2629 2181"
    underline-thickness="41"
    underline-position="-312"
    slope="-10"
    unicode-range="U+0020-FB02"
  />
<missing-glyph horiz-adv-x="1024" 
 />
    <glyph glyph-name="fi" unicode="fi" horiz-adv-x="1223" 
d="M1186 1376q0 -22 -8.5 -41.5t-23 -34.5t-34 -23.5t-41.5 -8.5q-24 0 -44.5 8.5t-35.5 23.5t-23.5 34.5t-8.5 41.5q0 23 8.5 43.5t23.5 35.5t35.5 23.5t44.5 8.5q22 0 41.5 -8.5t34 -23.5t23 -35.5t8.5 -43.5zM752 1323q-25 12 -53 18.5t-68 6.5q-66 0 -95.5 -31.5
t-41.5 -102.5l-25 -139h211l-23 -129h-213l-165 -946h-154l166 946h-148l23 129h149l25 148q12 73 37.5 123.5t62.5 82t83.5 45t101.5 13.5q29 0 51 -2t39.5 -5.5t31.5 -8t27 -9.5zM915 0h-153l190 1075h154z" />
    <glyph glyph-name="fl" unicode="fl" horiz-adv-x="1223" 
d="M915 0h-153l250 1407l170 86zM752 1323q-25 12 -53 18.5t-68 6.5q-66 0 -95.5 -31.5t-41.5 -102.5l-25 -139h211l-23 -129h-213l-165 -946h-154l166 946h-148l23 129h149l25 148q12 73 37.5 123.5t62.5 82t83.5 45t101.5 13.5q29 0 51 -2t39.5 -5.5t31.5 -8t27 -9.5z" />
    <glyph glyph-name=".notdef" horiz-adv-x="1024" 
 />
    <glyph glyph-name=".null" horiz-adv-x="0" 
 />
    <glyph glyph-name="nonmarkingreturn" horiz-adv-x="594" 
 />
    <glyph glyph-name="space" unicode=" " horiz-adv-x="524" 
 />
    <glyph glyph-name="space" unicode="&#xa0;" horiz-adv-x="524" 
 />
    <glyph glyph-name="exclam" unicode="!" horiz-adv-x="539" 
d="M356 760l-102 -375h-86l31 375l118 674h158zM293 102q0 -25 -10.5 -47.5t-27.5 -40t-40 -27.5t-47 -10q-26 0 -48.5 10t-39.5 27.5t-27 40t-10 47.5t10 48.5t27 41.5t39.5 28.5t48.5 10.5q24 0 47 -10.5t40 -28.5t27.5 -41.5t10.5 -48.5z" />
    <glyph glyph-name="quotedbl" unicode="&#x22;" horiz-adv-x="942" 
d="M753 764h-121l84 670h191zM346 764h-121l84 670h190z" />
    <glyph glyph-name="numbersign" unicode="#" 
d="M284 358h-198l22 131h199l80 457h-199l25 131h198l62 357h133l-62 -357h312l61 357h133l-61 -357h198l-24 -131h-199l-80 -457h199l-23 -131h-198l-64 -358h-133l64 358h-312l-63 -358h-133zM751 489l80 457h-311l-80 -457h311z" />
    <glyph glyph-name="dollar" unicode="$" 
d="M543 141q85 0 147.5 19.5t104 54.5t61.5 83.5t20 107.5q0 39 -11.5 73.5t-39 65.5t-74.5 59.5t-118 54.5q-102 38 -170 82t-108.5 93.5t-57.5 105t-17 117.5q0 90 34 159t92 116t134.5 72.5t161.5 29.5l35 198h133l-35 -202q107 -15 181.5 -55.5t129.5 -98.5l-110 -109
q-23 25 -52.5 47.5t-66 40t-82.5 28t-102 10.5q-87 0 -144 -18.5t-90.5 -49.5t-47 -72t-13.5 -86q0 -38 7.5 -72.5t31.5 -66.5t68 -61t117 -55q108 -39 180 -82t115.5 -91.5t62 -104t18.5 -118.5q0 -91 -32.5 -165t-92.5 -128t-144 -85.5t-186 -37.5l-35 -199h-133l35 201
q-124 16 -214.5 69t-152.5 126l119 104q56 -68 141 -114t200 -46z" />
    <glyph glyph-name="percent" unicode="%" 
d="M323 684q-52 0 -92.5 24.5t-65 74t-30.5 124t12 174.5t49 171t70 116.5t83.5 66.5t88.5 21q51 0 92 -24.5t66 -74t31.5 -124t-11.5 -174.5t-49 -171t-70 -116.5t-84 -66.5t-90 -21zM1056 1434h119l-960 -1434h-113zM831 -23q-52 0 -92.5 25t-65 74.5t-30.5 124t12 174.5
t49 171t70 116.5t83.5 66.5t88.5 21q51 0 92 -25t66 -74.5t31.5 -124t-11.5 -174.5t-49 -171t-70 -116.5t-84 -66.5t-90 -21zM333 788q25 0 48.5 13.5t44.5 46t39 85.5t32 132t14.5 134t-9 89t-28.5 49t-44 15q-26 0 -49.5 -13.5t-44.5 -45.5t-38.5 -85t-31.5 -131
q-14 -79 -14.5 -134t9.5 -89.5t29 -50t43 -15.5zM841 82q25 0 48.5 13.5t44.5 45.5t39 85t32 132t14.5 134t-9 89t-28.5 49t-44 15q-26 0 -49.5 -13.5t-44.5 -45t-38.5 -84.5t-31.5 -131q-14 -79 -14.5 -134t9.5 -89.5t29 -50t43 -15.5z" />
    <glyph glyph-name="ampersand" unicode="&#x26;" horiz-adv-x="1311" 
d="M737 1456q62 0 116.5 -16.5t95.5 -49.5t64.5 -81t24.5 -111q1 -77 -31.5 -142.5t-85 -121t-118 -102t-131.5 -84.5l213 -367q40 56 76.5 120.5t70.5 133.5l129 -47q-43 -93 -93.5 -176.5t-109.5 -155.5l150 -256h-176l-82 141q-87 -77 -186 -120.5t-211 -43.5
q-89 0 -162 23.5t-124.5 69.5t-79.5 113t-28 153q0 82 27 151.5t78 128t125.5 106.5t169.5 87l-45 80q-35 64 -51.5 116t-16.5 109q0 75 29.5 138t82 108.5t124 70.5t155.5 25zM526 696q-81 -32 -140 -68.5t-97 -79.5t-56 -93t-18 -109q0 -102 69 -165.5t189 -63.5
q85 0 161.5 37.5t145.5 103.5zM502 1122q0 -48 12.5 -86.5t32.5 -72.5l61 -107q44 25 90.5 56.5t85 71t63.5 87.5t25 107q1 65 -38 102.5t-105 36.5q-53 0 -95 -14.5t-71.5 -40t-45 -61.5t-15.5 -79z" />
    <glyph glyph-name="quotesingle" unicode="'" horiz-adv-x="526" 
d="M346 764h-125l84 670h194z" />
    <glyph glyph-name="parenleft" unicode="(" horiz-adv-x="713" 
d="M370 -221q-60 55 -126.5 130t-123 168t-93 202t-36.5 233q0 127 30 234.5t81.5 198t119 166t142.5 139t153 116t150 98.5l55 -80q-121 -81 -224 -170.5t-178.5 -195t-118 -231t-42.5 -279.5q0 -109 23 -201.5t62 -172.5t90.5 -151t109.5 -137z" />
    <glyph glyph-name="parenright" unicode=")" horiz-adv-x="713" 
d="M-9 -141q121 81 224 170.5t179 195t118.5 231t42.5 279.5q0 109 -23.5 203t-62 172.5t-90.5 149.5t-109 137l74 67q62 -57 127 -131t121.5 -166t93 -202t36.5 -234q0 -127 -30 -234.5t-81.5 -198t-119 -166t-142.5 -139t-152.5 -116t-149.5 -98.5z" />
    <glyph glyph-name="asterisk" unicode="*" horiz-adv-x="1024" 
d="M823 883l-237 178l30 -297h-110l31 297l-238 -178l-55 96l264 121l-264 119l55 96l238 -176l-31 295h110l-30 -295l237 176l56 -96l-265 -119l265 -121z" />
    <glyph glyph-name="plus" unicode="+" 
d="M561 635h-391v139h391v406h147v-406h391v-139h-391v-406h-147v406z" />
    <glyph glyph-name="comma" unicode="," horiz-adv-x="635" 
d="M147 -242h-112l114 478h215z" />
    <glyph glyph-name="hyphen" unicode="-" horiz-adv-x="659" 
d="M547 674h-451l27 149h450z" />
    <glyph glyph-name="hyphen" unicode="&#xad;" horiz-adv-x="659" 
d="M547 674h-451l27 149h450z" />
    <glyph glyph-name="period" unicode="." horiz-adv-x="635" 
d="M352 109q0 -27 -11 -51t-29 -42t-41.5 -28.5t-49.5 -10.5q-27 0 -51 10.5t-41.5 28.5t-28 42t-10.5 51t10.5 51t28 43t41.5 30t51 11q26 0 49.5 -11t41.5 -30t29 -43t11 -51z" />
    <glyph glyph-name="slash" unicode="/" horiz-adv-x="870" 
d="M49 -184h-160l932 1802h160z" />
    <glyph glyph-name="zero" unicode="0" 
d="M1179 885q0 -189 -45 -354.5t-127 -288.5t-196 -194t-252 -71q-108 0 -194.5 36t-147.5 107.5t-94 178.5t-33 249q0 189 45 354.5t126.5 289t196 194t252.5 70.5q108 0 194.5 -35.5t147.5 -107t94 -178.5t33 -250zM1021 885q0 103 -19.5 182.5t-59.5 134.5t-100.5 83
t-143.5 28q-95 0 -177 -53.5t-143 -152.5t-96 -240.5t-35 -317.5q0 -103 19.5 -182.5t59.5 -134.5t100.5 -83t144.5 -28q94 0 176.5 53.5t143 152.5t95.5 240.5t35 317.5z" />
    <glyph glyph-name="one" unicode="1" 
d="M188 137h283l176 1006h-283l21 108q70 4 127 14.5t100.5 31t74.5 54t50 83.5h119l-228 -1297h299l-24 -137h-739z" />
    <glyph glyph-name="two" unicode="2" 
d="M45 0q27 136 73.5 239.5t114.5 186t160 150t209 131.5q114 61 185 108t111 90t54.5 87.5t14.5 101.5q0 105 -73.5 162t-197.5 57q-102 0 -190 -31t-166 -92l-74 117q94 73 204.5 111t236.5 38q90 0 166.5 -22.5t131.5 -67t86 -109.5t31 -149q0 -78 -19 -141t-67 -121
t-130.5 -116.5t-209.5 -125.5q-112 -59 -189 -116t-127.5 -112.5t-78 -111t-41.5 -112.5h744l-25 -152h-934z" />
    <glyph glyph-name="three" unicode="3" 
d="M1119 1118q0 -84 -21.5 -145.5t-58 -105.5t-84 -74t-98.5 -50q94 -37 147.5 -107.5t53.5 -189.5q0 -103 -39.5 -189t-111 -148.5t-172 -97t-222.5 -34.5q-73 0 -139 16.5t-123 45.5t-104.5 70t-81.5 90l120 96q67 -85 147.5 -129.5t213.5 -44.5q90 0 156.5 24t110.5 66.5
t65.5 101.5t21.5 129q0 112 -74.5 174t-220.5 62h-94l25 137h98q75 0 135 20.5t102 57.5t64 89t22 116q0 101 -63.5 158t-200.5 57q-88 0 -165.5 -37t-149.5 -98l-88 108q41 36 86.5 67t98 54t113.5 36t134 13q97 0 171 -25t124 -69.5t76 -106.5t26 -137z" />
    <glyph glyph-name="four" unicode="4" 
d="M795 340h-758l23 133l903 961h172l-168 -957h197l-25 -137h-196l-60 -340h-147zM820 477l135 766l-723 -766h588z" />
    <glyph glyph-name="five" unicode="5" 
d="M1150 1282h-672l-104 -442q27 17 56 30t62 22t72 14t86 5q219 0 339 -106.5t120 -312.5q0 -120 -43 -215.5t-117.5 -162t-175.5 -102t-217 -35.5q-81 0 -151 11.5t-130 32.5t-112.5 49.5t-99.5 62.5l98 123q102 -71 197.5 -103t216.5 -32q93 0 163 26t117.5 73t71.5 113
t24 146q0 140 -78.5 214.5t-244.5 74.5q-92 0 -157 -25.5t-122 -66.5l-147 61l158 697h813z" />
    <glyph glyph-name="six" unicode="6" 
d="M1139 465q0 -114 -42.5 -204.5t-116.5 -153.5t-173 -96.5t-212 -33.5q-110 0 -200.5 30.5t-155.5 89.5t-100.5 145.5t-35.5 197.5q0 121 27 240t81 227.5t135 203.5t189.5 167.5t244.5 119t300 58.5l-23 -141q-143 -12 -264 -57.5t-218 -119t-166.5 -172t-108.5 -218.5
q37 33 78 58t87.5 41.5t100 25t117.5 8.5q97 0 180 -24.5t144.5 -75.5t96.5 -129.5t35 -186.5zM980 457q0 129 -86 204.5t-256 75.5q-85 0 -154.5 -22.5t-119 -64.5t-76.5 -102t-27 -134q0 -141 93.5 -217t262.5 -76q88 0 156 27t114 72.5t69.5 106.5t23.5 130z" />
    <glyph glyph-name="seven" unicode="7" 
d="M1185 1284q-124 -121 -239.5 -260.5t-213 -299t-172.5 -340t-118 -384.5h-162q45 201 118 382t166 341.5t203 300t230 258.5h-746l29 152h934z" />
    <glyph glyph-name="eight" unicode="8" 
d="M1165 1098q0 -67 -19.5 -120t-54 -95t-83.5 -73t-107 -54q51 -22 94.5 -51.5t75 -70t49 -92.5t17.5 -118q0 -105 -43.5 -187.5t-118 -140.5t-174 -88.5t-211.5 -30.5q-122 0 -218 26t-162 76t-101 123t-35 167q0 73 22.5 137t65 116t103.5 91t139 61q-79 35 -128 105
t-49 178q0 80 34 152.5t96.5 127t151.5 87t200 32.5q114 0 199.5 -27t142.5 -75t85.5 -113.5t28.5 -142.5zM1010 1087q0 52 -19 93.5t-58 71t-97.5 45.5t-137.5 16q-82 0 -141.5 -21.5t-98 -56.5t-57 -79t-18.5 -89q0 -54 18.5 -97.5t56 -74t94 -47.5t132.5 -17q73 0 133 18
t103 51t66.5 80.5t23.5 106.5zM981 414q0 61 -23 111.5t-69 86.5t-115.5 56t-163.5 20q-93 0 -164 -23t-119 -64t-73 -97t-25 -123q0 -62 25 -110t71.5 -81t115 -51t157.5 -18q91 0 162 21.5t120 60.5t75 92.5t26 118.5z" />
    <glyph glyph-name="nine" unicode="9" 
d="M137 969q0 114 43 204t117 153t173 96.5t212 33.5q110 0 200.5 -30.5t155 -89.5t100 -145.5t35.5 -197.5q0 -121 -27 -239.5t-80.5 -227.5t-135 -203.5t-190 -167t-244.5 -119.5t-300 -59l23 142q143 12 264.5 57.5t218 119t166.5 172t109 218.5q-38 -33 -78.5 -58
t-87 -41.5t-100 -25t-117.5 -8.5q-97 0 -180.5 24.5t-145 75.5t-96.5 129.5t-35 186.5zM297 977q0 -136 88.5 -208.5t253.5 -72.5q84 0 153.5 22.5t119 64.5t77 102t27.5 135q0 138 -92 215.5t-265 77.5q-88 0 -155.5 -27t-113.5 -73t-69.5 -107t-23.5 -129z" />
    <glyph glyph-name="colon" unicode=":" horiz-adv-x="635" 
d="M493 963q0 -27 -10.5 -51t-28.5 -42t-42 -28.5t-50 -10.5q-27 0 -50.5 10.5t-41.5 28.5t-28.5 42t-10.5 51t10.5 51t28.5 43t41.5 30t50.5 11q26 0 50 -11t42 -30t28.5 -43t10.5 -51zM342 109q0 -27 -11 -51t-29 -42t-41.5 -28.5t-49.5 -10.5q-27 0 -51 10.5t-41.5 28.5
t-28 42t-10.5 51t10.5 51t28 43t41.5 30t51 11q26 0 49.5 -11t41.5 -30t29 -43t11 -51z" />
    <glyph glyph-name="semicolon" unicode=";" horiz-adv-x="635" 
d="M493 963q0 -27 -10.5 -51t-28.5 -42t-42 -28.5t-50 -10.5q-27 0 -50.5 10.5t-41.5 28.5t-28.5 42t-10.5 51t10.5 51t28.5 43t41.5 30t50.5 11q26 0 50 -11t42 -30t28.5 -43t10.5 -51zM129 -242h-113l115 478h215z" />
    <glyph glyph-name="less" unicode="&#x3c;" 
d="M204 621v167l910 568v-166l-775 -483l775 -484v-170z" />
    <glyph glyph-name="equal" unicode="=" 
d="M198 856v143h914v-143h-914zM198 410v143h914v-143h-914z" />
    <glyph glyph-name="greater" unicode="&#x3e;" 
d="M196 53v166l774 483l-774 484v170l909 -568v-167z" />
    <glyph glyph-name="question" unicode="?" horiz-adv-x="1141" 
d="M1079 1139q0 -82 -20.5 -142.5t-60.5 -108.5t-100 -87.5t-138 -79.5q-56 -29 -94 -55.5t-63 -62.5t-39.5 -88t-24.5 -130h-156q12 96 29.5 163.5t52.5 119.5t92 94.5t148 87.5q53 27 93 54.5t67 58.5t41 67t14 80q0 94 -72.5 147.5t-200.5 53.5q-53 0 -101.5 -10.5
t-94.5 -29.5t-90 -46t-89 -60l-84 119q104 82 220.5 127t250.5 45q94 0 171 -22t132.5 -63t86 -100t30.5 -132zM545 102q0 -25 -10.5 -47.5t-27.5 -40t-40 -27.5t-47 -10q-26 0 -48.5 10t-39.5 27.5t-27 40t-10 47.5t10 48.5t27 41.5t39.5 28.5t48.5 10.5q24 0 47 -10.5
t40 -28.5t27.5 -41.5t10.5 -48.5z" />
    <glyph glyph-name="at" unicode="@" horiz-adv-x="1712" 
d="M1595 737q0 -116 -21.5 -197t-61.5 -132t-95.5 -74t-124.5 -23q-38 0 -72 10t-62 27.5t-49.5 41t-35.5 50.5q-46 -59 -113.5 -94t-152.5 -35q-67 0 -124 17t-99 52t-66 87.5t-24 124.5q0 65 25.5 115t70 84t105 51.5t130.5 17.5q81 0 135 -16t93 -39v121q0 66 -49.5 98.5
t-161.5 32.5q-56 0 -108.5 -13t-100.5 -36l-45 88q62 31 127.5 47t140.5 16q68 0 124 -12t95.5 -38.5t61.5 -70t22 -106.5v-395q0 -28 8.5 -52.5t26 -42.5t45 -28.5t66.5 -10.5q94 0 141 83.5t47 248.5q0 140 -48 255t-133 197.5t-201.5 127.5t-254.5 45t-255 -45.5
t-202 -129.5t-132.5 -202t-47.5 -262q0 -146 47.5 -265.5t132.5 -204t202 -131t255 -46.5q82 0 148 15.5t131 47.5l36 -90q-44 -20 -82 -33.5t-75 -21.5t-75.5 -11.5t-82.5 -3.5q-107 0 -203.5 25t-178.5 71.5t-148 113t-112.5 148.5t-71.5 178.5t-25 203.5t25 203.5
t71.5 178.5t112.5 148t148 112.5t178.5 71.5t203.5 25q109 0 206 -26t179 -73.5t148 -114t111.5 -146.5t70 -171t24.5 -188zM1053 702q-39 23 -98 41.5t-140 18.5q-88 0 -147.5 -45.5t-59.5 -118.5q0 -90 50 -137t159 -47q72 0 136 34.5t100 88.5v165z" />
    <glyph glyph-name="A" unicode="A" horiz-adv-x="1380" 
d="M983 0l-57 365h-588l-186 -365h-168l747 1434h176l240 -1434h-164zM790 1245l-378 -735h491z" />
    <glyph glyph-name="B" unicode="B" horiz-adv-x="1274" 
d="M1176 1104q0 -68 -19.5 -122t-55 -96t-83.5 -72t-105 -48q106 -37 160.5 -114.5t54.5 -194.5q0 -109 -39.5 -194t-112 -143.5t-174 -89t-224.5 -30.5h-517l254 1434h424q99 0 180 -19t138 -59.5t88 -102.5t31 -149zM1016 1098q0 97 -70 143.5t-217 46.5h-280l-78 -446
h356q132 0 210.5 70.5t78.5 185.5zM969 453q0 118 -78.5 181.5t-216.5 63.5h-330l-96 -553h370q81 0 146 19.5t110.5 58.5t70 96.5t24.5 133.5z" />
    <glyph glyph-name="C" unicode="C" horiz-adv-x="1278" 
d="M1112 1118q-27 46 -57 82t-67.5 60.5t-85 37.5t-109.5 13q-115 0 -216.5 -67t-170 -177t-102.5 -233.5t-34 -258.5q0 -107 26.5 -190.5t74 -142t114 -89t146.5 -30.5q104 0 191.5 44.5t178.5 143.5l97 -102q-47 -51 -100 -94t-112 -73.5t-125.5 -47.5t-139.5 -17
q-114 0 -208 38.5t-161 113.5t-104 185t-37 253q0 119 24.5 231t69.5 210.5t109 181t142 141.5t169 92t190 33q82 0 148 -17t119 -49.5t94.5 -79.5t74.5 -106z" />
    <glyph glyph-name="D" unicode="D" horiz-adv-x="1339" 
d="M1231 854q0 -152 -34.5 -274.5t-94.5 -217.5t-140 -163t-171.5 -112.5t-189.5 -65.5t-193 -21h-347l254 1434h252q144 0 266 -32t210.5 -101.5t138 -179.5t49.5 -267zM1067 846q0 122 -35 206t-101 136.5t-161.5 76t-216.5 23.5h-104l-201 -1143h186q135 0 257 50
t207.5 145t127 222t41.5 284z" />
    <glyph glyph-name="E" unicode="E" horiz-adv-x="1194" 
d="M61 0l254 1434h856l-24 -146h-698l-80 -450h563l-25 -146h-563l-96 -547h729l-27 -145h-889z" />
    <glyph glyph-name="F" unicode="F" horiz-adv-x="1114" 
d="M1122 1288h-673l-84 -475h393l-27 -145h-391l-119 -668h-160l254 1434h832z" />
    <glyph glyph-name="G" unicode="G" horiz-adv-x="1341" 
d="M1112 1116q-27 47 -58 83.5t-69 61t-84.5 37.5t-105.5 13q-101 0 -198 -54.5t-173 -161t-115 -239t-39 -276.5q0 -108 25.5 -192.5t73.5 -143.5t116 -90t152 -31q167 0 269.5 107t137.5 321l3 12h-259l27 148h414l-25 -140q-27 -153 -81 -265t-130.5 -185t-172 -108.5
t-204.5 -35.5q-113 0 -206 40t-159.5 115t-103 183.5t-36.5 245.5q0 123 24.5 237.5t70 214t109.5 181t142.5 140t169.5 90.5t190 32q158 0 266 -67.5t168 -184.5z" />
    <glyph glyph-name="H" unicode="H" horiz-adv-x="1401" 
d="M1085 0h-159l121 676h-705l-121 -676h-160l254 1434h160l-108 -613h704l109 613h159z" />
    <glyph glyph-name="I" unicode="I" horiz-adv-x="557" 
d="M231 0h-159l254 1434h159z" />
    <glyph glyph-name="J" unicode="J" horiz-adv-x="1176" 
d="M969 559q-30 -178 -86.5 -301t-165.5 -197q-125 -84 -287 -84q-105 0 -182.5 29t-131 77.5t-84.5 113t-42 135.5l153 41q15 -59 37 -105t55.5 -78.5t82 -49.5t116.5 -17q78 0 139 24.5t106.5 76.5t77 131.5t50.5 189.5l156 889h159z" />
    <glyph glyph-name="K" unicode="K" horiz-adv-x="1307" 
d="M754 895l338 -895h-170l-289 772l-338 -360l-74 -412h-160l254 1434h160l-139 -794l745 794h183z" />
    <glyph glyph-name="L" unicode="L" horiz-adv-x="1169" 
d="M924 0h-863l254 1434h160l-227 -1289h702z" />
    <glyph glyph-name="M" unicode="M" horiz-adv-x="1606" 
d="M1290 0h-153l193 1101l-664 -1138l-256 1138l-195 -1101h-154l254 1434h174l241 -1120l636 1120h178z" />
    <glyph glyph-name="N" unicode="N" horiz-adv-x="1401" 
d="M1085 0h-149l-511 1181l-210 -1181h-154l254 1434h156l506 -1170l209 1170h153z" />
    <glyph glyph-name="O" unicode="O" horiz-adv-x="1436" 
d="M1325 881q0 -126 -24.5 -241.5t-70 -216t-109.5 -183t-142.5 -141t-170 -90.5t-190.5 -32q-117 0 -210.5 40.5t-159.5 115.5t-101.5 181.5t-35.5 238.5q0 125 24.5 241t70 216.5t109.5 182.5t142.5 140.5t169.5 90.5t190 32q117 0 211 -40.5t160 -115t101.5 -181
t35.5 -238.5zM1165 852q0 104 -24 189t-71 145t-116 92.5t-160 32.5q-106 0 -202 -57t-167.5 -155.5t-113 -231.5t-41.5 -285q0 -105 24 -189.5t71.5 -144.5t116.5 -92.5t159 -32.5q108 0 203 57t166.5 155.5t113 231.5t41.5 285z" />
    <glyph glyph-name="P" unicode="P" horiz-adv-x="1257" 
d="M1217 1065q0 -129 -45 -223.5t-124 -156.5t-186 -92t-231 -30h-309l-101 -563h-160l254 1434h424q100 0 187.5 -21.5t152 -66.5t101.5 -114.5t37 -166.5zM1053 1042q0 67 -22.5 114t-64.5 76t-102 42.5t-135 13.5h-280l-103 -579h303q104 0 180 24t127 69t74 106.5
t23 133.5z" />
    <glyph glyph-name="Q" unicode="Q" horiz-adv-x="1436" 
d="M1118 -47l-131 -78l-102 168q-128 -66 -267 -66q-117 0 -210.5 40.5t-159.5 115.5t-101.5 181.5t-35.5 238.5q0 125 24.5 241t70 216.5t109.5 182.5t142.5 140.5t169.5 90.5t190 32q117 0 211 -40.5t160 -115t101.5 -181t35.5 -238.5q0 -119 -22.5 -228.5t-64 -206
t-99.5 -177t-129 -140.5zM705 338l131 78l100 -166q104 98 166.5 256t62.5 346q0 104 -24 189t-71 145t-116 92.5t-159 32.5q-97 0 -187 -48t-163.5 -138.5t-124 -232.5t-50.5 -310q0 -105 24 -189.5t71.5 -144.5t116.5 -92.5t159 -32.5q45 0 87.5 10t82.5 29z" />
    <glyph glyph-name="R" unicode="R" horiz-adv-x="1323" 
d="M1245 1069q0 -110 -36 -188t-94.5 -130.5t-133 -83.5t-150.5 -46l216 -621h-170l-211 610h-336l-109 -610h-160l254 1434h476q103 0 186.5 -22t143 -67t92 -113.5t32.5 -162.5zM1083 1063q0 110 -74 167.5t-237 57.5h-323l-95 -534h379q169 0 259.5 82t90.5 227z" />
    <glyph glyph-name="S" unicode="S" horiz-adv-x="1204" 
d="M1004 1161q-34 35 -70.5 63t-79.5 47.5t-95 29.5t-118 10t-117 -18.5t-86 -50t-53 -73t-18 -86.5q0 -39 10.5 -71t42.5 -63t90.5 -65t153.5 -77q97 -44 164.5 -85.5t109.5 -89t61 -105t19 -132.5q0 -90 -35.5 -166.5t-100 -132.5t-153.5 -87.5t-197 -31.5
q-93 0 -170.5 19t-140 50.5t-111 72.5t-83.5 84l127 112q37 -44 79 -79.5t91 -60.5t105 -38.5t122 -13.5q67 0 123.5 18t97.5 51.5t63.5 80.5t22.5 106q0 46 -14.5 83.5t-49 72t-92 68.5t-143.5 73q-100 45 -167.5 85.5t-108.5 85.5t-58.5 98t-17.5 122q0 80 34 150.5
t94.5 123.5t145 84t185.5 31q81 0 148 -12t123 -35t102 -55.5t87 -73.5z" />
    <glyph glyph-name="T" unicode="T" horiz-adv-x="1196" 
d="M1194 1288h-416l-227 -1288h-160l227 1288h-419l26 146h996z" />
    <glyph glyph-name="U" unicode="U" horiz-adv-x="1380" 
d="M1176 563q-26 -149 -73 -259t-117 -183t-164.5 -108.5t-215.5 -35.5q-114 0 -201.5 29t-147 84.5t-90 135.5t-30.5 182q0 34 5.5 80.5t13.5 93.5l149 852h160l-150 -848q-8 -45 -11 -88.5t-3 -77.5q0 -143 79.5 -220t248.5 -77q85 0 149.5 28t111.5 85t78.5 143.5
t51.5 202.5l149 852h160z" />
    <glyph glyph-name="V" unicode="V" horiz-adv-x="1360" 
d="M639 0h-176l-230 1434h164l186 -1254l625 1254h168z" />
    <glyph glyph-name="W" unicode="W" horiz-adv-x="1745" 
d="M1219 0h-181l-80 1201l-505 -1201h-177l-32 1434h157l8 -1210l504 1210h172l83 -1210l429 1210h158z" />
    <glyph glyph-name="X" unicode="X" horiz-adv-x="1286" 
d="M174 0h-184l573 752l-284 682h167l222 -556l405 556h184l-524 -691l309 -743h-168l-244 614z" />
    <glyph glyph-name="Y" unicode="Y" horiz-adv-x="1327" 
d="M711 561l-99 -561h-159l102 575l-334 859h176l268 -710l509 710h182z" />
    <glyph glyph-name="Z" unicode="Z" horiz-adv-x="1278" 
d="M1243 1294l-1026 -1155h821l-24 -139h-1016l25 139l1026 1155h-781l25 140h975z" />
    <glyph glyph-name="bracketleft" unicode="[" horiz-adv-x="721" 
d="M696 1309h-247l-250 -1409h247l-20 -125h-397l290 1659h398z" />
    <glyph glyph-name="backslash" unicode="\" horiz-adv-x="870" 
d="M508 -184l-293 1802h147l293 -1802h-147z" />
    <glyph glyph-name="bracketright" unicode="]" horiz-adv-x="721" 
d="M360 -225h-397l21 125h247l250 1409h-248l21 125h397z" />
    <glyph glyph-name="asciicircum" unicode="^" horiz-adv-x="1143" 
d="M889 782l-215 484l-387 -484h-178l532 652h115l303 -652h-170z" />
    <glyph glyph-name="underscore" unicode="_" horiz-adv-x="1024" 
d="M850 -313h-1024l22 129h1024z" />
    <glyph glyph-name="grave" unicode="`" horiz-adv-x="1024" 
d="M639 1219l-252 327h211l154 -327h-113z" />
    <glyph glyph-name="a" unicode="a" horiz-adv-x="1096" 
d="M946 827q0 -20 -2.5 -42t-5.5 -44l-131 -741h-152l21 123q-58 -59 -143 -102.5t-185 -43.5q-64 0 -121.5 15.5t-101 49.5t-69 88t-25.5 130q0 100 35.5 176t97 127t144 77t177.5 26q81 0 152.5 -18t122.5 -44l22 127q3 17 4.5 37.5t1.5 36.5q0 83 -47 123.5t-147 40.5
q-84 0 -155.5 -22t-143.5 -60l-47 121q77 38 169.5 64t188.5 26q81 0 144 -16t106.5 -49.5t66.5 -84.5t23 -121zM739 481q-51 28 -117 45t-159 17q-65 0 -117 -18t-88 -51.5t-55 -81t-19 -107.5q0 -90 52 -136.5t149 -46.5q47 0 91 12.5t84 34.5t75 51.5t65 63.5z" />
    <glyph glyph-name="b" unicode="b" horiz-adv-x="1137" 
d="M1008 668q0 -165 -38.5 -293.5t-104.5 -217t-154.5 -134.5t-188.5 -46q-55 0 -99 12.5t-80 34.5t-66 52.5t-56 66.5l-26 -143h-152l250 1407l170 86l-96 -530q71 70 141 102.5t151 32.5q72 0 135.5 -26.5t111 -80t75 -134t27.5 -189.5zM854 651q0 152 -62 233t-180 81
q-38 0 -72 -9.5t-66 -27.5t-64.5 -44.5t-67.5 -60.5l-94 -528q20 -40 46 -74t60 -58.5t76.5 -38t95.5 -13.5q71 0 131 35t104 103.5t68.5 169.5t24.5 232z" />
    <glyph glyph-name="c" unicode="c" horiz-adv-x="1006" 
d="M840 844q-44 52 -103.5 86.5t-142.5 34.5q-79 0 -144 -39.5t-111 -109.5t-71.5 -166t-25.5 -210q0 -162 72 -245.5t206 -83.5q70 0 125.5 28.5t104.5 73.5l77 -100q-77 -70 -154 -103t-171 -33q-95 0 -171.5 31t-131 89.5t-84 144t-29.5 194.5q0 154 42.5 276.5
t113.5 208t164.5 131.5t195.5 46q65 0 116.5 -11.5t92.5 -31.5t73.5 -46.5t61.5 -56.5z" />
    <glyph glyph-name="d" unicode="d" horiz-adv-x="1137" 
d="M66 408q0 164 38.5 292.5t104.5 217t154 134.5t188 46q55 0 99 -12.5t80 -34.5t66 -52.5t56 -66.5l84 475l170 86l-266 -1493h-152l19 113q-64 -63 -133 -99.5t-160 -36.5q-72 0 -135 26.5t-110.5 80t-75 134.5t-27.5 190zM219 424q0 -152 62 -232.5t180 -80.5
q38 0 72 9.5t66 27.5t64.5 44t67.5 60l94 528q-20 40 -46 74t-60 58.5t-76.5 38.5t-95.5 14q-71 0 -131 -35.5t-104 -104t-68.5 -169.5t-24.5 -232z" />
    <glyph glyph-name="e" unicode="e" horiz-adv-x="1098" 
d="M977 668q0 -54 -5.5 -101.5t-15.5 -81.5h-716q-6 -86 8 -155t49.5 -118t91 -75t131.5 -26q74 0 139 23t132 63l57 -117q-89 -53 -173 -78t-179 -25q-89 0 -164.5 29.5t-130 86t-85 139.5t-30.5 190q0 153 39 277.5t107 213t160 137t198 48.5q94 0 166 -31t121 -87.5
t74.5 -135.5t25.5 -176zM827 610q6 78 -5 143.5t-41 112.5t-79.5 73t-119.5 26q-65 0 -118 -26t-93.5 -73t-69 -112.5t-43.5 -143.5h569z" />
    <glyph glyph-name="f" unicode="f" horiz-adv-x="729" 
d="M752 1323q-25 12 -53 18.5t-68 6.5q-66 0 -95.5 -31.5t-41.5 -102.5l-25 -139h211l-23 -129h-213l-165 -946h-154l166 946h-148l23 129h149l25 148q12 73 37.5 123.5t62.5 82t83.5 45t101.5 13.5q29 0 51 -2t39.5 -5.5t31.5 -8t27 -9.5z" />
    <glyph glyph-name="g" unicode="g" horiz-adv-x="1137" 
d="M414 -23q-72 0 -135 26.5t-110.5 80t-75 134.5t-27.5 190q0 164 38.5 292.5t104.5 217t154 134.5t188 46q55 0 99 -12.5t80 -34.5t66 -52.5t56 -66.5l27 143h151l-174 -989q-31 -157 -77.5 -238t-108 -128t-174 -79t-301.5 -36l-19 123q165 -1 255 20t138 60t80.5 100
t48.5 162l9 43q-74 -70 -142.5 -103t-150.5 -33zM219 424q0 -152 62 -232.5t180 -80.5q38 0 72 9.5t66 27.5t64.5 44t67.5 60l94 528q-20 40 -46 74t-60 58.5t-76.5 38.5t-95.5 14q-71 0 -131 -35.5t-104 -104t-68.5 -169.5t-24.5 -232z" />
    <glyph glyph-name="h" unicode="h" horiz-adv-x="1153" 
d="M989 764q0 -29 -3 -63t-9 -66l-115 -635h-153l110 618q5 29 7.5 60t2.5 57q0 115 -49.5 174.5t-158.5 59.5q-56 0 -106.5 -24t-92 -70t-72 -113.5t-45.5 -153.5l-108 -608h-154l250 1407l170 86l-96 -539q56 67 128 105.5t167 38.5q70 0 130 -21t104 -62.5t68.5 -104
t24.5 -146.5z" />
    <glyph glyph-name="i" unicode="i" horiz-adv-x="514" 
d="M477 1376q0 -22 -8.5 -41.5t-23 -34.5t-34 -23.5t-40.5 -8.5q-24 0 -44.5 8.5t-36 23.5t-24 34.5t-8.5 41.5q0 23 8.5 43.5t24 35.5t36 23.5t44.5 8.5q21 0 40.5 -8.5t34 -23.5t23 -35.5t8.5 -43.5zM207 0h-154l191 1075h153z" />
    <glyph glyph-name="j" unicode="j" horiz-adv-x="514" 
d="M477 1376q0 -22 -8.5 -41.5t-23 -34.5t-34 -23.5t-40.5 -8.5q-24 0 -44.5 8.5t-36 23.5t-24 34.5t-8.5 41.5q0 23 8.5 43.5t24 35.5t36 23.5t44.5 8.5q21 0 40.5 -8.5t34 -23.5t23 -35.5t8.5 -43.5zM209 14q-17 -92 -43.5 -160.5t-71.5 -117.5t-112 -81t-164 -50l-33 123
q70 15 116.5 35.5t76.5 53.5t47.5 83.5t31.5 126.5l187 1048h153z" />
    <glyph glyph-name="k" unicode="k" horiz-adv-x="1026" 
d="M600 692l215 -692h-156l-172 571l-235 -262l-55 -309h-154l250 1407l170 86l-176 -981l489 563h172z" />
    <glyph glyph-name="l" unicode="l" horiz-adv-x="514" 
d="M207 0h-154l250 1407l170 86z" />
    <glyph glyph-name="m" unicode="m" horiz-adv-x="1729" 
d="M1565 784q0 -42 -3 -76.5t-10 -72.5l-114 -635h-154l111 618q6 43 8 84t2 54q0 107 -46.5 160t-139.5 53q-107 0 -186 -100t-107 -261l-109 -608h-153l110 618q6 40 8 82.5t2 55.5q0 49 -10.5 88.5t-33 67t-57.5 42.5t-85 15q-107 0 -186 -100t-107 -261l-108 -608h-154
l190 1075h152l-18 -121q24 31 51.5 57.5t61 46t73.5 30t90 10.5q107 0 170 -50.5t92 -138.5q32 42 67 76.5t77 59.5t92 39t112 14q142 0 227 -84t85 -230z" />
    <glyph glyph-name="n" unicode="n" horiz-adv-x="1153" 
d="M989 764q0 -29 -3 -63t-9 -66l-115 -635h-153l110 618q5 29 7.5 60t2.5 57q0 115 -49.5 174.5t-158.5 59.5q-56 0 -106.5 -24.5t-91.5 -70t-72 -113t-46 -153.5l-108 -608h-154l190 1075h152l-18 -121q57 67 129 105.5t166 38.5q153 0 240 -89.5t87 -244.5z" />
    <glyph glyph-name="o" unicode="o" horiz-adv-x="1151" 
d="M86 436q0 154 42.5 276.5t113.5 208t164.5 131.5t195.5 46q97 0 176.5 -32t135 -91.5t86 -144.5t30.5 -191q0 -154 -42.5 -276.5t-113.5 -208t-164.5 -131.5t-195.5 -46q-98 0 -177 32t-134.5 91.5t-86 144.5t-30.5 191zM242 440q0 -80 19.5 -141.5t58 -104.5t92.5 -63
t116 -20q76 0 139.5 39t109.5 108.5t71.5 166t25.5 210.5q0 70 -17 131.5t-54.5 107t-92.5 68.5t-122 23q-76 0 -139.5 -39t-109.5 -109t-71.5 -166.5t-25.5 -210.5z" />
    <glyph glyph-name="p" unicode="p" horiz-adv-x="1137" 
d="M1008 668q0 -165 -38.5 -293.5t-104.5 -217t-154.5 -134.5t-188.5 -46q-55 0 -99 12.5t-80 34.5t-66 52.5t-56 66.5l-80 -452l-170 -86l262 1470h152l-18 -112q85 81 152 108t140 27q72 0 135.5 -26.5t111 -80t75 -134t27.5 -189.5zM854 651q0 152 -62 233t-180 81
q-38 0 -72 -9.5t-66 -27.5t-64.5 -44.5t-67.5 -60.5l-94 -528q20 -40 46 -74t60 -58.5t76.5 -38t95.5 -13.5q71 0 131 35t104 103.5t68.5 169.5t24.5 232z" />
    <glyph glyph-name="q" unicode="q" horiz-adv-x="1137" 
d="M66 408q0 164 38.5 292.5t104.5 217t154 134.5t188 46q55 0 99 -12.5t80 -34.5t66 -52.5t56 -66.5l27 143h151l-244 -1384l-170 -86l91 508q-76 -73 -143.5 -104.5t-149.5 -31.5q-72 0 -135 26.5t-110.5 80t-75 134.5t-27.5 190zM219 424q0 -152 62 -232.5t180 -80.5
q38 0 72 9.5t66 27.5t64.5 44t67.5 60l94 528q-20 40 -46 74t-60 58.5t-76.5 38.5t-95.5 14q-71 0 -131 -35.5t-104 -104t-68.5 -169.5t-24.5 -232z" />
    <glyph glyph-name="r" unicode="r" horiz-adv-x="829" 
d="M756 928q-25 14 -57.5 21t-82.5 7q-55 0 -104 -19t-90 -60t-70 -104.5t-45 -151.5l-110 -621h-154l190 1075h152l-20 -127q49 64 127 107t161 43q60 0 98.5 -7.5t63.5 -19.5z" />
    <glyph glyph-name="s" unicode="s" horiz-adv-x="948" 
d="M752 856q-30 28 -60.5 48.5t-63.5 34.5t-70 21t-81 7q-83 0 -134.5 -39t-51.5 -105q0 -29 8 -52.5t31 -46t64 -47t106 -56.5q73 -36 124 -70t83.5 -70t47.5 -78t15 -94q0 -87 -31.5 -150t-84.5 -103.5t-121.5 -59.5t-143.5 -19q-124 0 -222 42.5t-167 113.5l94 109
q62 -63 137 -98t168 -35q106 0 165 46.5t59 127.5q0 29 -9 54t-34 50t-68 51t-111 58q-71 33 -120 65.5t-79.5 68t-44.5 75.5t-14 88q0 142 94.5 223.5t256.5 81.5q60 0 111.5 -10.5t95.5 -28.5t80 -41.5t65 -50.5z" />
    <glyph glyph-name="t" unicode="t" horiz-adv-x="762" 
d="M680 946h-266l-121 -692q-3 -17 -4.5 -36t-1.5 -32q0 -34 22.5 -53.5t73.5 -19.5q54 0 88 6t66 20l-37 -135q-41 -15 -75.5 -21t-72.5 -6q-112 0 -168.5 44t-56.5 137q0 23 8 73l125 715h-133l25 129h133l57 332l170 86l-74 -418h267z" />
    <glyph glyph-name="u" unicode="u" horiz-adv-x="1153" 
d="M100 311q0 29 3 63t10 66l114 635h154l-111 -618q-5 -29 -7.5 -60t-2.5 -57q0 -115 50 -174.5t159 -59.5q55 0 106.5 25t92 70.5t71 112.5t45.5 153l109 608h154l-191 -1075h-151l18 121q-55 -66 -126.5 -105t-168.5 -39q-151 0 -239.5 88t-88.5 246z" />
    <glyph glyph-name="v" unicode="v" horiz-adv-x="1061" 
d="M469 0h-135l-189 1075h160l130 -896l444 896h163z" />
    <glyph glyph-name="w" unicode="w" horiz-adv-x="1487" 
d="M983 0h-141l-76 842l-375 -842h-137l-94 1075h155l48 -845l374 845h140l76 -845l345 845h156z" />
    <glyph glyph-name="x" unicode="x" horiz-adv-x="1024" 
d="M793 0h-158l-172 441l-318 -441h-168l429 561l-218 514h158l158 -403l287 403h167l-397 -522z" />
    <glyph glyph-name="y" unicode="y" horiz-adv-x="1079" 
d="M279 -379h-154l213 391l-193 1063h158l139 -891l453 891h166z" />
    <glyph glyph-name="z" unicode="z" horiz-adv-x="999" 
d="M907 963l-702 -834h575l-22 -129h-760l20 113l701 833h-529l23 129h713z" />
    <glyph glyph-name="braceleft" unicode="{" horiz-adv-x="813" 
d="M809 1315q-76 -3 -129.5 -17t-90 -44.5t-58.5 -80.5t-35 -126l-31 -170q-12 -64 -26 -109.5t-33.5 -77.5t-46.5 -54t-64 -38q31 -16 50.5 -38t27.5 -54t6 -77.5t-12 -109.5l-23 -126q-12 -71 -5.5 -122t33 -85.5t73 -54.5t114.5 -27l-22 -129q-101 6 -174 34t-116.5 81
t-56.5 132.5t7 188.5l30 176q16 86 -3.5 117t-84.5 31h-55l25 143h49q34 0 58.5 6.5t42 23t28 45t18.5 72.5l41 224q21 114 56 190t92 121.5t139.5 64.5t197.5 19z" />
    <glyph glyph-name="bar" unicode="|" horiz-adv-x="623" 
d="M193 -379h-148l356 2017h148z" />
    <glyph glyph-name="braceright" unicode="}" horiz-adv-x="813" 
d="M666 541h-50q-35 0 -59 -6.5t-41.5 -23t-28.5 -45t-18 -73.5l-41 -223q-21 -114 -56 -190t-92 -121.5t-139.5 -64.5t-197.5 -19l22 129q76 3 129.5 16.5t90.5 44t59 81t35 126.5l30 170q12 64 26 109.5t33.5 77.5t46 54t64.5 38q-32 16 -51 37.5t-27 54t-6 77.5t13 109
l22 127q12 70 5.5 121.5t-33 86t-73.5 54t-114 27.5l23 129q100 -6 173 -34.5t116.5 -81.5t56.5 -132t-6 -188l-31 -177q-15 -77 2 -112t84 -35h57z" />
    <glyph glyph-name="asciitilde" unicode="~" horiz-adv-x="1130" 
d="M1032 864q-26 -65 -54.5 -113t-63 -80.5t-77.5 -48.5t-98 -16q-31 0 -56 5t-47.5 14.5t-44 22.5t-44.5 28q-63 42 -104 61t-72 19q-28 0 -49 -9t-39 -29t-34.5 -50t-35.5 -74l-135 61q26 64 54.5 112.5t63 81t77.5 48.5t98 16q59 0 105 -20t87 -49q60 -38 99.5 -59
t76.5 -21q28 0 48.5 8t38 27t34 50t37.5 77z" />
    <glyph glyph-name="exclamdown" unicode="&#xa1;" horiz-adv-x="539" 
d="M496 1331q0 -25 -10 -48.5t-27.5 -41.5t-40 -28.5t-47.5 -10.5t-47.5 10.5t-40 28.5t-27.5 41.5t-10 48.5t10 48t27.5 40t40 27t47.5 10t47.5 -10t40 -27t27.5 -40t10 -48zM340 674l-119 -674h-158l119 674l103 375h86z" />
    <glyph glyph-name="cent" unicode="&#xa2;" 
d="M370 631q0 -168 77.5 -249t214.5 -81q88 0 150 27t117 75l84 -102q-75 -66 -159.5 -99.5t-194.5 -33.5l-35 -191h-133l37 205q-149 39 -231 156.5t-82 288.5q0 145 41 262.5t111 202.5t162 134.5t193 59.5l33 189h133l-34 -193q88 -11 153.5 -47.5t118.5 -91.5l-105 -105
q-48 59 -114.5 88t-146.5 29q-91 0 -163.5 -40t-122.5 -110.5t-77 -166.5t-27 -207z" />
    <glyph glyph-name="sterling" unicode="&#xa3;" 
d="M542 602q-10 -141 -75 -256.5t-171 -202.5h703l-25 -143h-880l24 139q48 42 94.5 90t84 104.5t62.5 123t30 145.5h-189l23 135h159q-8 42 -18.5 81t-20.5 78.5t-17 80.5t-7 86q0 102 38.5 176t102.5 122.5t146 71.5t168 23q143 0 246 -51.5t163 -140.5l-114 -97
q-53 79 -129 114.5t-183 35.5q-138 0 -209 -65.5t-71 -184.5q0 -38 7.5 -77.5t17 -81t20 -84t16.5 -87.5h287l-23 -135h-260z" />
    <glyph glyph-name="currency" unicode="&#xa4;" horiz-adv-x="1208" 
d="M293 813q-11 -42 -17.5 -85.5t-9.5 -88.5h553l-24 -129h-529q15 -184 100.5 -286.5t227.5 -102.5q51 0 94.5 13t84 38t79 60.5t78.5 80.5l96 -104q-47 -55 -95.5 -98t-102.5 -73t-114 -45.5t-130 -15.5q-108 0 -196 40t-150 116t-95.5 185.5t-33.5 248.5q0 121 22 234
t63.5 211.5t101 180.5t133.5 140.5t162 90.5t187 32q75 0 135.5 -17t109 -49.5t87 -79.5t70.5 -106l-136 -86q-27 48 -55 84t-61.5 61t-75.5 37.5t-96 12.5q-69 0 -131.5 -27.5t-117 -76.5t-99 -117.5t-76.5 -149.5h540l-24 -129h-555z" />
    <glyph glyph-name="yen" unicode="&#xa5;" 
d="M477 268h-328l27 142h327l29 165l-313 859h176l245 -710l490 710h182l-624 -873l-27 -151h328l-27 -142h-326l-47 -268h-159z" />
    <glyph glyph-name="brokenbar" unicode="&#xa6;" horiz-adv-x="623" 
d="M402 1638h147l-154 -874h-147zM201 496h147l-154 -875h-147z" />
    <glyph glyph-name="section" unicode="&#xa7;" horiz-adv-x="1286" 
d="M442 944q-72 72 -72 180q0 71 27 131.5t78 105t126 70t171 25.5q120 0 219.5 -42t187.5 -128l-112 -108q-36 36 -71.5 61.5t-73.5 42t-81 24t-94 7.5t-91.5 -11.5t-69 -33t-43.5 -52t-15 -67.5q0 -32 8.5 -59.5t35 -52t76 -48.5t130.5 -49q122 -38 201 -78.5t125.5 -84.5
t64.5 -94t18 -108q0 -77 -26 -138t-70 -109.5t-102.5 -85.5t-122.5 -66q37 -37 54.5 -80.5t17.5 -99.5q0 -71 -27 -131.5t-78 -105t-126 -70t-171 -25.5q-119 0 -221 42.5t-186 127.5l112 109q36 -36 71 -62t73 -42.5t81 -24t95 -7.5q99 0 159 43.5t60 120.5q0 32 -8.5 59.5
t-35 52t-76 48.5t-130.5 49q-122 39 -201.5 79t-126 84.5t-64.5 94t-18 107.5q0 78 26 139t70.5 109t102.5 85t123 66zM753 256q137 57 205 129t68 168q0 36 -14 68t-47 61.5t-88 57t-138 53.5q-56 17 -101 35t-83 36q-130 -52 -201.5 -126.5t-71.5 -170.5q0 -36 14 -68
t47 -61.5t88 -56.5t138 -53q56 -17 101 -35t83 -37z" />
    <glyph glyph-name="dieresis" unicode="&#xa8;" horiz-adv-x="1024" 
d="M936 1348q0 -23 -9 -43.5t-24.5 -36t-36 -24.5t-43.5 -9t-43.5 9t-35.5 24.5t-24 36t-9 43.5t9 43.5t24 36.5t35.5 25t43.5 9t43.5 -9t36 -25t24.5 -36.5t9 -43.5zM539 1348q0 -23 -9 -43.5t-24.5 -36t-35.5 -24.5t-42 -9q-24 0 -44.5 9t-36.5 24.5t-25 36t-9 43.5
t9 43.5t25 36.5t36.5 25t44.5 9q22 0 42 -9t35.5 -25t24.5 -36.5t9 -43.5z" />
    <glyph glyph-name="copyright" unicode="&#xa9;" horiz-adv-x="1712" 
d="M1595 717q0 -165 -56.5 -301.5t-155.5 -234t-234.5 -151t-292.5 -53.5q-158 0 -293 53.5t-234 151t-155.5 234t-56.5 301.5t56.5 301t155.5 233.5t234 151t293 53.5q157 0 292.5 -53.5t234.5 -151t155.5 -233.5t56.5 -301zM1495 717q0 143 -49 261.5t-134.5 204
t-202.5 132.5t-253 47t-252.5 -47t-202.5 -132.5t-135 -204t-49 -261.5t49 -261.5t135 -204t202.5 -132.5t252.5 -47t253 47t202.5 132.5t134.5 204t49 261.5zM1049 936q-39 52 -82.5 78t-108.5 26q-51 0 -93 -23.5t-73 -66.5t-48 -102t-17 -129q0 -72 17.5 -131.5t48 -103
t73 -67.5t92.5 -24q65 0 111.5 27.5t91.5 83.5l80 -70q-51 -68 -121.5 -105.5t-163.5 -37.5q-77 0 -139.5 32.5t-107 89.5t-69 134.5t-24.5 167.5q0 92 25 170.5t70.5 135.5t109 89.5t139.5 32.5q88 0 154.5 -34t120.5 -105z" />
    <glyph glyph-name="ordfeminine" unicode="&#xaa;" horiz-adv-x="924" 
d="M862 1237q0 -17 -2.5 -35t-5.5 -35l-106 -589h-134l13 81q-48 -42 -110.5 -71t-139.5 -29q-51 0 -98 12.5t-83 40.5t-57.5 72t-21.5 107q0 79 29 139t79.5 101t117.5 62t144 21q62 0 116 -11.5t97 -31.5l19 92q2 12 3 26.5t1 27.5q0 66 -36 95t-114 29q-65 0 -122 -17.5
t-119 -49.5l-43 112q68 29 142 49.5t153 20.5q133 0 205.5 -53.5t72.5 -165.5zM680 958q-38 22 -90 35t-121 13q-102 0 -159.5 -51.5t-57.5 -145.5q0 -69 39.5 -104t114.5 -35q37 0 71 10t65.5 27t59 40.5t51.5 49.5z" />
    <glyph glyph-name="guillemotleft" unicode="&#xab;" horiz-adv-x="1180" 
d="M641 530l317 -530h-170l-321 537l510 538h178zM205 530l317 -530h-170l-321 537l510 538h178z" />
    <glyph glyph-name="logicalnot" unicode="&#xac;" horiz-adv-x="1182" 
d="M1073 219h-150v416h-806v139h956v-555z" />
    <glyph glyph-name="registered" unicode="&#xae;" horiz-adv-x="1712" 
d="M1595 717q0 -165 -56.5 -301.5t-155.5 -234t-234.5 -151t-292.5 -53.5q-158 0 -293 53.5t-234 151t-155.5 234t-56.5 301.5t56.5 301t155.5 233.5t234 151t293 53.5q157 0 292.5 -53.5t234.5 -151t155.5 -233.5t56.5 -301zM1495 717q0 143 -49 261.5t-134.5 204
t-202.5 132.5t-253 47t-252.5 -47t-202.5 -132.5t-135 -204t-49 -261.5t49 -261.5t135 -204t202.5 -132.5t252.5 -47t253 47t202.5 132.5t134.5 204t49 261.5zM1184 903q0 -93 -51 -152t-138 -79l183 -350h-127l-177 342h-176v-342h-108v817h332q55 0 103 -14t83 -43
t55.5 -73.5t20.5 -105.5zM1075 903q0 69 -41 104t-119 35h-217v-276h205q88 0 130 33t42 104z" />
    <glyph glyph-name="macron" unicode="&#xaf;" horiz-adv-x="1024" 
d="M889 1266h-557l24 143h557z" />
    <glyph glyph-name="macron" unicode="&#x2c9;" horiz-adv-x="1024" 
d="M889 1266h-557l24 143h557z" />
    <glyph glyph-name="degree" unicode="&#xb0;" horiz-adv-x="975" 
d="M890 1065q0 -84 -28.5 -156.5t-79 -125.5t-121 -83t-154.5 -30q-83 0 -153 30t-121 83t-80 125.5t-29 156.5q0 82 29 153.5t80 124t121 83t153 30.5q84 0 154.5 -30.5t121 -83t79 -124t28.5 -153.5zM755 1065q0 57 -17.5 105.5t-50 83.5t-78.5 55t-102 20
q-55 0 -100.5 -20t-78 -55t-50.5 -83.5t-18 -105.5q0 -60 18 -109.5t50.5 -84.5t78 -54.5t100.5 -19.5q56 0 102 19.5t78.5 54.5t50 84.5t17.5 109.5z" />
    <glyph glyph-name="plusminus" unicode="&#xb1;" horiz-adv-x="1182" 
d="M670 655v-395h-150v395h-403v140h403v395h150v-395h403v-140h-403zM117 59v140h956v-140h-956z" />
    <glyph glyph-name="twosuperior" unicode="&#xb2;" horiz-adv-x="885" 
d="M56 532q19 94 49 164.5t73.5 125.5t101 98t130.5 83q103 55 154.5 97.5t51.5 113.5q0 51 -37.5 78.5t-100.5 27.5q-64 0 -115.5 -22.5t-105.5 -62.5l-70 112q71 56 145.5 82.5t152.5 26.5q59 0 109.5 -15.5t87 -45t57 -73t20.5 -100.5q0 -51 -12 -92t-42.5 -78.5
t-82.5 -74.5t-132 -79q-58 -30 -99 -58.5t-69 -56t-45.5 -54.5t-27.5 -55h445l-25 -142h-613z" />
    <glyph glyph-name="threesuperior" unicode="&#xb3;" horiz-adv-x="829" 
d="M713 1229q0 -50 -14.5 -87t-37 -63t-51.5 -43.5t-57 -29.5q54 -16 88.5 -62t34.5 -118q0 -68 -25 -124t-71.5 -96.5t-111.5 -63t-143 -22.5q-94 0 -173.5 45t-129.5 118l109 88q31 -42 81 -78.5t132 -36.5q48 0 83 12.5t58.5 35t35 53.5t11.5 67q0 55 -38.5 87t-113.5 32
h-87l23 124h80q43 0 73.5 11.5t54 33.5t33 49.5t9.5 55.5q0 49 -32 77t-101 28q-48 0 -93 -23.5t-94 -65.5l-89 99q31 29 64 51t68.5 40t76 26t84.5 8q64 0 113 -16.5t82.5 -46.5t50.5 -72t17 -93z" />
    <glyph glyph-name="acute" unicode="&#xb4;" horiz-adv-x="1024" 
d="M582 1219h-138l269 327h235z" />
    <glyph glyph-name="mu" unicode="&#xb5;" horiz-adv-x="1159" 
d="M862 0h-151l18 121q-26 -30 -56 -56.5t-65.5 -46t-78.5 -30.5t-95 -11q-63 0 -117.5 16t-110.5 63l-65 -365l-170 -86l262 1470h154l-111 -618q-5 -29 -7.5 -60t-2.5 -57q0 -115 50 -174.5t159 -59.5q55 0 106 24t92.5 70.5t72 113.5t45.5 153l108 608h154z" />
    <glyph glyph-name="paragraph" unicode="&#xb6;" horiz-adv-x="1409" 
d="M1024 -379h-158l297 1673h-186l-297 -1673h-158l162 914h-51q-106 0 -197 21.5t-157.5 68t-104 120.5t-37.5 179q0 107 39 200t110.5 162t173.5 108.5t228 39.5h658z" />
    <glyph glyph-name="periodcentered" unicode="&#xb7;" horiz-adv-x="492" 
d="M385 752q0 -27 -10.5 -51t-28.5 -41.5t-42 -28t-50 -10.5q-27 0 -51 10.5t-41.5 28t-28 41.5t-10.5 51t10.5 51t28 43t41.5 30t51 11q26 0 50 -11t42 -30t28.5 -43t10.5 -51z" />
    <glyph glyph-name="periodcentered" unicode="&#x2219;" horiz-adv-x="492" 
d="M385 752q0 -27 -10.5 -51t-28.5 -41.5t-42 -28t-50 -10.5q-27 0 -51 10.5t-41.5 28t-28 41.5t-10.5 51t10.5 51t28 43t41.5 30t51 11q26 0 50 -11t42 -30t28.5 -43t10.5 -51z" />
    <glyph glyph-name="cedilla" unicode="&#xb8;" horiz-adv-x="1024" 
d="M598 -205q0 -49 -19 -85t-52 -59t-76.5 -34.5t-92.5 -11.5q-83 0 -145 22t-121 66l51 61q43 -32 90 -48.5t113 -16.5q59 0 94 21t35 65q0 29 -14.5 47t-46.5 18q-29 0 -51.5 -8t-45.5 -25l-67 29l80 164h92l-53 -104q21 11 44.5 16.5t55.5 5.5q54 0 91.5 -30t37.5 -93z
" />
    <glyph glyph-name="onesuperior" unicode="&#xb9;" horiz-adv-x="705" 
d="M358 1210h-155l18 107q40 3 72 9t57.5 18.5t43.5 33.5t30 54h117l-161 -910h-144z" />
    <glyph glyph-name="ordmasculine" unicode="&#xba;" horiz-adv-x="975" 
d="M897 1087q0 -123 -34.5 -220.5t-92.5 -165.5t-134 -104t-159 -36q-80 0 -144.5 25.5t-110.5 73.5t-70.5 116t-24.5 154q0 123 34.5 220.5t92.5 165.5t134 104t159 36q80 0 144.5 -25.5t110.5 -73.5t70.5 -116.5t24.5 -153.5zM762 1087q0 116 -56.5 183t-168.5 67
q-61 0 -111.5 -31t-87 -85.5t-56.5 -129t-20 -161.5q0 -116 56.5 -183t168.5 -67q61 0 111.5 31t87 85.5t56.5 129t20 161.5z" />
    <glyph glyph-name="guillemotright" unicode="&#xbb;" horiz-adv-x="1180" 
d="M578 0h-179l514 545l-317 530h170l321 -536zM141 0h-178l514 545l-317 530h170l321 -536z" />
    <glyph glyph-name="onequarter" unicode="&#xbc;" horiz-adv-x="1905" 
d="M447 1210h-155l18 107q40 3 72 9t57.5 18.5t43.5 33.5t30 54h117l-161 -910h-144zM382 0h-172l1226 1434h172zM1352 204h-459l20 112l563 594h137l-101 -573h119l-23 -133h-119l-36 -203h-137zM1375 337l64 358l-343 -358h279z" />
    <glyph glyph-name="onehalf" unicode="&#xbd;" horiz-adv-x="1905" 
d="M420 1210h-155l18 107q40 3 72 9t57.5 18.5t43.5 33.5t30 54h117l-161 -910h-144zM320 0h-172l1226 1434h172zM986 1q19 94 49 164.5t73.5 125.5t101 98t130.5 83q103 55 154.5 97.5t51.5 113.5q0 51 -37.5 78.5t-100.5 27.5q-64 0 -115.5 -22.5t-105.5 -62.5l-70 112
q71 56 145.5 82.5t152.5 26.5q59 0 109.5 -15.5t87 -45t57 -73t20.5 -100.5q0 -51 -12 -92t-42.5 -78.5t-82.5 -74.5t-132 -79q-58 -30 -99 -58.5t-69 -56t-45.5 -54.5t-27.5 -55h445l-25 -142h-613z" />
    <glyph glyph-name="threequarters" unicode="&#xbe;" horiz-adv-x="1905" 
d="M824 1229q0 -50 -14.5 -87t-37 -63t-51.5 -43.5t-57 -29.5q54 -16 88.5 -62t34.5 -118q0 -68 -25 -124t-71.5 -96.5t-111.5 -63t-143 -22.5q-94 0 -173.5 45t-129.5 118l109 88q31 -42 81 -78.5t132 -36.5q48 0 83 12.5t58.5 35t35 53.5t11.5 67q0 55 -38.5 87t-113.5 32
h-87l23 124h80q43 0 73.5 11.5t54 33.5t33 49.5t9.5 55.5q0 49 -32 77t-101 28q-48 0 -93 -23.5t-94 -65.5l-89 99q31 29 64 51t68.5 40t76 26t84.5 8q64 0 113 -16.5t82.5 -46.5t50.5 -72t17 -93zM511 0h-172l1226 1434h172zM1421 205h-459l20 112l563 594h137l-101 -573
h119l-23 -133h-119l-36 -203h-137zM1444 338l64 358l-343 -358h279z" />
    <glyph glyph-name="questiondown" unicode="&#xbf;" horiz-adv-x="1141" 
d="M61 295q0 82 20.5 142.5t61 108.5t100.5 87.5t138 79.5q56 29 94 55.5t63 62.5t39.5 88t24.5 130h156q-12 -96 -29.5 -163.5t-52.5 -119.5t-92 -94.5t-148 -87.5q-53 -27 -93 -54.5t-67 -58.5t-41 -67t-14 -80q0 -94 72.5 -147.5t200.5 -53.5q53 0 101.5 10.5t94.5 29.5
t90 45.5t88 59.5l84 -118q-103 -82 -219.5 -127.5t-250.5 -45.5q-94 0 -171.5 21.5t-133 63.5t-86 101t-30.5 132zM596 1331q0 25 10.5 47.5t27.5 40t40 27.5t47 10q26 0 48.5 -10t39.5 -27.5t27 -40t10 -47.5t-10 -48.5t-27 -41.5t-39.5 -28.5t-48.5 -10.5q-24 0 -47 10.5
t-40 28.5t-27.5 41.5t-10.5 48.5z" />
    <glyph glyph-name="Agrave" unicode="&#xc0;" horiz-adv-x="1380" 
d="M983 0l-57 365h-588l-186 -365h-168l747 1434h176l240 -1434h-164zM790 1245l-378 -735h491zM770 1526l-252 327h211l154 -327h-113z" />
    <glyph glyph-name="Aacute" unicode="&#xc1;" horiz-adv-x="1380" 
d="M983 0l-57 365h-588l-186 -365h-168l747 1434h176l240 -1434h-164zM790 1245l-378 -735h491zM897 1526h-138l269 327h235z" />
    <glyph glyph-name="Acircumflex" unicode="&#xc2;" horiz-adv-x="1380" 
d="M983 0l-57 365h-588l-186 -365h-168l747 1434h176l240 -1434h-164zM790 1245l-378 -735h491zM1018 1485l-168 211l-246 -211h-133l311 327h172l193 -327h-129z" />
    <glyph glyph-name="Atilde" unicode="&#xc3;" horiz-adv-x="1380" 
d="M983 0l-57 365h-588l-186 -365h-168l747 1434h176l240 -1434h-164zM790 1245l-378 -735h491zM1231 1798q-13 -75 -35.5 -126t-52 -82t-65.5 -44.5t-77 -13.5q-65 0 -110.5 25.5t-73.5 47.5q-26 20 -62.5 45t-74.5 25q-29 0 -53 -30.5t-43 -106.5h-127q13 75 35 126
t51.5 82t65.5 44.5t77 13.5q65 0 108 -24t76 -50q26 -19 62.5 -44t74.5 -25q29 0 53 30t44 107h127z" />
    <glyph glyph-name="Adieresis" unicode="&#xc4;" horiz-adv-x="1380" 
d="M983 0l-57 365h-588l-186 -365h-168l747 1434h176l240 -1434h-164zM790 1245l-378 -735h491zM1157 1655q0 -23 -9 -43.5t-24.5 -36t-36 -24.5t-43.5 -9t-43.5 9t-35.5 24.5t-24 36t-9 43.5t9 43.5t24 36.5t35.5 25t43.5 9t43.5 -9t36 -25t24.5 -36.5t9 -43.5zM760 1655
q0 -23 -9 -43.5t-24.5 -36t-35.5 -24.5t-42 -9q-24 0 -44.5 9t-36.5 24.5t-25 36t-9 43.5t9 43.5t25 36.5t36.5 25t44.5 9q22 0 42 -9t35.5 -25t24.5 -36.5t9 -43.5z" />
    <glyph glyph-name="Aring" unicode="&#xc5;" horiz-adv-x="1380" 
d="M983 0l-57 365h-588l-186 -365h-168l708 1360q-51 31 -79.5 84.5t-28.5 118.5q0 50 18 93t49.5 75t75.5 50.5t96 18.5t96.5 -18.5t76 -50.5t49.5 -75t18 -93q0 -75 -38 -133.5t-103 -86.5l225 -1343h-164zM790 1245l-378 -735h491zM967 1563q0 32 -10 58t-28.5 46
t-45.5 30.5t-60 10.5t-60 -10.5t-45 -30.5t-28 -46t-10 -58t10 -59.5t28.5 -47t45 -30.5t59.5 -11t59.5 11t45.5 30.5t29 47t10 59.5z" />
    <glyph glyph-name="AE" unicode="&#xc6;" horiz-adv-x="2036" 
d="M1092 145h729l-27 -145h-881l64 365h-567l-304 -365h-182l1215 1434h876l-24 -146h-699l-80 -450h564l-25 -146h-563zM530 510h474l133 729z" />
    <glyph glyph-name="Ccedilla" unicode="&#xc7;" horiz-adv-x="1278" 
d="M1112 1118q-27 46 -57 82t-67.5 60.5t-85 37.5t-109.5 13q-115 0 -216.5 -67t-170 -177t-102.5 -233.5t-34 -258.5q0 -107 26.5 -190.5t74 -142t114 -89t146.5 -30.5q104 0 191.5 44.5t178.5 143.5l97 -102q-47 -51 -100 -94t-112 -73.5t-125.5 -47.5t-139.5 -17
q-114 0 -208 38.5t-161 113.5t-104 185t-37 253q0 119 24.5 231t69.5 210.5t109 181t142 141.5t169 92t190 33q82 0 148 -17t119 -49.5t94.5 -79.5t74.5 -106zM764 -205q0 -49 -19 -85t-52 -59t-76.5 -34.5t-92.5 -11.5q-83 0 -145 22t-121 66l51 61q43 -32 90 -48.5
t113 -16.5q59 0 94 21t35 65q0 29 -14.5 47t-46.5 18q-29 0 -51.5 -8t-45.5 -25l-67 29l80 164h92l-53 -104q21 11 44.5 16.5t55.5 5.5q54 0 91.5 -30t37.5 -93z" />
    <glyph glyph-name="Egrave" unicode="&#xc8;" horiz-adv-x="1194" 
d="M61 0l254 1434h856l-24 -146h-698l-80 -450h563l-25 -146h-563l-96 -547h729l-27 -145h-889zM713 1526l-252 327h211l154 -327h-113z" />
    <glyph glyph-name="Eacute" unicode="&#xc9;" horiz-adv-x="1194" 
d="M61 0l254 1434h856l-24 -146h-698l-80 -450h563l-25 -146h-563l-96 -547h729l-27 -145h-889zM758 1526h-138l269 327h235z" />
    <glyph glyph-name="Ecircumflex" unicode="&#xca;" horiz-adv-x="1194" 
d="M61 0l254 1434h856l-24 -146h-698l-80 -450h563l-25 -146h-563l-96 -547h729l-27 -145h-889zM942 1526l-168 211l-246 -211h-133l311 327h172l193 -327h-129z" />
    <glyph glyph-name="Edieresis" unicode="&#xcb;" horiz-adv-x="1194" 
d="M61 0l254 1434h856l-24 -146h-698l-80 -450h563l-25 -146h-563l-96 -547h729l-27 -145h-889zM1067 1655q0 -23 -9 -43.5t-24.5 -36t-36 -24.5t-43.5 -9t-43.5 9t-35.5 24.5t-24 36t-9 43.5t9 43.5t24 36.5t35.5 25t43.5 9t43.5 -9t36 -25t24.5 -36.5t9 -43.5zM670 1655
q0 -23 -9 -43.5t-24.5 -36t-35.5 -24.5t-42 -9q-24 0 -44.5 9t-36.5 24.5t-25 36t-9 43.5t9 43.5t25 36.5t36.5 25t44.5 9q22 0 42 -9t35.5 -25t24.5 -36.5t9 -43.5z" />
    <glyph glyph-name="Igrave" unicode="&#xcc;" horiz-adv-x="557" 
d="M231 0h-159l254 1434h159zM369 1526l-252 327h211l154 -327h-113z" />
    <glyph glyph-name="Iacute" unicode="&#xcd;" horiz-adv-x="557" 
d="M231 0h-159l254 1434h159zM475 1526h-138l269 327h235z" />
    <glyph glyph-name="Icircumflex" unicode="&#xce;" horiz-adv-x="557" 
d="M231 0h-159l254 1434h159zM617 1516l-168 211l-246 -211h-133l311 327h172l193 -327h-129z" />
    <glyph glyph-name="Idieresis" unicode="&#xcf;" horiz-adv-x="557" 
d="M231 0h-159l254 1434h159zM754 1663q0 -23 -9 -43.5t-24.5 -36t-36 -24.5t-43.5 -9t-43.5 9t-35.5 24.5t-24 36t-9 43.5t9 43.5t24 36.5t35.5 25t43.5 9t43.5 -9t36 -25t24.5 -36.5t9 -43.5zM357 1663q0 -23 -9 -43.5t-24.5 -36t-35.5 -24.5t-42 -9q-24 0 -44.5 9
t-36.5 24.5t-25 36t-9 43.5t9 43.5t25 36.5t36.5 25t44.5 9q22 0 42 -9t35.5 -25t24.5 -36.5t9 -43.5z" />
    <glyph glyph-name="Eth" unicode="&#xd0;" horiz-adv-x="1389" 
d="M1280 854q0 -152 -34.5 -274.5t-94 -217.5t-140 -163t-172 -112.5t-189.5 -65.5t-193 -21h-344l120 678h-129l27 143h127l109 613h249q144 0 266 -32t210.5 -101.5t138 -179.5t49.5 -267zM1116 846q0 122 -35 206t-101 136.5t-161.5 76t-216.5 23.5h-106l-82 -467h291
l-27 -143h-289l-94 -533h188q80 0 158.5 18t149 55t130 94t103 134.5t68 177t24.5 222.5z" />
    <glyph glyph-name="Ntilde" unicode="&#xd1;" horiz-adv-x="1401" 
d="M1085 0h-149l-511 1181l-210 -1181h-154l254 1434h156l506 -1170l209 1170h153zM1215 1806q-13 -75 -35.5 -126t-52 -82t-65.5 -44.5t-77 -13.5q-65 0 -110.5 25.5t-73.5 47.5q-26 20 -62.5 45t-74.5 25q-29 0 -53 -30.5t-43 -106.5h-127q13 75 35 126t51.5 82t65.5 44.5
t77 13.5q65 0 108 -24t76 -50q26 -19 62.5 -44t74.5 -25q29 0 53 30t44 107h127z" />
    <glyph glyph-name="Ograve" unicode="&#xd2;" horiz-adv-x="1436" 
d="M1325 881q0 -126 -24.5 -241.5t-70 -216t-109.5 -183t-142.5 -141t-170 -90.5t-190.5 -32q-117 0 -210.5 40.5t-159.5 115.5t-101.5 181.5t-35.5 238.5q0 125 24.5 241t70 216.5t109.5 182.5t142.5 140.5t169.5 90.5t190 32q117 0 211 -40.5t160 -115t101.5 -181
t35.5 -238.5zM1165 852q0 104 -24 189t-71 145t-116 92.5t-160 32.5q-106 0 -202 -57t-167.5 -155.5t-113 -231.5t-41.5 -285q0 -105 24 -189.5t71.5 -144.5t116.5 -92.5t159 -32.5q108 0 203 57t166.5 155.5t113 231.5t41.5 285zM774 1526l-252 327h211l154 -327h-113z" />
    <glyph glyph-name="Oacute" unicode="&#xd3;" horiz-adv-x="1436" 
d="M1325 881q0 -126 -24.5 -241.5t-70 -216t-109.5 -183t-142.5 -141t-170 -90.5t-190.5 -32q-117 0 -210.5 40.5t-159.5 115.5t-101.5 181.5t-35.5 238.5q0 125 24.5 241t70 216.5t109.5 182.5t142.5 140.5t169.5 90.5t190 32q117 0 211 -40.5t160 -115t101.5 -181
t35.5 -238.5zM1165 852q0 104 -24 189t-71 145t-116 92.5t-160 32.5q-106 0 -202 -57t-167.5 -155.5t-113 -231.5t-41.5 -285q0 -105 24 -189.5t71.5 -144.5t116.5 -92.5t159 -32.5q108 0 203 57t166.5 155.5t113 231.5t41.5 285zM861 1526h-138l269 327h235z" />
    <glyph glyph-name="Ocircumflex" unicode="&#xd4;" horiz-adv-x="1436" 
d="M1325 881q0 -126 -24.5 -241.5t-70 -216t-109.5 -183t-142.5 -141t-170 -90.5t-190.5 -32q-117 0 -210.5 40.5t-159.5 115.5t-101.5 181.5t-35.5 238.5q0 125 24.5 241t70 216.5t109.5 182.5t142.5 140.5t169.5 90.5t190 32q117 0 211 -40.5t160 -115t101.5 -181
t35.5 -238.5zM1165 852q0 104 -24 189t-71 145t-116 92.5t-160 32.5q-106 0 -202 -57t-167.5 -155.5t-113 -231.5t-41.5 -285q0 -105 24 -189.5t71.5 -144.5t116.5 -92.5t159 -32.5q108 0 203 57t166.5 155.5t113 231.5t41.5 285zM1043 1516l-168 211l-246 -211h-133
l311 327h172l193 -327h-129z" />
    <glyph glyph-name="Otilde" unicode="&#xd5;" horiz-adv-x="1436" 
d="M1325 881q0 -126 -24.5 -241.5t-70 -216t-109.5 -183t-142.5 -141t-170 -90.5t-190.5 -32q-117 0 -210.5 40.5t-159.5 115.5t-101.5 181.5t-35.5 238.5q0 125 24.5 241t70 216.5t109.5 182.5t142.5 140.5t169.5 90.5t190 32q117 0 211 -40.5t160 -115t101.5 -181
t35.5 -238.5zM1165 852q0 104 -24 189t-71 145t-116 92.5t-160 32.5q-106 0 -202 -57t-167.5 -155.5t-113 -231.5t-41.5 -285q0 -105 24 -189.5t71.5 -144.5t116.5 -92.5t159 -32.5q108 0 203 57t166.5 155.5t113 231.5t41.5 285zM1258 1798q-13 -75 -35.5 -126t-52 -82
t-65.5 -44.5t-77 -13.5q-65 0 -110.5 25.5t-73.5 47.5q-26 20 -62.5 45t-74.5 25q-29 0 -53 -30.5t-43 -106.5h-127q13 75 35 126t51.5 82t65.5 44.5t77 13.5q65 0 108 -24t76 -50q26 -19 62.5 -44t74.5 -25q29 0 53 30t44 107h127z" />
    <glyph glyph-name="Odieresis" unicode="&#xd6;" horiz-adv-x="1436" 
d="M1325 881q0 -126 -24.5 -241.5t-70 -216t-109.5 -183t-142.5 -141t-170 -90.5t-190.5 -32q-117 0 -210.5 40.5t-159.5 115.5t-101.5 181.5t-35.5 238.5q0 125 24.5 241t70 216.5t109.5 182.5t142.5 140.5t169.5 90.5t190 32q117 0 211 -40.5t160 -115t101.5 -181
t35.5 -238.5zM1165 852q0 104 -24 189t-71 145t-116 92.5t-160 32.5q-106 0 -202 -57t-167.5 -155.5t-113 -231.5t-41.5 -285q0 -105 24 -189.5t71.5 -144.5t116.5 -92.5t159 -32.5q108 0 203 57t166.5 155.5t113 231.5t41.5 285zM1180 1655q0 -23 -9 -43.5t-24.5 -36
t-36 -24.5t-43.5 -9t-43.5 9t-35.5 24.5t-24 36t-9 43.5t9 43.5t24 36.5t35.5 25t43.5 9t43.5 -9t36 -25t24.5 -36.5t9 -43.5zM783 1655q0 -23 -9 -43.5t-24.5 -36t-35.5 -24.5t-42 -9q-24 0 -44.5 9t-36.5 24.5t-25 36t-9 43.5t9 43.5t25 36.5t36.5 25t44.5 9q22 0 42 -9
t35.5 -25t24.5 -36.5t9 -43.5z" />
    <glyph glyph-name="multiply" unicode="&#xd7;" 
d="M1038 225l-383 387l-383 -387l-96 97l387 383l-387 382l96 97l383 -387l383 387l96 -97l-387 -382l387 -383z" />
    <glyph glyph-name="Oslash" unicode="&#xd8;" horiz-adv-x="1436" 
d="M256 125q-69 75 -107 183.5t-38 244.5q0 125 24.5 241t70.5 216.5t109.5 182.5t142 140.5t169.5 90.5t190 32q131 0 244 -55l86 135h141l-131 -205q81 -75 124.5 -189.5t43.5 -260.5q0 -126 -24.5 -241.5t-70 -216t-109.5 -183t-142.5 -141t-170 -90.5t-190.5 -32
q-154 0 -270 72l-96 -151h-141zM979 1270q-81 45 -184 45q-106 0 -201.5 -55.5t-169.5 -155.5t-116 -237t-42 -285q0 -191 80 -314zM430 180q86 -61 211 -61q105 0 201 55t170.5 157t115.5 238t41 283q0 212 -98 340z" />
    <glyph glyph-name="Ugrave" unicode="&#xd9;" horiz-adv-x="1380" 
d="M1176 563q-26 -149 -73 -259t-117 -183t-164.5 -108.5t-215.5 -35.5q-114 0 -201.5 29t-147 84.5t-90 135.5t-30.5 182q0 34 5.5 80.5t13.5 93.5l149 852h160l-150 -848q-8 -45 -11 -88.5t-3 -77.5q0 -143 79.5 -220t248.5 -77q85 0 149.5 28t111.5 85t78.5 143.5
t51.5 202.5l149 852h160zM801 1495l-252 327h211l154 -327h-113z" />
    <glyph glyph-name="Uacute" unicode="&#xda;" horiz-adv-x="1380" 
d="M1176 563q-26 -149 -73 -259t-117 -183t-164.5 -108.5t-215.5 -35.5q-114 0 -201.5 29t-147 84.5t-90 135.5t-30.5 182q0 34 5.5 80.5t13.5 93.5l149 852h160l-150 -848q-8 -45 -11 -88.5t-3 -77.5q0 -143 79.5 -220t248.5 -77q85 0 149.5 28t111.5 85t78.5 143.5
t51.5 202.5l149 852h160zM834 1495h-138l269 327h235z" />
    <glyph glyph-name="Ucircumflex" unicode="&#xdb;" horiz-adv-x="1380" 
d="M1176 563q-26 -149 -73 -259t-117 -183t-164.5 -108.5t-215.5 -35.5q-114 0 -201.5 29t-147 84.5t-90 135.5t-30.5 182q0 34 5.5 80.5t13.5 93.5l149 852h160l-150 -848q-8 -45 -11 -88.5t-3 -77.5q0 -143 79.5 -220t248.5 -77q85 0 149.5 28t111.5 85t78.5 143.5
t51.5 202.5l149 852h160zM1037 1526l-168 211l-246 -211h-133l311 327h172l193 -327h-129z" />
    <glyph glyph-name="Udieresis" unicode="&#xdc;" horiz-adv-x="1380" 
d="M1176 563q-26 -149 -73 -259t-117 -183t-164.5 -108.5t-215.5 -35.5q-114 0 -201.5 29t-147 84.5t-90 135.5t-30.5 182q0 34 5.5 80.5t13.5 93.5l149 852h160l-150 -848q-8 -45 -11 -88.5t-3 -77.5q0 -143 79.5 -220t248.5 -77q85 0 149.5 28t111.5 85t78.5 143.5
t51.5 202.5l149 852h160zM1167 1655q0 -23 -9 -43.5t-24.5 -36t-36 -24.5t-43.5 -9t-43.5 9t-35.5 24.5t-24 36t-9 43.5t9 43.5t24 36.5t35.5 25t43.5 9t43.5 -9t36 -25t24.5 -36.5t9 -43.5zM770 1655q0 -23 -9 -43.5t-24.5 -36t-35.5 -24.5t-42 -9q-24 0 -44.5 9
t-36.5 24.5t-25 36t-9 43.5t9 43.5t25 36.5t36.5 25t44.5 9q22 0 42 -9t35.5 -25t24.5 -36.5t9 -43.5z" />
    <glyph glyph-name="Yacute" unicode="&#xdd;" horiz-adv-x="1327" 
d="M711 561l-99 -561h-159l102 575l-334 859h176l268 -710l509 710h182zM807 1487h-138l269 327h235z" />
    <glyph glyph-name="Thorn" unicode="&#xde;" horiz-adv-x="1257" 
d="M1171 807q0 -129 -45 -223.5t-124 -156.5t-186 -92t-230 -30h-310l-55 -305h-160l254 1434h160l-47 -258h266q100 0 187 -21.5t151.5 -66.5t101.5 -114.5t37 -166.5zM1008 784q0 67 -22.5 114t-64.5 76t-102 42.5t-135 13.5h-281l-102 -579h303q199 0 301.5 87t102.5 246
z" />
    <glyph glyph-name="germandbls" unicode="&#xdf;" horiz-adv-x="1163" 
d="M1020 1180q0 -76 -19 -135t-52.5 -103.5t-78.5 -76t-96 -52.5q51 -18 95 -47t76.5 -68.5t50.5 -89.5t18 -110q0 -125 -42.5 -218.5t-120.5 -155.5t-188 -93t-245 -31h-47l22 135h62q192 0 296.5 94t104.5 256q0 120 -87 191.5t-226 71.5h-41l24 133h47q69 0 123.5 21
t91.5 58.5t56.5 88.5t19.5 112q0 90 -55 141.5t-152 51.5q-109 0 -177.5 -65t-88.5 -181l-250 -1417l-168 -86l260 1476q37 206 149.5 306t289.5 100q78 0 142.5 -21.5t110 -61.5t70.5 -97t25 -127z" />
    <glyph glyph-name="agrave" unicode="&#xe0;" horiz-adv-x="1096" 
d="M946 827q0 -20 -2.5 -42t-5.5 -44l-131 -741h-152l21 123q-58 -59 -143 -102.5t-185 -43.5q-64 0 -121.5 15.5t-101 49.5t-69 88t-25.5 130q0 100 35.5 176t97 127t144 77t177.5 26q81 0 152.5 -18t122.5 -44l22 127q3 17 4.5 37.5t1.5 36.5q0 83 -47 123.5t-147 40.5
q-84 0 -155.5 -22t-143.5 -60l-47 121q77 38 169.5 64t188.5 26q81 0 144 -16t106.5 -49.5t66.5 -84.5t23 -121zM739 481q-51 28 -117 45t-159 17q-65 0 -117 -18t-88 -51.5t-55 -81t-19 -107.5q0 -90 52 -136.5t149 -46.5q47 0 91 12.5t84 34.5t75 51.5t65 63.5zM627 1219
l-252 327h211l154 -327h-113z" />
    <glyph glyph-name="aacute" unicode="&#xe1;" horiz-adv-x="1096" 
d="M946 827q0 -20 -2.5 -42t-5.5 -44l-131 -741h-152l21 123q-58 -59 -143 -102.5t-185 -43.5q-64 0 -121.5 15.5t-101 49.5t-69 88t-25.5 130q0 100 35.5 176t97 127t144 77t177.5 26q81 0 152.5 -18t122.5 -44l22 127q3 17 4.5 37.5t1.5 36.5q0 83 -47 123.5t-147 40.5
q-84 0 -155.5 -22t-143.5 -60l-47 121q77 38 169.5 64t188.5 26q81 0 144 -16t106.5 -49.5t66.5 -84.5t23 -121zM739 481q-51 28 -117 45t-159 17q-65 0 -117 -18t-88 -51.5t-55 -81t-19 -107.5q0 -90 52 -136.5t149 -46.5q47 0 91 12.5t84 34.5t75 51.5t65 63.5zM691 1219
h-138l269 327h235z" />
    <glyph glyph-name="acircumflex" unicode="&#xe2;" horiz-adv-x="1096" 
d="M946 827q0 -20 -2.5 -42t-5.5 -44l-131 -741h-152l21 123q-58 -59 -143 -102.5t-185 -43.5q-64 0 -121.5 15.5t-101 49.5t-69 88t-25.5 130q0 100 35.5 176t97 127t144 77t177.5 26q81 0 152.5 -18t122.5 -44l22 127q3 17 4.5 37.5t1.5 36.5q0 83 -47 123.5t-147 40.5
q-84 0 -155.5 -22t-143.5 -60l-47 121q77 38 169.5 64t188.5 26q81 0 144 -16t106.5 -49.5t66.5 -84.5t23 -121zM739 481q-51 28 -117 45t-159 17q-65 0 -117 -18t-88 -51.5t-55 -81t-19 -107.5q0 -90 52 -136.5t149 -46.5q47 0 91 12.5t84 34.5t75 51.5t65 63.5zM842 1211
l-168 211l-246 -211h-133l311 327h172l193 -327h-129z" />
    <glyph glyph-name="atilde" unicode="&#xe3;" horiz-adv-x="1096" 
d="M946 827q0 -20 -2.5 -42t-5.5 -44l-131 -741h-152l21 123q-58 -59 -143 -102.5t-185 -43.5q-64 0 -121.5 15.5t-101 49.5t-69 88t-25.5 130q0 100 35.5 176t97 127t144 77t177.5 26q81 0 152.5 -18t122.5 -44l22 127q3 17 4.5 37.5t1.5 36.5q0 83 -47 123.5t-147 40.5
q-84 0 -155.5 -22t-143.5 -60l-47 121q77 38 169.5 64t188.5 26q81 0 144 -16t106.5 -49.5t66.5 -84.5t23 -121zM739 481q-51 28 -117 45t-159 17q-65 0 -117 -18t-88 -51.5t-55 -81t-19 -107.5q0 -90 52 -136.5t149 -46.5q47 0 91 12.5t84 34.5t75 51.5t65 63.5zM1053 1491
q-13 -75 -35.5 -126t-52 -82t-65.5 -44.5t-77 -13.5q-65 0 -110.5 25.5t-73.5 47.5q-26 20 -62.5 45t-74.5 25q-29 0 -53 -30.5t-43 -106.5h-127q13 75 35 126t51.5 82t65.5 44.5t77 13.5q65 0 108 -24t76 -50q26 -19 62.5 -44t74.5 -25q29 0 53 30t44 107h127z" />
    <glyph glyph-name="adieresis" unicode="&#xe4;" horiz-adv-x="1096" 
d="M946 827q0 -20 -2.5 -42t-5.5 -44l-131 -741h-152l21 123q-58 -59 -143 -102.5t-185 -43.5q-64 0 -121.5 15.5t-101 49.5t-69 88t-25.5 130q0 100 35.5 176t97 127t144 77t177.5 26q81 0 152.5 -18t122.5 -44l22 127q3 17 4.5 37.5t1.5 36.5q0 83 -47 123.5t-147 40.5
q-84 0 -155.5 -22t-143.5 -60l-47 121q77 38 169.5 64t188.5 26q81 0 144 -16t106.5 -49.5t66.5 -84.5t23 -121zM739 481q-51 28 -117 45t-159 17q-65 0 -117 -18t-88 -51.5t-55 -81t-19 -107.5q0 -90 52 -136.5t149 -46.5q47 0 91 12.5t84 34.5t75 51.5t65 63.5zM977 1340
q0 -23 -9 -43.5t-24.5 -36t-36 -24.5t-43.5 -9t-43.5 9t-35.5 24.5t-24 36t-9 43.5t9 43.5t24 36.5t35.5 25t43.5 9t43.5 -9t36 -25t24.5 -36.5t9 -43.5zM580 1340q0 -23 -9 -43.5t-24.5 -36t-35.5 -24.5t-42 -9q-24 0 -44.5 9t-36.5 24.5t-25 36t-9 43.5t9 43.5t25 36.5
t36.5 25t44.5 9q22 0 42 -9t35.5 -25t24.5 -36.5t9 -43.5z" />
    <glyph glyph-name="aring" unicode="&#xe5;" horiz-adv-x="1096" 
d="M946 827q0 -20 -2.5 -42t-5.5 -44l-131 -741h-152l21 123q-58 -59 -143 -102.5t-185 -43.5q-64 0 -121.5 15.5t-101 49.5t-69 88t-25.5 130q0 100 35.5 176t97 127t144 77t177.5 26q81 0 152.5 -18t122.5 -44l22 127q3 17 4.5 37.5t1.5 36.5q0 83 -47 123.5t-147 40.5
q-84 0 -155.5 -22t-143.5 -60l-47 121q77 38 169.5 64t188.5 26q81 0 144 -16t106.5 -49.5t66.5 -84.5t23 -121zM739 481q-51 28 -117 45t-159 17q-65 0 -117 -18t-88 -51.5t-55 -81t-19 -107.5q0 -90 52 -136.5t149 -46.5q47 0 91 12.5t84 34.5t75 51.5t65 63.5zM915 1466
q0 -50 -18 -93.5t-49.5 -76t-75.5 -51t-96 -18.5q-53 0 -97 18.5t-75.5 51t-49.5 76t-18 93.5t18 93.5t49.5 75.5t75.5 50.5t97 18.5q52 0 96 -18.5t75.5 -50.5t49.5 -75.5t18 -93.5zM819 1466q0 31 -10 58t-28.5 46.5t-45 30.5t-59.5 11t-59.5 -11t-45.5 -30.5t-29 -46.5
t-10 -58q0 -32 10 -59t29 -46.5t45.5 -30.5t59.5 -11t59.5 11t45 30.5t28.5 46.5t10 59z" />
    <glyph glyph-name="ae" unicode="&#xe6;" horiz-adv-x="1708" 
d="M1587 668q0 -54 -5.5 -101.5t-14.5 -81.5h-701q-6 -84 8 -152.5t48.5 -118t88.5 -76.5t128 -27q60 0 123 20.5t139 65.5l57 -117q-94 -55 -173 -79t-167 -24q-109 0 -196 48.5t-140 138.5q-92 -88 -197 -137.5t-237 -49.5q-71 0 -129 18t-100 54t-65 90.5t-23 128.5
q0 97 35.5 171t97 124.5t144 76.5t177.5 26q81 0 142 -18t112 -44l23 127q3 17 4.5 37.5t1.5 36.5q0 83 -44.5 123.5t-129.5 40.5q-84 0 -155.5 -22t-143.5 -60l-47 121q77 38 167.5 64t190.5 26q116 0 188.5 -39t98.5 -123q63 74 142.5 118t176.5 44q91 0 161 -31.5
t117.5 -88.5t72 -136t24.5 -174zM1438 610q6 78 -5 143t-40.5 112t-77.5 73.5t-115 26.5q-63 0 -114.5 -27t-91.5 -74.5t-67 -112.5t-42 -141h553zM737 283q-8 32 -12 64.5t-4 74.5v59q-59 33 -119.5 47.5t-138.5 14.5q-65 0 -117 -18t-88 -51.5t-55 -81t-19 -107.5
q0 -90 52 -136.5t149 -46.5q85 0 176 46.5t176 134.5z" />
    <glyph glyph-name="ccedilla" unicode="&#xe7;" horiz-adv-x="1006" 
d="M840 844q-44 52 -103.5 86.5t-142.5 34.5q-79 0 -144 -39.5t-111 -109.5t-71.5 -166t-25.5 -210q0 -162 72 -245.5t206 -83.5q70 0 125.5 28.5t104.5 73.5l77 -100q-77 -70 -154 -103t-171 -33q-95 0 -171.5 31t-131 89.5t-84 144t-29.5 194.5q0 154 42.5 276.5
t113.5 208t164.5 131.5t195.5 46q65 0 116.5 -11.5t92.5 -31.5t73.5 -46.5t61.5 -56.5zM645 -205q0 -49 -19 -85t-52 -59t-76.5 -34.5t-92.5 -11.5q-83 0 -145 22t-121 66l51 61q43 -32 90 -48.5t113 -16.5q59 0 94 21t35 65q0 29 -14.5 47t-46.5 18q-29 0 -51.5 -8
t-45.5 -25l-67 29l80 164h92l-53 -104q21 11 44.5 16.5t55.5 5.5q54 0 91.5 -30t37.5 -93z" />
    <glyph glyph-name="egrave" unicode="&#xe8;" horiz-adv-x="1098" 
d="M977 668q0 -54 -5.5 -101.5t-15.5 -81.5h-716q-6 -86 8 -155t49.5 -118t91 -75t131.5 -26q74 0 139 23t132 63l57 -117q-89 -53 -173 -78t-179 -25q-89 0 -164.5 29.5t-130 86t-85 139.5t-30.5 190q0 153 39 277.5t107 213t160 137t198 48.5q94 0 166 -31t121 -87.5
t74.5 -135.5t25.5 -176zM827 610q6 78 -5 143.5t-41 112.5t-79.5 73t-119.5 26q-65 0 -118 -26t-93.5 -73t-69 -112.5t-43.5 -143.5h569zM627 1219l-252 327h211l154 -327h-113z" />
    <glyph glyph-name="eacute" unicode="&#xe9;" horiz-adv-x="1098" 
d="M977 668q0 -54 -5.5 -101.5t-15.5 -81.5h-716q-6 -86 8 -155t49.5 -118t91 -75t131.5 -26q74 0 139 23t132 63l57 -117q-89 -53 -173 -78t-179 -25q-89 0 -164.5 29.5t-130 86t-85 139.5t-30.5 190q0 153 39 277.5t107 213t160 137t198 48.5q94 0 166 -31t121 -87.5
t74.5 -135.5t25.5 -176zM827 610q6 78 -5 143.5t-41 112.5t-79.5 73t-119.5 26q-65 0 -118 -26t-93.5 -73t-69 -112.5t-43.5 -143.5h569zM691 1219h-138l269 327h235z" />
    <glyph glyph-name="ecircumflex" unicode="&#xea;" horiz-adv-x="1098" 
d="M977 668q0 -54 -5.5 -101.5t-15.5 -81.5h-716q-6 -86 8 -155t49.5 -118t91 -75t131.5 -26q74 0 139 23t132 63l57 -117q-89 -53 -173 -78t-179 -25q-89 0 -164.5 29.5t-130 86t-85 139.5t-30.5 190q0 153 39 277.5t107 213t160 137t198 48.5q94 0 166 -31t121 -87.5
t74.5 -135.5t25.5 -176zM827 610q6 78 -5 143.5t-41 112.5t-79.5 73t-119.5 26q-65 0 -118 -26t-93.5 -73t-69 -112.5t-43.5 -143.5h569zM842 1201l-168 211l-246 -211h-133l311 327h172l193 -327h-129z" />
    <glyph glyph-name="edieresis" unicode="&#xeb;" horiz-adv-x="1098" 
d="M977 668q0 -54 -5.5 -101.5t-15.5 -81.5h-716q-6 -86 8 -155t49.5 -118t91 -75t131.5 -26q74 0 139 23t132 63l57 -117q-89 -53 -173 -78t-179 -25q-89 0 -164.5 29.5t-130 86t-85 139.5t-30.5 190q0 153 39 277.5t107 213t160 137t198 48.5q94 0 166 -31t121 -87.5
t74.5 -135.5t25.5 -176zM827 610q6 78 -5 143.5t-41 112.5t-79.5 73t-119.5 26q-65 0 -118 -26t-93.5 -73t-69 -112.5t-43.5 -143.5h569zM979 1340q0 -23 -9 -43.5t-24.5 -36t-36 -24.5t-43.5 -9t-43.5 9t-35.5 24.5t-24 36t-9 43.5t9 43.5t24 36.5t35.5 25t43.5 9t43.5 -9
t36 -25t24.5 -36.5t9 -43.5zM582 1340q0 -23 -9 -43.5t-24.5 -36t-35.5 -24.5t-42 -9q-24 0 -44.5 9t-36.5 24.5t-25 36t-9 43.5t9 43.5t25 36.5t36.5 25t44.5 9q22 0 42 -9t35.5 -25t24.5 -36.5t9 -43.5z" />
    <glyph glyph-name="igrave" unicode="&#xec;" horiz-adv-x="514" 
d="M207 0h-154l191 1075h153zM297 1219l-252 327h211l154 -327h-113z" />
    <glyph glyph-name="iacute" unicode="&#xed;" horiz-adv-x="514" 
d="M207 0h-154l191 1075h153zM418 1219h-138l269 327h235z" />
    <glyph glyph-name="icircumflex" unicode="&#xee;" horiz-adv-x="514" 
d="M207 0h-154l191 1075h153zM545 1190l-168 211l-246 -211h-133l311 327h172l193 -327h-129z" />
    <glyph glyph-name="idieresis" unicode="&#xef;" horiz-adv-x="514" 
d="M207 0h-154l191 1075h153zM682 1330q0 -23 -9 -43.5t-24.5 -36t-36 -24.5t-43.5 -9t-43.5 9t-35.5 24.5t-24 36t-9 43.5t9 43.5t24 36.5t35.5 25t43.5 9t43.5 -9t36 -25t24.5 -36.5t9 -43.5zM285 1330q0 -23 -9 -43.5t-24.5 -36t-35.5 -24.5t-42 -9q-24 0 -44.5 9
t-36.5 24.5t-25 36t-9 43.5t9 43.5t25 36.5t36.5 25t44.5 9q22 0 42 -9t35.5 -25t24.5 -36.5t9 -43.5z" />
    <glyph glyph-name="eth" unicode="&#xf0;" horiz-adv-x="1151" 
d="M1034 793q0 -148 -22 -265.5t-60.5 -208t-90.5 -155.5t-112 -106.5t-126 -61t-131 -19.5q-93 0 -169.5 29.5t-131.5 83.5t-85 131t-30 172q0 138 42.5 248.5t113 187t161 117.5t187.5 41q118 0 197.5 -48.5t127.5 -133.5q-3 142 -41.5 241t-107.5 162l-142 -131l-88 88
l121 113q-81 32 -164 43l25 135q138 -12 250 -74l80 74l88 -88l-68 -63q84 -81 130 -208t46 -304zM840 571q0 70 -19 123t-54.5 88.5t-86.5 53.5t-115 18q-68 0 -129 -32.5t-106.5 -92.5t-72 -144.5t-26.5 -187.5q0 -140 73.5 -213t201.5 -73q70 0 131 33t106 93.5t71 145
t26 188.5z" />
    <glyph glyph-name="ntilde" unicode="&#xf1;" horiz-adv-x="1153" 
d="M989 764q0 -29 -3 -63t-9 -66l-115 -635h-153l110 618q5 29 7.5 60t2.5 57q0 115 -49.5 174.5t-158.5 59.5q-56 0 -106.5 -24.5t-91.5 -70t-72 -113t-46 -153.5l-108 -608h-154l190 1075h152l-18 -121q57 67 129 105.5t166 38.5q153 0 240 -89.5t87 -244.5zM1073 1491
q-13 -75 -35.5 -126t-52 -82t-65.5 -44.5t-77 -13.5q-65 0 -110.5 25.5t-73.5 47.5q-26 20 -62.5 45t-74.5 25q-29 0 -53 -30.5t-43 -106.5h-127q13 75 35 126t51.5 82t65.5 44.5t77 13.5q65 0 108 -24t76 -50q26 -19 62.5 -44t74.5 -25q29 0 53 30t44 107h127z" />
    <glyph glyph-name="ograve" unicode="&#xf2;" horiz-adv-x="1151" 
d="M86 436q0 154 42.5 276.5t113.5 208t164.5 131.5t195.5 46q97 0 176.5 -32t135 -91.5t86 -144.5t30.5 -191q0 -154 -42.5 -276.5t-113.5 -208t-164.5 -131.5t-195.5 -46q-98 0 -177 32t-134.5 91.5t-86 144.5t-30.5 191zM242 440q0 -80 19.5 -141.5t58 -104.5t92.5 -63
t116 -20q76 0 139.5 39t109.5 108.5t71.5 166t25.5 210.5q0 70 -17 131.5t-54.5 107t-92.5 68.5t-122 23q-76 0 -139.5 -39t-109.5 -109t-71.5 -166.5t-25.5 -210.5zM641 1219l-252 327h211l154 -327h-113z" />
    <glyph glyph-name="oacute" unicode="&#xf3;" horiz-adv-x="1151" 
d="M86 436q0 154 42.5 276.5t113.5 208t164.5 131.5t195.5 46q97 0 176.5 -32t135 -91.5t86 -144.5t30.5 -191q0 -154 -42.5 -276.5t-113.5 -208t-164.5 -131.5t-195.5 -46q-98 0 -177 32t-134.5 91.5t-86 144.5t-30.5 191zM242 440q0 -80 19.5 -141.5t58 -104.5t92.5 -63
t116 -20q76 0 139.5 39t109.5 108.5t71.5 166t25.5 210.5q0 70 -17 131.5t-54.5 107t-92.5 68.5t-122 23q-76 0 -139.5 -39t-109.5 -109t-71.5 -166.5t-25.5 -210.5zM707 1219h-138l269 327h235z" />
    <glyph glyph-name="ocircumflex" unicode="&#xf4;" horiz-adv-x="1151" 
d="M86 436q0 154 42.5 276.5t113.5 208t164.5 131.5t195.5 46q97 0 176.5 -32t135 -91.5t86 -144.5t30.5 -191q0 -154 -42.5 -276.5t-113.5 -208t-164.5 -131.5t-195.5 -46q-98 0 -177 32t-134.5 91.5t-86 144.5t-30.5 191zM242 440q0 -80 19.5 -141.5t58 -104.5t92.5 -63
t116 -20q76 0 139.5 39t109.5 108.5t71.5 166t25.5 210.5q0 70 -17 131.5t-54.5 107t-92.5 68.5t-122 23q-76 0 -139.5 -39t-109.5 -109t-71.5 -166.5t-25.5 -210.5zM865 1201l-168 211l-246 -211h-133l311 327h172l193 -327h-129z" />
    <glyph glyph-name="otilde" unicode="&#xf5;" horiz-adv-x="1151" 
d="M86 436q0 154 42.5 276.5t113.5 208t164.5 131.5t195.5 46q97 0 176.5 -32t135 -91.5t86 -144.5t30.5 -191q0 -154 -42.5 -276.5t-113.5 -208t-164.5 -131.5t-195.5 -46q-98 0 -177 32t-134.5 91.5t-86 144.5t-30.5 191zM242 440q0 -80 19.5 -141.5t58 -104.5t92.5 -63
t116 -20q76 0 139.5 39t109.5 108.5t71.5 166t25.5 210.5q0 70 -17 131.5t-54.5 107t-92.5 68.5t-122 23q-76 0 -139.5 -39t-109.5 -109t-71.5 -166.5t-25.5 -210.5zM1078 1491q-13 -75 -35.5 -126t-52 -82t-65.5 -44.5t-77 -13.5q-65 0 -110.5 25.5t-73.5 47.5
q-26 20 -62.5 45t-74.5 25q-29 0 -53 -30.5t-43 -106.5h-127q13 75 35 126t51.5 82t65.5 44.5t77 13.5q65 0 108 -24t76 -50q26 -19 62.5 -44t74.5 -25q29 0 53 30t44 107h127z" />
    <glyph glyph-name="odieresis" unicode="&#xf6;" horiz-adv-x="1151" 
d="M86 436q0 154 42.5 276.5t113.5 208t164.5 131.5t195.5 46q97 0 176.5 -32t135 -91.5t86 -144.5t30.5 -191q0 -154 -42.5 -276.5t-113.5 -208t-164.5 -131.5t-195.5 -46q-98 0 -177 32t-134.5 91.5t-86 144.5t-30.5 191zM242 440q0 -80 19.5 -141.5t58 -104.5t92.5 -63
t116 -20q76 0 139.5 39t109.5 108.5t71.5 166t25.5 210.5q0 70 -17 131.5t-54.5 107t-92.5 68.5t-122 23q-76 0 -139.5 -39t-109.5 -109t-71.5 -166.5t-25.5 -210.5zM1002 1330q0 -23 -9 -43.5t-24.5 -36t-36 -24.5t-43.5 -9t-43.5 9t-35.5 24.5t-24 36t-9 43.5t9 43.5
t24 36.5t35.5 25t43.5 9t43.5 -9t36 -25t24.5 -36.5t9 -43.5zM605 1330q0 -23 -9 -43.5t-24.5 -36t-35.5 -24.5t-42 -9q-24 0 -44.5 9t-36.5 24.5t-25 36t-9 43.5t9 43.5t25 36.5t36.5 25t44.5 9q22 0 42 -9t35.5 -25t24.5 -36.5t9 -43.5z" />
    <glyph glyph-name="divide" unicode="&#xf7;" 
d="M788 1124q0 -27 -10.5 -51.5t-29 -42.5t-42.5 -28.5t-51 -10.5q-28 0 -52 10.5t-42 28.5t-28.5 42.5t-10.5 51.5q0 28 10.5 53t28.5 44t42 30t52 11q27 0 51 -11t42.5 -30t29 -44t10.5 -53zM157 635v139h996v-139h-996zM788 281q0 -28 -10.5 -52.5t-29 -42.5t-42.5 -28.5
t-51 -10.5q-28 0 -52 10.5t-42 28.5t-28.5 42.5t-10.5 52.5q0 27 10.5 52t28.5 44t42 30t52 11q27 0 51 -11t42.5 -30t29 -44t10.5 -52z" />
    <glyph glyph-name="oslash" unicode="&#xf8;" horiz-adv-x="1151" 
d="M207 96q-59 60 -90 146t-31 194q0 154 42.5 276.5t113.5 208t164.5 131.5t195.5 46q63 0 119 -14t102 -40l88 134h136l-134 -203q57 -60 87 -145t30 -191q0 -154 -42.5 -276.5t-113.5 -208t-164.5 -131.5t-195.5 -46q-62 0 -116.5 13.5t-100.5 38.5l-86 -131h-135z
M748 928q-32 20 -72 30.5t-88 10.5q-77 0 -141 -39.5t-110.5 -109.5t-72.5 -167.5t-26 -212.5q0 -130 53 -215zM373 145q69 -39 155 -39q77 0 141.5 39.5t111 110t72.5 167.5t26 212q0 123 -50 209z" />
    <glyph glyph-name="ugrave" unicode="&#xf9;" horiz-adv-x="1153" 
d="M100 311q0 29 3 63t10 66l114 635h154l-111 -618q-5 -29 -7.5 -60t-2.5 -57q0 -115 50 -174.5t159 -59.5q55 0 106.5 25t92 70.5t71 112.5t45.5 153l109 608h154l-191 -1075h-151l18 121q-55 -66 -126.5 -105t-168.5 -39q-151 0 -239.5 88t-88.5 246zM625 1219l-252 327
h211l154 -327h-113z" />
    <glyph glyph-name="uacute" unicode="&#xfa;" horiz-adv-x="1153" 
d="M100 311q0 29 3 63t10 66l114 635h154l-111 -618q-5 -29 -7.5 -60t-2.5 -57q0 -115 50 -174.5t159 -59.5q55 0 106.5 25t92 70.5t71 112.5t45.5 153l109 608h154l-191 -1075h-151l18 121q-55 -66 -126.5 -105t-168.5 -39q-151 0 -239.5 88t-88.5 246zM719 1219h-138
l269 327h235z" />
    <glyph glyph-name="ucircumflex" unicode="&#xfb;" horiz-adv-x="1153" 
d="M100 311q0 29 3 63t10 66l114 635h154l-111 -618q-5 -29 -7.5 -60t-2.5 -57q0 -115 50 -174.5t159 -59.5q55 0 106.5 25t92 70.5t71 112.5t45.5 153l109 608h154l-191 -1075h-151l18 121q-55 -66 -126.5 -105t-168.5 -39q-151 0 -239.5 88t-88.5 246zM867 1219l-168 211
l-246 -211h-133l311 327h172l193 -327h-129z" />
    <glyph glyph-name="udieresis" unicode="&#xfc;" horiz-adv-x="1153" 
d="M100 311q0 29 3 63t10 66l114 635h154l-111 -618q-5 -29 -7.5 -60t-2.5 -57q0 -115 50 -174.5t159 -59.5q55 0 106.5 25t92 70.5t71 112.5t45.5 153l109 608h154l-191 -1075h-151l18 121q-55 -66 -126.5 -105t-168.5 -39q-151 0 -239.5 88t-88.5 246zM1004 1348
q0 -23 -9 -43.5t-24.5 -36t-36 -24.5t-43.5 -9t-43.5 9t-35.5 24.5t-24 36t-9 43.5t9 43.5t24 36.5t35.5 25t43.5 9t43.5 -9t36 -25t24.5 -36.5t9 -43.5zM607 1348q0 -23 -9 -43.5t-24.5 -36t-35.5 -24.5t-42 -9q-24 0 -44.5 9t-36.5 24.5t-25 36t-9 43.5t9 43.5t25 36.5
t36.5 25t44.5 9q22 0 42 -9t35.5 -25t24.5 -36.5t9 -43.5z" />
    <glyph glyph-name="yacute" unicode="&#xfd;" horiz-adv-x="1079" 
d="M279 -379h-154l213 391l-193 1063h158l139 -891l453 891h166zM645 1201h-138l269 327h235z" />
    <glyph glyph-name="thorn" unicode="&#xfe;" horiz-adv-x="1137" 
d="M1008 668q0 -165 -38.5 -293.5t-104.5 -217t-154.5 -134.5t-188.5 -46q-55 0 -99 12.5t-80 34.5t-66 52.5t-56 66.5l-80 -452l-170 -86l322 1802l170 86l-96 -530q70 68 138.5 101.5t153.5 33.5q72 0 135.5 -26.5t111 -80t75 -134t27.5 -189.5zM854 651q0 152 -62 233
t-180 81q-38 0 -72 -9.5t-66 -27.5t-64.5 -44.5t-67.5 -60.5l-94 -528q20 -40 46 -74t60 -58.5t76.5 -38t95.5 -13.5q71 0 131 35t104 103.5t68.5 169.5t24.5 232z" />
    <glyph glyph-name="ydieresis" unicode="&#xff;" horiz-adv-x="1079" 
d="M279 -379h-154l213 391l-193 1063h158l139 -891l453 891h166zM950 1330q0 -23 -9 -43.5t-24.5 -36t-36 -24.5t-43.5 -9t-43.5 9t-35.5 24.5t-24 36t-9 43.5t9 43.5t24 36.5t35.5 25t43.5 9t43.5 -9t36 -25t24.5 -36.5t9 -43.5zM553 1330q0 -23 -9 -43.5t-24.5 -36
t-35.5 -24.5t-42 -9q-24 0 -44.5 9t-36.5 24.5t-25 36t-9 43.5t9 43.5t25 36.5t36.5 25t44.5 9q22 0 42 -9t35.5 -25t24.5 -36.5t9 -43.5z" />
    <glyph glyph-name="Amacron" unicode="&#x100;" horiz-adv-x="1380" 
d="M983 0l-57 365h-588l-186 -365h-168l747 1434h176l240 -1434h-164zM790 1245l-378 -735h491zM1100 1573h-557l24 143h557z" />
    <glyph glyph-name="amacron" unicode="&#x101;" horiz-adv-x="1096" 
d="M946 827q0 -20 -2.5 -42t-5.5 -44l-131 -741h-152l21 123q-58 -59 -143 -102.5t-185 -43.5q-64 0 -121.5 15.5t-101 49.5t-69 88t-25.5 130q0 100 35.5 176t97 127t144 77t177.5 26q81 0 152.5 -18t122.5 -44l22 127q3 17 4.5 37.5t1.5 36.5q0 83 -47 123.5t-147 40.5
q-84 0 -155.5 -22t-143.5 -60l-47 121q77 38 169.5 64t188.5 26q81 0 144 -16t106.5 -49.5t66.5 -84.5t23 -121zM739 481q-51 28 -117 45t-159 17q-65 0 -117 -18t-88 -51.5t-55 -81t-19 -107.5q0 -90 52 -136.5t149 -46.5q47 0 91 12.5t84 34.5t75 51.5t65 63.5zM930 1266
h-557l24 143h557z" />
    <glyph glyph-name="Abreve" unicode="&#x102;" horiz-adv-x="1380" 
d="M983 0l-57 365h-588l-186 -365h-168l747 1434h176l240 -1434h-164zM790 1245l-378 -735h491zM1223 1853q-36 -154 -137.5 -240.5t-258.5 -86.5q-75 0 -134.5 22.5t-99 64.5t-56.5 102.5t-7 137.5h125q-12 -108 39 -160.5t154 -52.5q89 0 154 51.5t94 161.5h127z" />
    <glyph glyph-name="abreve" unicode="&#x103;" horiz-adv-x="1096" 
d="M946 827q0 -20 -2.5 -42t-5.5 -44l-131 -741h-152l21 123q-58 -59 -143 -102.5t-185 -43.5q-64 0 -121.5 15.5t-101 49.5t-69 88t-25.5 130q0 100 35.5 176t97 127t144 77t177.5 26q81 0 152.5 -18t122.5 -44l22 127q3 17 4.5 37.5t1.5 36.5q0 83 -47 123.5t-147 40.5
q-84 0 -155.5 -22t-143.5 -60l-47 121q77 38 169.5 64t188.5 26q81 0 144 -16t106.5 -49.5t66.5 -84.5t23 -121zM739 481q-51 28 -117 45t-159 17q-65 0 -117 -18t-88 -51.5t-55 -81t-19 -107.5q0 -90 52 -136.5t149 -46.5q47 0 91 12.5t84 34.5t75 51.5t65 63.5zM1057 1546
q-36 -154 -137.5 -240.5t-258.5 -86.5q-75 0 -134.5 22.5t-99 64.5t-56.5 102.5t-7 137.5h125q-12 -108 39 -160.5t154 -52.5q89 0 154 51.5t94 161.5h127z" />
    <glyph glyph-name="Aogonek" unicode="&#x104;" horiz-adv-x="1380" 
d="M983 0l-57 365h-588l-186 -365h-168l747 1434h176l240 -1434h-164zM790 1245l-378 -735h491zM1134 0q-32 -14 -70 -34.5t-75.5 -49t-61 -65.5t-23.5 -76q0 -26 11 -38.5t29 -12.5t30 10t19 28l88 -47q-20 -55 -60.5 -90t-107.5 -35q-75 0 -113.5 40t-38.5 96
q0 52 19.5 93t53 76.5t72.5 61t77 43.5h151z" />
    <glyph glyph-name="aogonek" unicode="&#x105;" horiz-adv-x="1096" 
d="M946 827q0 -20 -2.5 -42t-5.5 -44l-131 -741h-152l21 123q-58 -59 -143 -102.5t-185 -43.5q-64 0 -121.5 15.5t-101 49.5t-69 88t-25.5 130q0 100 35.5 176t97 127t144 77t177.5 26q81 0 152.5 -18t122.5 -44l22 127q3 17 4.5 37.5t1.5 36.5q0 83 -47 123.5t-147 40.5
q-84 0 -155.5 -22t-143.5 -60l-47 121q77 38 169.5 64t188.5 26q81 0 144 -16t106.5 -49.5t66.5 -84.5t23 -121zM739 481q-51 28 -117 45t-159 17q-65 0 -117 -18t-88 -51.5t-55 -81t-19 -107.5q0 -90 52 -136.5t149 -46.5q47 0 91 12.5t84 34.5t75 51.5t65 63.5zM806 0
q-32 -14 -70 -34.5t-75.5 -49t-61 -65.5t-23.5 -76q0 -26 11 -38.5t29 -12.5t30 10t19 28l88 -47q-20 -55 -60.5 -90t-107.5 -35q-75 0 -113.5 40t-38.5 96q0 52 19.5 93t53 76.5t72.5 61t77 43.5h151z" />
    <glyph glyph-name="Cacute" unicode="&#x106;" horiz-adv-x="1278" 
d="M1112 1118q-27 46 -57 82t-67.5 60.5t-85 37.5t-109.5 13q-115 0 -216.5 -67t-170 -177t-102.5 -233.5t-34 -258.5q0 -107 26.5 -190.5t74 -142t114 -89t146.5 -30.5q104 0 191.5 44.5t178.5 143.5l97 -102q-47 -51 -100 -94t-112 -73.5t-125.5 -47.5t-139.5 -17
q-114 0 -208 38.5t-161 113.5t-104 185t-37 253q0 119 24.5 231t69.5 210.5t109 181t142 141.5t169 92t190 33q82 0 148 -17t119 -49.5t94.5 -79.5t74.5 -106zM861 1526h-138l269 327h235z" />
    <glyph glyph-name="cacute" unicode="&#x107;" horiz-adv-x="1006" 
d="M840 844q-44 52 -103.5 86.5t-142.5 34.5q-79 0 -144 -39.5t-111 -109.5t-71.5 -166t-25.5 -210q0 -162 72 -245.5t206 -83.5q70 0 125.5 28.5t104.5 73.5l77 -100q-77 -70 -154 -103t-171 -33q-95 0 -171.5 31t-131 89.5t-84 144t-29.5 194.5q0 154 42.5 276.5
t113.5 208t164.5 131.5t195.5 46q65 0 116.5 -11.5t92.5 -31.5t73.5 -46.5t61.5 -56.5zM592 1219h-138l269 327h235z" />
    <glyph glyph-name="Ccircumflex" unicode="&#x108;" horiz-adv-x="1278" 
d="M1112 1118q-27 46 -57 82t-67.5 60.5t-85 37.5t-109.5 13q-115 0 -216.5 -67t-170 -177t-102.5 -233.5t-34 -258.5q0 -107 26.5 -190.5t74 -142t114 -89t146.5 -30.5q104 0 191.5 44.5t178.5 143.5l97 -102q-47 -51 -100 -94t-112 -73.5t-125.5 -47.5t-139.5 -17
q-114 0 -208 38.5t-161 113.5t-104 185t-37 253q0 119 24.5 231t69.5 210.5t109 181t142 141.5t169 92t190 33q82 0 148 -17t119 -49.5t94.5 -79.5t74.5 -106zM1043 1516l-168 211l-246 -211h-133l311 327h172l193 -327h-129z" />
    <glyph glyph-name="ccircumflex" unicode="&#x109;" horiz-adv-x="1006" 
d="M840 844q-44 52 -103.5 86.5t-142.5 34.5q-79 0 -144 -39.5t-111 -109.5t-71.5 -166t-25.5 -210q0 -162 72 -245.5t206 -83.5q70 0 125.5 28.5t104.5 73.5l77 -100q-77 -70 -154 -103t-171 -33q-95 0 -171.5 31t-131 89.5t-84 144t-29.5 194.5q0 154 42.5 276.5
t113.5 208t164.5 131.5t195.5 46q65 0 116.5 -11.5t92.5 -31.5t73.5 -46.5t61.5 -56.5zM865 1201l-168 211l-246 -211h-133l311 327h172l193 -327h-129z" />
    <glyph glyph-name="Cdotaccent" unicode="&#x10a;" horiz-adv-x="1278" 
d="M1112 1118q-27 46 -57 82t-67.5 60.5t-85 37.5t-109.5 13q-115 0 -216.5 -67t-170 -177t-102.5 -233.5t-34 -258.5q0 -107 26.5 -190.5t74 -142t114 -89t146.5 -30.5q104 0 191.5 44.5t178.5 143.5l97 -102q-47 -51 -100 -94t-112 -73.5t-125.5 -47.5t-139.5 -17
q-114 0 -208 38.5t-161 113.5t-104 185t-37 253q0 119 24.5 231t69.5 210.5t109 181t142 141.5t169 92t190 33q82 0 148 -17t119 -49.5t94.5 -79.5t74.5 -106zM979 1655q0 -23 -9 -43.5t-24 -36t-35.5 -24.5t-43.5 -9t-43.5 9t-36 24.5t-24.5 36t-9 43.5t9 43.5t24.5 36.5
t36 25t43.5 9t43.5 -9t35.5 -25t24 -36.5t9 -43.5z" />
    <glyph glyph-name="cdotaccent" unicode="&#x10b;" horiz-adv-x="1006" 
d="M840 844q-44 52 -103.5 86.5t-142.5 34.5q-79 0 -144 -39.5t-111 -109.5t-71.5 -166t-25.5 -210q0 -162 72 -245.5t206 -83.5q70 0 125.5 28.5t104.5 73.5l77 -100q-77 -70 -154 -103t-171 -33q-95 0 -171.5 31t-131 89.5t-84 144t-29.5 194.5q0 154 42.5 276.5
t113.5 208t164.5 131.5t195.5 46q65 0 116.5 -11.5t92.5 -31.5t73.5 -46.5t61.5 -56.5zM770 1348q0 -23 -9 -43.5t-24 -36t-35.5 -24.5t-43.5 -9t-43.5 9t-36 24.5t-24.5 36t-9 43.5t9 43.5t24.5 36.5t36 25t43.5 9t43.5 -9t35.5 -25t24 -36.5t9 -43.5z" />
    <glyph glyph-name="Ccaron" unicode="&#x10c;" horiz-adv-x="1278" 
d="M1112 1118q-27 46 -57 82t-67.5 60.5t-85 37.5t-109.5 13q-115 0 -216.5 -67t-170 -177t-102.5 -233.5t-34 -258.5q0 -107 26.5 -190.5t74 -142t114 -89t146.5 -30.5q104 0 191.5 44.5t178.5 143.5l97 -102q-47 -51 -100 -94t-112 -73.5t-125.5 -47.5t-139.5 -17
q-114 0 -208 38.5t-161 113.5t-104 185t-37 253q0 119 24.5 231t69.5 210.5t109 181t142 141.5t169 92t190 33q82 0 148 -17t119 -49.5t94.5 -79.5t74.5 -106zM926 1526h-172l-193 327h129l168 -211l246 211h133z" />
    <glyph glyph-name="ccaron" unicode="&#x10d;" horiz-adv-x="1006" 
d="M840 844q-44 52 -103.5 86.5t-142.5 34.5q-79 0 -144 -39.5t-111 -109.5t-71.5 -166t-25.5 -210q0 -162 72 -245.5t206 -83.5q70 0 125.5 28.5t104.5 73.5l77 -100q-77 -70 -154 -103t-171 -33q-95 0 -171.5 31t-131 89.5t-84 144t-29.5 194.5q0 154 42.5 276.5
t113.5 208t164.5 131.5t195.5 46q65 0 116.5 -11.5t92.5 -31.5t73.5 -46.5t61.5 -56.5zM686 1219h-172l-193 327h129l168 -211l246 211h133z" />
    <glyph glyph-name="Dcaron" unicode="&#x10e;" horiz-adv-x="1339" 
d="M1231 854q0 -152 -34.5 -274.5t-94.5 -217.5t-140 -163t-171.5 -112.5t-189.5 -65.5t-193 -21h-347l254 1434h252q144 0 266 -32t210.5 -101.5t138 -179.5t49.5 -267zM1067 846q0 122 -35 206t-101 136.5t-161.5 76t-216.5 23.5h-104l-201 -1143h186q135 0 257 50
t207.5 145t127 222t41.5 284zM813 1526h-172l-193 327h129l168 -211l246 211h133z" />
    <glyph glyph-name="dcaron" unicode="&#x10f;" horiz-adv-x="1198" 
d="M66 408q0 164 38.5 292.5t104.5 217t154 134.5t188 46q55 0 99 -12.5t80 -34.5t66 -52.5t56 -66.5l84 475l170 86l-266 -1493h-152l19 113q-64 -63 -133 -99.5t-160 -36.5q-72 0 -135 26.5t-110.5 80t-75 134.5t-27.5 190zM219 424q0 -152 62 -232.5t180 -80.5
q38 0 72 9.5t66 27.5t64.5 44t67.5 60l94 528q-20 40 -46 74t-60 58.5t-76.5 38.5t-95.5 14q-71 0 -131 -35.5t-104 -104t-68.5 -169.5t-24.5 -232zM1231 977h-112l112 457h215z" />
    <glyph glyph-name="Dcroat" unicode="&#x110;" horiz-adv-x="1389" 
d="M1280 854q0 -152 -34.5 -274.5t-94 -217.5t-140 -163t-172 -112.5t-189.5 -65.5t-193 -21h-344l120 678h-129l27 143h127l109 613h249q144 0 266 -32t210.5 -101.5t138 -179.5t49.5 -267zM1116 846q0 122 -35 206t-101 136.5t-161.5 76t-216.5 23.5h-106l-82 -467h291
l-27 -143h-289l-94 -533h188q80 0 158.5 18t149 55t130 94t103 134.5t68 177t24.5 222.5z" />
    <glyph glyph-name="dcroat" unicode="&#x111;" horiz-adv-x="1137" 
d="M825 780q-20 40 -46 74t-60 58.5t-76.5 38.5t-95.5 14q-71 0 -131 -35.5t-104 -104t-68.5 -169.5t-24.5 -232q0 -152 62 -232.5t180 -80.5q38 0 72 9.5t66 27.5t64.5 44t67.5 60zM1270 1280l-25 -143h-203l-202 -1137h-152l19 113q-33 -32 -66 -57t-68 -42.5t-74 -27
t-85 -9.5q-72 0 -135 26.5t-110.5 80t-75 134.5t-27.5 190q0 164 38.5 292.5t104.5 217t154 134.5t188 46q55 0 99 -12.5t80 -34.5t66 -52.5t56 -66.5l37 205h-201l25 143h200l23 127l170 86l-39 -213h203z" />
    <glyph glyph-name="Emacron" unicode="&#x112;" horiz-adv-x="1194" 
d="M61 0l254 1434h856l-24 -146h-698l-80 -450h563l-25 -146h-563l-96 -547h729l-27 -145h-889zM1045 1573h-557l24 143h557z" />
    <glyph glyph-name="emacron" unicode="&#x113;" horiz-adv-x="1098" 
d="M977 668q0 -54 -5.5 -101.5t-15.5 -81.5h-716q-6 -86 8 -155t49.5 -118t91 -75t131.5 -26q74 0 139 23t132 63l57 -117q-89 -53 -173 -78t-179 -25q-89 0 -164.5 29.5t-130 86t-85 139.5t-30.5 190q0 153 39 277.5t107 213t160 137t198 48.5q94 0 166 -31t121 -87.5
t74.5 -135.5t25.5 -176zM827 610q6 78 -5 143.5t-41 112.5t-79.5 73t-119.5 26q-65 0 -118 -26t-93.5 -73t-69 -112.5t-43.5 -143.5h569zM926 1266h-557l24 143h557z" />
    <glyph glyph-name="Ebreve" unicode="&#x114;" horiz-adv-x="1194" 
d="M61 0l254 1434h856l-24 -146h-698l-80 -450h563l-25 -146h-563l-96 -547h729l-27 -145h-889zM1166 1853q-36 -154 -137.5 -240.5t-258.5 -86.5q-75 0 -134.5 22.5t-99 64.5t-56.5 102.5t-7 137.5h125q-12 -108 39 -160.5t154 -52.5q89 0 154 51.5t94 161.5h127z" />
    <glyph glyph-name="ebreve" unicode="&#x115;" horiz-adv-x="1098" 
d="M977 668q0 -54 -5.5 -101.5t-15.5 -81.5h-716q-6 -86 8 -155t49.5 -118t91 -75t131.5 -26q74 0 139 23t132 63l57 -117q-89 -53 -173 -78t-179 -25q-89 0 -164.5 29.5t-130 86t-85 139.5t-30.5 190q0 153 39 277.5t107 213t160 137t198 48.5q94 0 166 -31t121 -87.5
t74.5 -135.5t25.5 -176zM827 610q6 78 -5 143.5t-41 112.5t-79.5 73t-119.5 26q-65 0 -118 -26t-93.5 -73t-69 -112.5t-43.5 -143.5h569zM1049 1546q-36 -154 -137.5 -240.5t-258.5 -86.5q-75 0 -134.5 22.5t-99 64.5t-56.5 102.5t-7 137.5h125q-12 -108 39 -160.5
t154 -52.5q89 0 154 51.5t94 161.5h127z" />
    <glyph glyph-name="Edotaccent" unicode="&#x116;" horiz-adv-x="1194" 
d="M61 0l254 1434h856l-24 -146h-698l-80 -450h563l-25 -146h-563l-96 -547h729l-27 -145h-889zM889 1655q0 -23 -9 -43.5t-24 -36t-35.5 -24.5t-43.5 -9t-43.5 9t-36 24.5t-24.5 36t-9 43.5t9 43.5t24.5 36.5t36 25t43.5 9t43.5 -9t35.5 -25t24 -36.5t9 -43.5z" />
    <glyph glyph-name="edotaccent" unicode="&#x117;" horiz-adv-x="1098" 
d="M977 668q0 -54 -5.5 -101.5t-15.5 -81.5h-716q-6 -86 8 -155t49.5 -118t91 -75t131.5 -26q74 0 139 23t132 63l57 -117q-89 -53 -173 -78t-179 -25q-89 0 -164.5 29.5t-130 86t-85 139.5t-30.5 190q0 153 39 277.5t107 213t160 137t198 48.5q94 0 166 -31t121 -87.5
t74.5 -135.5t25.5 -176zM827 610q6 78 -5 143.5t-41 112.5t-79.5 73t-119.5 26q-65 0 -118 -26t-93.5 -73t-69 -112.5t-43.5 -143.5h569zM735 1348q0 -23 -9 -43.5t-24 -36t-35.5 -24.5t-43.5 -9t-43.5 9t-36 24.5t-24.5 36t-9 43.5t9 43.5t24.5 36.5t36 25t43.5 9t43.5 -9
t35.5 -25t24 -36.5t9 -43.5z" />
    <glyph glyph-name="Eogonek" unicode="&#x118;" horiz-adv-x="1194" 
d="M61 0l254 1434h856l-24 -146h-698l-80 -450h563l-25 -146h-563l-96 -547h729l-27 -145h-889zM949 0q-32 -14 -70 -34.5t-75.5 -49t-61 -65.5t-23.5 -76q0 -26 11 -38.5t29 -12.5t30 10t19 28l88 -47q-20 -55 -60.5 -90t-107.5 -35q-75 0 -113.5 40t-38.5 96q0 52 19.5 93
t53 76.5t72.5 61t77 43.5h151z" />
    <glyph glyph-name="eogonek" unicode="&#x119;" horiz-adv-x="1098" 
d="M827 610q6 78 -5 143.5t-41 112.5t-79.5 73t-119.5 26q-65 0 -118 -26t-94 -73.5t-69 -113t-43 -142.5h569zM432 -231q0 -26 14 -35.5t25 -9.5q17 0 31 12t20 26l88 -47q-20 -55 -59.5 -90t-99.5 -35q-34 0 -63.5 9.5t-51 27.5t-34 43.5t-12.5 57.5q0 42 15 80t39.5 70
t56 57t64.5 42q-84 6 -153.5 38t-119.5 88.5t-78 136.5t-28 182q0 153 39 277.5t107 213t160 137t198 48.5q94 0 166 -31t121 -87.5t74.5 -135.5t25.5 -176q0 -54 -5.5 -101.5t-15.5 -81.5h-716q-6 -86 8.5 -155t49.5 -118t90.5 -75t131.5 -26q69 0 130 20t141 66l57 -117
q-55 -28 -108 -49t-106 -47q-39 -19 -75.5 -43.5t-64.5 -51.5t-45 -57.5t-17 -62.5z" />
    <glyph glyph-name="Ecaron" unicode="&#x11a;" horiz-adv-x="1194" 
d="M61 0l254 1434h856l-24 -146h-698l-80 -450h563l-25 -146h-563l-96 -547h729l-27 -145h-889zM846 1526h-172l-193 327h129l168 -211l246 211h133z" />
    <glyph glyph-name="ecaron" unicode="&#x11b;" horiz-adv-x="1098" 
d="M977 668q0 -54 -5.5 -101.5t-15.5 -81.5h-716q-6 -86 8 -155t49.5 -118t91 -75t131.5 -26q74 0 139 23t132 63l57 -117q-89 -53 -173 -78t-179 -25q-89 0 -164.5 29.5t-130 86t-85 139.5t-30.5 190q0 153 39 277.5t107 213t160 137t198 48.5q94 0 166 -31t121 -87.5
t74.5 -135.5t25.5 -176zM827 610q6 78 -5 143.5t-41 112.5t-79.5 73t-119.5 26q-65 0 -118 -26t-93.5 -73t-69 -112.5t-43.5 -143.5h569zM713 1219h-172l-193 327h129l168 -211l246 211h133z" />
    <glyph glyph-name="Gcircumflex" unicode="&#x11c;" horiz-adv-x="1341" 
d="M1112 1116q-27 47 -58 83.5t-69 61t-84.5 37.5t-105.5 13q-101 0 -198 -54.5t-173 -161t-115 -239t-39 -276.5q0 -108 25.5 -192.5t73.5 -143.5t116 -90t152 -31q167 0 269.5 107t137.5 321l3 12h-259l27 148h414l-25 -140q-27 -153 -81 -265t-130.5 -185t-172 -108.5
t-204.5 -35.5q-113 0 -206 40t-159.5 115t-103 183.5t-36.5 245.5q0 123 24.5 237.5t70 214t109.5 181t142.5 140t169.5 90.5t190 32q158 0 266 -67.5t168 -184.5zM1043 1516l-168 211l-246 -211h-133l311 327h172l193 -327h-129z" />
    <glyph glyph-name="gcircumflex" unicode="&#x11d;" horiz-adv-x="1137" 
d="M414 -23q-72 0 -135 26.5t-110.5 80t-75 134.5t-27.5 190q0 164 38.5 292.5t104.5 217t154 134.5t188 46q55 0 99 -12.5t80 -34.5t66 -52.5t56 -66.5l27 143h151l-174 -989q-31 -157 -77.5 -238t-108 -128t-174 -79t-301.5 -36l-19 123q165 -1 255 20t138 60t80.5 100
t48.5 162l9 43q-74 -70 -142.5 -103t-150.5 -33zM219 424q0 -152 62 -232.5t180 -80.5q38 0 72 9.5t66 27.5t64.5 44t67.5 60l94 528q-20 40 -46 74t-60 58.5t-76.5 38.5t-95.5 14q-71 0 -131 -35.5t-104 -104t-68.5 -169.5t-24.5 -232zM858 1201l-168 211l-246 -211h-133
l311 327h172l193 -327h-129z" />
    <glyph glyph-name="Gbreve" unicode="&#x11e;" horiz-adv-x="1341" 
d="M1112 1116q-27 47 -58 83.5t-69 61t-84.5 37.5t-105.5 13q-101 0 -198 -54.5t-173 -161t-115 -239t-39 -276.5q0 -108 25.5 -192.5t73.5 -143.5t116 -90t152 -31q167 0 269.5 107t137.5 321l3 12h-259l27 148h414l-25 -140q-27 -153 -81 -265t-130.5 -185t-172 -108.5
t-204.5 -35.5q-113 0 -206 40t-159.5 115t-103 183.5t-36.5 245.5q0 123 24.5 237.5t70 214t109.5 181t142.5 140t169.5 90.5t190 32q158 0 266 -67.5t168 -184.5zM1246 1853q-36 -154 -137.5 -240.5t-258.5 -86.5q-75 0 -134.5 22.5t-99 64.5t-56.5 102.5t-7 137.5h125
q-12 -108 39 -160.5t154 -52.5q89 0 154 51.5t94 161.5h127z" />
    <glyph glyph-name="gbreve" unicode="&#x11f;" horiz-adv-x="1137" 
d="M414 -23q-72 0 -135 26.5t-110.5 80t-75 134.5t-27.5 190q0 164 38.5 292.5t104.5 217t154 134.5t188 46q55 0 99 -12.5t80 -34.5t66 -52.5t56 -66.5l27 143h151l-174 -989q-31 -157 -77.5 -238t-108 -128t-174 -79t-301.5 -36l-19 123q165 -1 255 20t138 60t80.5 100
t48.5 162l9 43q-74 -70 -142.5 -103t-150.5 -33zM219 424q0 -152 62 -232.5t180 -80.5q38 0 72 9.5t66 27.5t64.5 44t67.5 60l94 528q-20 40 -46 74t-60 58.5t-76.5 38.5t-95.5 14q-71 0 -131 -35.5t-104 -104t-68.5 -169.5t-24.5 -232zM1059 1546q-36 -154 -137.5 -240.5
t-258.5 -86.5q-75 0 -134.5 22.5t-99 64.5t-56.5 102.5t-7 137.5h125q-12 -108 39 -160.5t154 -52.5q89 0 154 51.5t94 161.5h127z" />
    <glyph glyph-name="Gdotaccent" unicode="&#x120;" horiz-adv-x="1341" 
d="M1112 1116q-27 47 -58 83.5t-69 61t-84.5 37.5t-105.5 13q-101 0 -198 -54.5t-173 -161t-115 -239t-39 -276.5q0 -108 25.5 -192.5t73.5 -143.5t116 -90t152 -31q167 0 269.5 107t137.5 321l3 12h-259l27 148h414l-25 -140q-27 -153 -81 -265t-130.5 -185t-172 -108.5
t-204.5 -35.5q-113 0 -206 40t-159.5 115t-103 183.5t-36.5 245.5q0 123 24.5 237.5t70 214t109.5 181t142.5 140t169.5 90.5t190 32q158 0 266 -67.5t168 -184.5zM979 1655q0 -23 -9 -43.5t-24 -36t-35.5 -24.5t-43.5 -9t-43.5 9t-36 24.5t-24.5 36t-9 43.5t9 43.5
t24.5 36.5t36 25t43.5 9t43.5 -9t35.5 -25t24 -36.5t9 -43.5z" />
    <glyph glyph-name="gdotaccent" unicode="&#x121;" horiz-adv-x="1137" 
d="M414 -23q-72 0 -135 26.5t-110.5 80t-75 134.5t-27.5 190q0 164 38.5 292.5t104.5 217t154 134.5t188 46q55 0 99 -12.5t80 -34.5t66 -52.5t56 -66.5l27 143h151l-174 -989q-31 -157 -77.5 -238t-108 -128t-174 -79t-301.5 -36l-19 123q165 -1 255 20t138 60t80.5 100
t48.5 162l9 43q-74 -70 -142.5 -103t-150.5 -33zM219 424q0 -152 62 -232.5t180 -80.5q38 0 72 9.5t66 27.5t64.5 44t67.5 60l94 528q-20 40 -46 74t-60 58.5t-76.5 38.5t-95.5 14q-71 0 -131 -35.5t-104 -104t-68.5 -169.5t-24.5 -232zM766 1348q0 -23 -9 -43.5t-24 -36
t-35.5 -24.5t-43.5 -9t-43.5 9t-36 24.5t-24.5 36t-9 43.5t9 43.5t24.5 36.5t36 25t43.5 9t43.5 -9t35.5 -25t24 -36.5t9 -43.5z" />
    <glyph glyph-name="Gcommaaccent" unicode="&#x122;" horiz-adv-x="1341" 
d="M1112 1116q-27 47 -58 83.5t-69 61t-84.5 37.5t-105.5 13q-101 0 -198 -54.5t-173 -161t-115 -239t-39 -276.5q0 -108 25.5 -192.5t73.5 -143.5t116 -90t152 -31q167 0 269.5 107t137.5 321l3 12h-259l27 148h414l-25 -140q-27 -153 -81 -265t-130.5 -185t-172 -108.5
t-204.5 -35.5q-113 0 -206 40t-159.5 115t-103 183.5t-36.5 245.5q0 123 24.5 237.5t70 214t109.5 181t142.5 140t169.5 90.5t190 32q158 0 266 -67.5t168 -184.5zM503 -471h-90l92 385h176z" />
    <glyph glyph-name="gcommaaccent" unicode="&#x123;" horiz-adv-x="1137" 
d="M414 -23q-72 0 -135 26.5t-110.5 80t-75 134.5t-27.5 190q0 164 38.5 292.5t104.5 217t154 134.5t188 46q55 0 99 -12.5t80 -34.5t66 -52.5t56 -66.5l27 143h151l-174 -989q-31 -157 -77.5 -238t-108 -128t-174 -79t-301.5 -36l-19 123q165 -1 255 20t138 60t80.5 100
t48.5 162l9 43q-74 -70 -142.5 -103t-150.5 -33zM219 424q0 -152 62 -232.5t180 -80.5q38 0 72 9.5t66 27.5t64.5 44t67.5 60l94 528q-20 40 -46 74t-60 58.5t-76.5 38.5t-95.5 14q-71 0 -131 -35.5t-104 -104t-68.5 -169.5t-24.5 -232zM711.876 1726.23h110.682
l-113.141 -473.472h-216.444z" />
    <glyph glyph-name="Hcircumflex" unicode="&#x124;" horiz-adv-x="1401" 
d="M1085 0h-159l121 676h-705l-121 -676h-160l254 1434h160l-108 -613h704l109 613h159zM1047 1526l-168 211l-246 -211h-133l311 327h172l193 -327h-129z" />
    <glyph glyph-name="hcircumflex" unicode="&#x125;" horiz-adv-x="1153" 
d="M989 764q0 -29 -3 -63t-9 -66l-115 -635h-153l110 618q5 29 7.5 60t2.5 57q0 115 -49.5 174.5t-158.5 59.5q-56 0 -106.5 -24t-92 -70t-72 -113.5t-45.5 -153.5l-108 -608h-154l250 1407l170 86l-96 -539q56 67 128 105.5t167 38.5q70 0 130 -21t104 -62.5t68.5 -104
t24.5 -146.5zM932 1512l-168 211l-246 -211h-133l311 327h172l193 -327h-129z" />
    <glyph glyph-name="Hbar" unicode="&#x126;" horiz-adv-x="1401" 
d="M175 1224h102l38 210h160l-37 -210h704l38 210h159l-37 -210h103l-24 -145h-105l-191 -1079h-159l121 676h-705l-121 -676h-160l191 1079h-102zM1071 821l46 258h-705l-45 -258h704z" />
    <glyph glyph-name="hbar" unicode="&#x127;" horiz-adv-x="1153" 
d="M600 1167h-197l-36 -213q26 30 55.5 56t65.5 45.5t78.5 31t95.5 11.5q70 0 130 -21t104 -62.5t68.5 -104t24.5 -146.5q0 -29 -3 -63t-9 -66l-115 -635h-153l110 618q5 29 7.5 60t2.5 57q0 115 -49.5 174.5t-158.5 59.5q-56 0 -106.5 -24t-92 -70t-72 -113.5t-45.5 -153.5
l-108 -608h-154l207 1167h-187l23 127h186l21 113l170 86l-37 -199h197z" />
    <glyph glyph-name="Itilde" unicode="&#x128;" horiz-adv-x="557" 
d="M231 0h-159l254 1434h159zM838 1806q-13 -75 -35.5 -126t-52 -82t-65.5 -44.5t-77 -13.5q-65 0 -110.5 25.5t-73.5 47.5q-26 20 -62.5 45t-74.5 25q-29 0 -53 -30.5t-43 -106.5h-127q13 75 35 126t51.5 82t65.5 44.5t77 13.5q65 0 108 -24t76 -50q26 -19 62.5 -44
t74.5 -25q29 0 53 30t44 107h127z" />
    <glyph glyph-name="itilde" unicode="&#x129;" horiz-adv-x="514" 
d="M207 0h-154l191 1075h153zM758 1491q-13 -75 -35.5 -126t-52 -82t-65.5 -44.5t-77 -13.5q-65 0 -110.5 25.5t-73.5 47.5q-26 20 -62.5 45t-74.5 25q-29 0 -53 -30.5t-43 -106.5h-127q13 75 35 126t51.5 82t65.5 44.5t77 13.5q65 0 108 -24t76 -50q26 -19 62.5 -44
t74.5 -25q29 0 53 30t44 107h127z" />
    <glyph glyph-name="Imacron" unicode="&#x12a;" horiz-adv-x="557" 
d="M231 0h-159l254 1434h159zM698 1573h-557l24 143h557z" />
    <glyph glyph-name="imacron" unicode="&#x12b;" horiz-adv-x="514" 
d="M207 0h-154l191 1075h153zM635 1266h-557l24 143h557z" />
    <glyph glyph-name="Ibreve" unicode="&#x12c;" horiz-adv-x="557" 
d="M231 0h-159l254 1434h159zM828 1853q-36 -154 -137.5 -240.5t-258.5 -86.5q-75 0 -134.5 22.5t-99 64.5t-56.5 102.5t-7 137.5h125q-12 -108 39 -160.5t154 -52.5q89 0 154 51.5t94 161.5h127z" />
    <glyph glyph-name="ibreve" unicode="&#x12d;" horiz-adv-x="514" 
d="M207 0h-154l191 1075h153zM752 1546q-36 -154 -137.5 -240.5t-258.5 -86.5q-75 0 -134.5 22.5t-99 64.5t-56.5 102.5t-7 137.5h125q-12 -108 39 -160.5t154 -52.5q89 0 154 51.5t94 161.5h127z" />
    <glyph glyph-name="Iogonek" unicode="&#x12e;" horiz-adv-x="557" 
d="M231 0h-159l254 1434h159zM225 0q-32 -14 -70 -34.5t-75.5 -49t-61 -65.5t-23.5 -76q0 -26 11 -38.5t29 -12.5t30 10t19 28l88 -47q-20 -55 -60.5 -90t-107.5 -35q-75 0 -113.5 40t-38.5 96q0 52 19.5 93t53 76.5t72.5 61t77 43.5h151z" />
    <glyph glyph-name="iogonek" unicode="&#x12f;" horiz-adv-x="514" 
d="M477 1376q0 -22 -8.5 -41.5t-23 -34.5t-34 -23.5t-40.5 -8.5q-24 0 -44.5 8.5t-36 23.5t-24 34.5t-8.5 41.5q0 23 8.5 43.5t24 35.5t36 23.5t44.5 8.5q21 0 40.5 -8.5t34 -23.5t23 -35.5t8.5 -43.5zM207 0h-154l191 1075h153zM206 0q-32 -14 -70 -34.5t-75.5 -49
t-61 -65.5t-23.5 -76q0 -26 11 -38.5t29 -12.5t30 10t19 28l88 -47q-20 -55 -60.5 -90t-107.5 -35q-75 0 -113.5 40t-38.5 96q0 52 19.5 93t53 76.5t72.5 61t77 43.5h151z" />
    <glyph glyph-name="Idotaccent" unicode="&#x130;" horiz-adv-x="557" 
d="M231 0h-159l254 1434h159zM546 1655q0 -23 -9 -43.5t-24 -36t-35.5 -24.5t-43.5 -9t-43.5 9t-36 24.5t-24.5 36t-9 43.5t9 43.5t24.5 36.5t36 25t43.5 9t43.5 -9t35.5 -25t24 -36.5t9 -43.5z" />
    <glyph glyph-name="dotlessi" unicode="&#x131;" horiz-adv-x="514" 
d="M207 0h-154l191 1075h153z" />
    <glyph glyph-name="IJ" unicode="&#x132;" horiz-adv-x="1733" 
d="M231 0h-159l254 1434h159zM1526 559q-30 -178 -86.5 -301t-165.5 -197q-125 -84 -287 -84q-105 0 -182.5 29t-131 77.5t-84.5 113t-42 135.5l153 41q15 -59 37 -105t55.5 -78.5t82 -49.5t116.5 -17q78 0 139 24.5t106.5 76.5t77 131.5t50.5 189.5l156 889h159z" />
    <glyph glyph-name="ij" unicode="&#x133;" horiz-adv-x="1028" 
d="M477 1376q0 -22 -8.5 -41.5t-23 -34.5t-34 -23.5t-40.5 -8.5q-24 0 -44.5 8.5t-36 23.5t-24 34.5t-8.5 41.5q0 23 8.5 43.5t24 35.5t36 23.5t44.5 8.5q21 0 40.5 -8.5t34 -23.5t23 -35.5t8.5 -43.5zM207 0h-154l191 1075h153zM991 1376q0 -22 -8.5 -41.5t-23 -34.5
t-34 -23.5t-40.5 -8.5q-24 0 -44.5 8.5t-36 23.5t-24 34.5t-8.5 41.5q0 23 8.5 43.5t24 35.5t36 23.5t44.5 8.5q21 0 40.5 -8.5t34 -23.5t23 -35.5t8.5 -43.5zM723 14q-17 -92 -43.5 -160.5t-71.5 -117.5t-112 -81t-164 -50l-33 123q70 15 116.5 35.5t76.5 53.5t47.5 83.5
t31.5 126.5l187 1048h153z" />
    <glyph glyph-name="Jcircumflex" unicode="&#x134;" horiz-adv-x="1176" 
d="M969 559q-30 -178 -86.5 -301t-165.5 -197q-125 -84 -287 -84q-105 0 -182.5 29t-131 77.5t-84.5 113t-42 135.5l153 41q15 -59 37 -105t55.5 -78.5t82 -49.5t116.5 -17q78 0 139 24.5t106.5 76.5t77 131.5t50.5 189.5l156 889h159zM1252 1516l-168 211l-246 -211h-133
l311 327h172l193 -327h-129z" />
    <glyph glyph-name="jcircumflex" unicode="&#x135;" horiz-adv-x="514" 
d="M209 14q-17 -92 -43.5 -160.5t-71.5 -117.5t-112 -81t-164 -50l-33 123q70 15 116.5 35.5t76.5 53.5t47.5 83.5t31.5 126.5l187 1048h153zM543 1219l-168 211l-246 -211h-133l311 327h172l193 -327h-129z" />
    <glyph glyph-name="Kcommaaccent" unicode="&#x136;" horiz-adv-x="1307" 
d="M754 895l338 -895h-170l-289 772l-338 -360l-74 -412h-160l254 1434h160l-139 -794l745 794h183zM455 -471h-90l92 385h176z" />
    <glyph glyph-name="kcommaaccent" unicode="&#x137;" horiz-adv-x="1026" 
d="M600 692l215 -692h-156l-172 571l-235 -262l-55 -309h-154l250 1407l170 86l-176 -981l489 563h172zM322 -471h-90l92 385h176z" />
    <glyph glyph-name="kgreenlandic" unicode="&#x138;" horiz-adv-x="1026" 
d="M600 692l215 -692h-156l-172 571l-235 -262l-55 -309h-154l190 1075h156l-100 -561l487 561h172z" />
    <glyph glyph-name="Lacute" unicode="&#x139;" horiz-adv-x="1169" 
d="M924 0h-863l254 1434h160l-227 -1289h702zM467 1526h-138l269 327h235z" />
    <glyph glyph-name="lacute" unicode="&#x13a;" horiz-adv-x="514" 
d="M207 0h-154l250 1407l170 86zM451 1526h-138l269 327h235z" />
    <glyph glyph-name="Lcommaaccent" unicode="&#x13b;" horiz-adv-x="1169" 
d="M924 0h-863l254 1434h160l-227 -1289h702zM396 -471h-90l92 385h176z" />
    <glyph glyph-name="lcommaaccent" unicode="&#x13c;" horiz-adv-x="514" 
d="M207 0h-154l250 1407l170 86zM31 -471h-90l92 385h176z" />
    <glyph glyph-name="Lcaron" unicode="&#x13d;" horiz-adv-x="1169" 
d="M924 0h-863l254 1434h160l-227 -1289h702zM747 1182h-112l112 457h215z" />
    <glyph glyph-name="lcaron" unicode="&#x13e;" horiz-adv-x="545" 
d="M207 0h-154l250 1407l170 86zM577 977h-112l112 457h215z" />
    <glyph glyph-name="Ldot" unicode="&#x13f;" horiz-adv-x="1169" 
d="M924 0h-863l254 1434h160l-227 -1289h702zM911 752q0 -27 -10.5 -51t-28.5 -41.5t-42 -28t-50 -10.5q-27 0 -51 10.5t-41.5 28t-28 41.5t-10.5 51t10.5 51t28 43t41.5 30t51 11q26 0 50 -11t42 -30t28.5 -43t10.5 -51z" />
    <glyph glyph-name="ldot" unicode="&#x140;" horiz-adv-x="1006" 
d="M207 0h-154l250 1407l170 86zM899 752q0 -27 -10.5 -51t-28.5 -41.5t-42 -28t-50 -10.5q-27 0 -51 10.5t-41.5 28t-28 41.5t-10.5 51t10.5 51t28 43t41.5 30t51 11q26 0 50 -11t42 -30t28.5 -43t10.5 -51z" />
    <glyph glyph-name="Lslash" unicode="&#x141;" horiz-adv-x="1190" 
d="M944 0h-862l88 494l-147 -117l30 182l150 117l133 758h160l-115 -646l381 287l-33 -182l-381 -287l-80 -461h703z" />
    <glyph glyph-name="lslash" unicode="&#x142;" horiz-adv-x="535" 
d="M365 827l116 95l-32 -187l-117 -94l-115 -641h-154l95 530l-117 -94l33 187l116 94l123 690l170 86z" />
    <glyph glyph-name="Nacute" unicode="&#x143;" horiz-adv-x="1401" 
d="M1085 0h-149l-511 1181l-210 -1181h-154l254 1434h156l506 -1170l209 1170h153zM811 1526h-138l269 327h235z" />
    <glyph glyph-name="nacute" unicode="&#x144;" horiz-adv-x="1153" 
d="M989 764q0 -29 -3 -63t-9 -66l-115 -635h-153l110 618q5 29 7.5 60t2.5 57q0 115 -49.5 174.5t-158.5 59.5q-56 0 -106.5 -24.5t-91.5 -70t-72 -113t-46 -153.5l-108 -608h-154l190 1075h152l-18 -121q57 67 129 105.5t166 38.5q153 0 240 -89.5t87 -244.5zM645 1219
h-138l269 327h235z" />
    <glyph glyph-name="Ncommaaccent" unicode="&#x145;" horiz-adv-x="1401" 
d="M1085 0h-149l-511 1181l-210 -1181h-154l254 1434h156l506 -1170l209 1170h153zM494 -471h-90l92 385h176z" />
    <glyph glyph-name="ncommaaccent" unicode="&#x146;" horiz-adv-x="1153" 
d="M989 764q0 -29 -3 -63t-9 -66l-115 -635h-153l110 618q5 29 7.5 60t2.5 57q0 115 -49.5 174.5t-158.5 59.5q-56 0 -106.5 -24.5t-91.5 -70t-72 -113t-46 -153.5l-108 -608h-154l190 1075h152l-18 -121q57 67 129 105.5t166 38.5q153 0 240 -89.5t87 -244.5zM348 -471h-90
l92 385h176z" />
    <glyph glyph-name="Ncaron" unicode="&#x147;" horiz-adv-x="1401" 
d="M1085 0h-149l-511 1181l-210 -1181h-154l254 1434h156l506 -1170l209 1170h153zM926 1526h-172l-193 327h129l168 -211l246 211h133z" />
    <glyph glyph-name="ncaron" unicode="&#x148;" horiz-adv-x="1153" 
d="M989 764q0 -29 -3 -63t-9 -66l-115 -635h-153l110 618q5 29 7.5 60t2.5 57q0 115 -49.5 174.5t-158.5 59.5q-56 0 -106.5 -24.5t-91.5 -70t-72 -113t-46 -153.5l-108 -608h-154l190 1075h152l-18 -121q57 67 129 105.5t166 38.5q153 0 240 -89.5t87 -244.5zM739 1219
h-172l-193 327h129l168 -211l246 211h133z" />
    <glyph glyph-name="napostrophe" unicode="&#x149;" horiz-adv-x="1614" 
d="M1450 764q0 -29 -3 -63t-9 -66l-115 -635h-153l110 618q5 29 7.5 60t2.5 57q0 115 -49.5 174.5t-158.5 59.5q-56 0 -106.5 -24.5t-91.5 -70t-72 -113t-46 -153.5l-108 -608h-154l190 1075h152l-18 -121q57 67 129 105.5t166 38.5q153 0 240 -89.5t87 -244.5zM307 977
h-112l112 457h215z" />
    <glyph glyph-name="Eng" unicode="&#x14a;" horiz-adv-x="1401" 
d="M1085 0q-17 -88 -44 -154t-72 -113.5t-111 -78.5t-162 -49l-32 123q68 15 113.5 34.5t75.5 50.5t47.5 78t31.5 117l-507 1173l-210 -1181h-154l254 1434h156l506 -1170l209 1170h153z" />
    <glyph glyph-name="eng" unicode="&#x14b;" horiz-adv-x="1153" 
d="M989 764q0 -29 -3 -63t-9 -66l-115 -635q-18 -89 -45 -154.5t-72 -113t-111 -78.5t-161 -49l-33 123q71 15 117 35.5t76 53.5t48 83.5t32 126.5l106 591q5 29 7.5 60t2.5 57q0 115 -49.5 174.5t-158.5 59.5q-56 0 -106.5 -24t-92 -70t-72 -113.5t-45.5 -153.5l-108 -608
h-154l190 1075h152l-18 -121q26 30 55.5 56t65.5 45.5t78.5 31t95.5 11.5q70 0 130 -21t104 -62.5t68.5 -104t24.5 -146.5z" />
    <glyph glyph-name="Omacron" unicode="&#x14c;" horiz-adv-x="1436" 
d="M1325 881q0 -126 -24.5 -241.5t-70 -216t-109.5 -183t-142.5 -141t-170 -90.5t-190.5 -32q-117 0 -210.5 40.5t-159.5 115.5t-101.5 181.5t-35.5 238.5q0 125 24.5 241t70 216.5t109.5 182.5t142.5 140.5t169.5 90.5t190 32q117 0 211 -40.5t160 -115t101.5 -181
t35.5 -238.5zM1165 852q0 104 -24 189t-71 145t-116 92.5t-160 32.5q-106 0 -202 -57t-167.5 -155.5t-113 -231.5t-41.5 -285q0 -105 24 -189.5t71.5 -144.5t116.5 -92.5t159 -32.5q108 0 203 57t166.5 155.5t113 231.5t41.5 285zM1129 1573h-557l24 143h557z" />
    <glyph glyph-name="omacron" unicode="&#x14d;" horiz-adv-x="1151" 
d="M86 436q0 154 42.5 276.5t113.5 208t164.5 131.5t195.5 46q97 0 176.5 -32t135 -91.5t86 -144.5t30.5 -191q0 -154 -42.5 -276.5t-113.5 -208t-164.5 -131.5t-195.5 -46q-98 0 -177 32t-134.5 91.5t-86 144.5t-30.5 191zM242 440q0 -80 19.5 -141.5t58 -104.5t92.5 -63
t116 -20q76 0 139.5 39t109.5 108.5t71.5 166t25.5 210.5q0 70 -17 131.5t-54.5 107t-92.5 68.5t-122 23q-76 0 -139.5 -39t-109.5 -109t-71.5 -166.5t-25.5 -210.5zM952 1266h-557l24 143h557z" />
    <glyph glyph-name="Obreve" unicode="&#x14e;" horiz-adv-x="1436" 
d="M1325 881q0 -126 -24.5 -241.5t-70 -216t-109.5 -183t-142.5 -141t-170 -90.5t-190.5 -32q-117 0 -210.5 40.5t-159.5 115.5t-101.5 181.5t-35.5 238.5q0 125 24.5 241t70 216.5t109.5 182.5t142.5 140.5t169.5 90.5t190 32q117 0 211 -40.5t160 -115t101.5 -181
t35.5 -238.5zM1165 852q0 104 -24 189t-71 145t-116 92.5t-160 32.5q-106 0 -202 -57t-167.5 -155.5t-113 -231.5t-41.5 -285q0 -105 24 -189.5t71.5 -144.5t116.5 -92.5t159 -32.5q108 0 203 57t166.5 155.5t113 231.5t41.5 285zM1264 1843q-36 -154 -137.5 -240.5
t-258.5 -86.5q-75 0 -134.5 22.5t-99 64.5t-56.5 102.5t-7 137.5h125q-12 -108 39 -160.5t154 -52.5q89 0 154 51.5t94 161.5h127z" />
    <glyph glyph-name="obreve" unicode="&#x14f;" horiz-adv-x="1151" 
d="M86 436q0 154 42.5 276.5t113.5 208t164.5 131.5t195.5 46q97 0 176.5 -32t135 -91.5t86 -144.5t30.5 -191q0 -154 -42.5 -276.5t-113.5 -208t-164.5 -131.5t-195.5 -46q-98 0 -177 32t-134.5 91.5t-86 144.5t-30.5 191zM242 440q0 -80 19.5 -141.5t58 -104.5t92.5 -63
t116 -20q76 0 139.5 39t109.5 108.5t71.5 166t25.5 210.5q0 70 -17 131.5t-54.5 107t-92.5 68.5t-122 23q-76 0 -139.5 -39t-109.5 -109t-71.5 -166.5t-25.5 -210.5zM1084 1546q-36 -154 -137.5 -240.5t-258.5 -86.5q-75 0 -134.5 22.5t-99 64.5t-56.5 102.5t-7 137.5h125
q-12 -108 39 -160.5t154 -52.5q89 0 154 51.5t94 161.5h127z" />
    <glyph glyph-name="Ohungarumlaut" unicode="&#x150;" horiz-adv-x="1436" 
d="M1325 881q0 -126 -24.5 -241.5t-70 -216t-109.5 -183t-142.5 -141t-170 -90.5t-190.5 -32q-117 0 -210.5 40.5t-159.5 115.5t-101.5 181.5t-35.5 238.5q0 125 24.5 241t70 216.5t109.5 182.5t142.5 140.5t169.5 90.5t190 32q117 0 211 -40.5t160 -115t101.5 -181
t35.5 -238.5zM1165 852q0 104 -24 189t-71 145t-116 92.5t-160 32.5q-106 0 -202 -57t-167.5 -155.5t-113 -231.5t-41.5 -285q0 -105 24 -189.5t71.5 -144.5t116.5 -92.5t159 -32.5q108 0 203 57t166.5 155.5t113 231.5t41.5 285zM1040 1526h-129l268 327h228zM676 1526
h-129l268 327h227z" />
    <glyph glyph-name="ohungarumlaut" unicode="&#x151;" horiz-adv-x="1151" 
d="M86 436q0 154 42.5 276.5t113.5 208t164.5 131.5t195.5 46q97 0 176.5 -32t135 -91.5t86 -144.5t30.5 -191q0 -154 -42.5 -276.5t-113.5 -208t-164.5 -131.5t-195.5 -46q-98 0 -177 32t-134.5 91.5t-86 144.5t-30.5 191zM242 440q0 -80 19.5 -141.5t58 -104.5t92.5 -63
t116 -20q76 0 139.5 39t109.5 108.5t71.5 166t25.5 210.5q0 70 -17 131.5t-54.5 107t-92.5 68.5t-122 23q-76 0 -139.5 -39t-109.5 -109t-71.5 -166.5t-25.5 -210.5zM858 1219h-129l268 327h228zM494 1219h-129l268 327h227z" />
    <glyph glyph-name="OE" unicode="&#x152;" horiz-adv-x="2128" 
d="M1151 872q0 102 -24 183.5t-70 138.5t-114.5 87t-156.5 30q-102 0 -197.5 -56.5t-167 -159.5t-111.5 -234.5t-40 -278.5q0 -105 23.5 -189.5t69.5 -144.5t113.5 -92.5t156.5 -32.5q110 0 208.5 64t168.5 174t105.5 240t35.5 271zM1182 145h729l-27 -145h-872l39 217
q-39 -52 -82.5 -96t-96 -76t-115.5 -50t-141 -18q-117 0 -210.5 40.5t-159 115.5t-100.5 181.5t-35 238.5q0 125 24.5 241t69.5 216.5t109 182.5t142 140.5t169 90.5t190 32q80 0 146 -20t118 -54.5t88.5 -81t57.5 -98.5l41 232h839l-24 -146h-699l-79 -450h563l-25 -146
h-563z" />
    <glyph glyph-name="oe" unicode="&#x153;" horiz-adv-x="1827" 
d="M977 485q-6 -86 9 -155t50 -118t90 -75t129 -26t139.5 24t125.5 62l57 -117q-86 -53 -167 -78t-179 -25q-117 0 -217.5 70.5t-134.5 175.5q-75 -130 -170 -188t-209 -58q-95 0 -171.5 32t-130.5 91.5t-83 144.5t-29 191q0 154 41.5 276.5t111.5 208t162.5 131.5t194.5 46
q129 0 217 -60t137 -184q29 54 66 98.5t82.5 77t102 50.5t124.5 18q92 0 163 -31t119.5 -87.5t73.5 -135.5t25 -176q0 -54 -5.5 -101.5t-14.5 -81.5h-709zM1556 610q6 78 -5 143.5t-40 112.5t-77.5 73t-116.5 26q-64 0 -116.5 -26t-93 -73t-69 -112.5t-43.5 -143.5h561z
M242 440q0 -76 17.5 -137t51 -103.5t83 -65.5t114.5 -23q75 0 138 39t109.5 108.5t72.5 166t26 210.5q0 76 -17.5 137t-52 104t-86 66t-118.5 23q-75 0 -137 -40t-106.5 -110.5t-69.5 -166.5t-25 -208z" />
    <glyph glyph-name="Racute" unicode="&#x154;" horiz-adv-x="1323" 
d="M1245 1069q0 -110 -36 -188t-94.5 -130.5t-133 -83.5t-150.5 -46l216 -621h-170l-211 610h-336l-109 -610h-160l254 1434h476q103 0 186.5 -22t143 -67t92 -113.5t32.5 -162.5zM1083 1063q0 110 -74 167.5t-237 57.5h-323l-95 -534h379q169 0 259.5 82t90.5 227z
M732 1526h-138l269 327h235z" />
    <glyph glyph-name="racute" unicode="&#x155;" horiz-adv-x="829" 
d="M756 928q-25 14 -57.5 21t-82.5 7q-55 0 -104 -19t-90 -60t-70 -104.5t-45 -151.5l-110 -621h-154l190 1075h152l-20 -127q49 64 127 107t161 43q60 0 98.5 -7.5t63.5 -19.5zM566 1219h-138l269 327h235z" />
    <glyph glyph-name="Rcommaaccent" unicode="&#x156;" horiz-adv-x="1323" 
d="M1245 1069q0 -110 -36 -188t-94.5 -130.5t-133 -83.5t-150.5 -46l216 -621h-170l-211 610h-336l-109 -610h-160l254 1434h476q103 0 186.5 -22t143 -67t92 -113.5t32.5 -162.5zM1083 1063q0 110 -74 167.5t-237 57.5h-323l-95 -534h379q169 0 259.5 82t90.5 227z
M434 -471h-90l92 385h176z" />
    <glyph glyph-name="rcommaaccent" unicode="&#x157;" horiz-adv-x="829" 
d="M756 928q-25 14 -57.5 21t-82.5 7q-55 0 -104 -19t-90 -60t-70 -104.5t-45 -151.5l-110 -621h-154l190 1075h152l-20 -127q49 64 127 107t161 43q60 0 98.5 -7.5t63.5 -19.5zM27 -471h-90l92 385h176z" />
    <glyph glyph-name="Rcaron" unicode="&#x158;" horiz-adv-x="1323" 
d="M1245 1069q0 -110 -36 -188t-94.5 -130.5t-133 -83.5t-150.5 -46l216 -621h-170l-211 610h-336l-109 -610h-160l254 1434h476q103 0 186.5 -22t143 -67t92 -113.5t32.5 -162.5zM1083 1063q0 110 -74 167.5t-237 57.5h-323l-95 -534h379q169 0 259.5 82t90.5 227z
M828 1526h-172l-193 327h129l168 -211l246 211h133z" />
    <glyph glyph-name="rcaron" unicode="&#x159;" horiz-adv-x="829" 
d="M756 928q-25 14 -57.5 21t-82.5 7q-55 0 -104 -19t-90 -60t-70 -104.5t-45 -151.5l-110 -621h-154l190 1075h152l-20 -127q49 64 127 107t161 43q60 0 98.5 -7.5t63.5 -19.5zM580 1219h-172l-193 327h129l168 -211l246 211h133z" />
    <glyph glyph-name="Sacute" unicode="&#x15a;" horiz-adv-x="1204" 
d="M1004 1161q-34 35 -70.5 63t-79.5 47.5t-95 29.5t-118 10t-117 -18.5t-86 -50t-53 -73t-18 -86.5q0 -39 10.5 -71t42.5 -63t90.5 -65t153.5 -77q97 -44 164.5 -85.5t109.5 -89t61 -105t19 -132.5q0 -90 -35.5 -166.5t-100 -132.5t-153.5 -87.5t-197 -31.5
q-93 0 -170.5 19t-140 50.5t-111 72.5t-83.5 84l127 112q37 -44 79 -79.5t91 -60.5t105 -38.5t122 -13.5q67 0 123.5 18t97.5 51.5t63.5 80.5t22.5 106q0 46 -14.5 83.5t-49 72t-92 68.5t-143.5 73q-100 45 -167.5 85.5t-108.5 85.5t-58.5 98t-17.5 122q0 80 34 150.5
t94.5 123.5t145 84t185.5 31q81 0 148 -12t123 -35t102 -55.5t87 -73.5zM672 1526h-138l269 327h235z" />
    <glyph glyph-name="sacute" unicode="&#x15b;" horiz-adv-x="948" 
d="M752 856q-30 28 -60.5 48.5t-63.5 34.5t-70 21t-81 7q-83 0 -134.5 -39t-51.5 -105q0 -29 8 -52.5t31 -46t64 -47t106 -56.5q73 -36 124 -70t83.5 -70t47.5 -78t15 -94q0 -87 -31.5 -150t-84.5 -103.5t-121.5 -59.5t-143.5 -19q-124 0 -222 42.5t-167 113.5l94 109
q62 -63 137 -98t168 -35q106 0 165 46.5t59 127.5q0 29 -9 54t-34 50t-68 51t-111 58q-71 33 -120 65.5t-79.5 68t-44.5 75.5t-14 88q0 142 94.5 223.5t256.5 81.5q60 0 111.5 -10.5t95.5 -28.5t80 -41.5t65 -50.5zM545 1219h-138l269 327h235z" />
    <glyph glyph-name="Scircumflex" unicode="&#x15c;" horiz-adv-x="1204" 
d="M1004 1161q-34 35 -70.5 63t-79.5 47.5t-95 29.5t-118 10t-117 -18.5t-86 -50t-53 -73t-18 -86.5q0 -39 10.5 -71t42.5 -63t90.5 -65t153.5 -77q97 -44 164.5 -85.5t109.5 -89t61 -105t19 -132.5q0 -90 -35.5 -166.5t-100 -132.5t-153.5 -87.5t-197 -31.5
q-93 0 -170.5 19t-140 50.5t-111 72.5t-83.5 84l127 112q37 -44 79 -79.5t91 -60.5t105 -38.5t122 -13.5q67 0 123.5 18t97.5 51.5t63.5 80.5t22.5 106q0 46 -14.5 83.5t-49 72t-92 68.5t-143.5 73q-100 45 -167.5 85.5t-108.5 85.5t-58.5 98t-17.5 122q0 80 34 150.5
t94.5 123.5t145 84t185.5 31q81 0 148 -12t123 -35t102 -55.5t87 -73.5zM959 1516l-168 211l-246 -211h-133l311 327h172l193 -327h-129z" />
    <glyph glyph-name="scircumflex" unicode="&#x15d;" horiz-adv-x="948" 
d="M752 856q-30 28 -60.5 48.5t-63.5 34.5t-70 21t-81 7q-83 0 -134.5 -39t-51.5 -105q0 -29 8 -52.5t31 -46t64 -47t106 -56.5q73 -36 124 -70t83.5 -70t47.5 -78t15 -94q0 -87 -31.5 -150t-84.5 -103.5t-121.5 -59.5t-143.5 -19q-124 0 -222 42.5t-167 113.5l94 109
q62 -63 137 -98t168 -35q106 0 165 46.5t59 127.5q0 29 -9 54t-34 50t-68 51t-111 58q-71 33 -120 65.5t-79.5 68t-44.5 75.5t-14 88q0 142 94.5 223.5t256.5 81.5q60 0 111.5 -10.5t95.5 -28.5t80 -41.5t65 -50.5zM776 1201l-168 211l-246 -211h-133l311 327h172l193 -327
h-129z" />
    <glyph glyph-name="Scedilla" unicode="&#x15e;" horiz-adv-x="1204" 
d="M1004 1161q-34 35 -70.5 63t-79.5 47.5t-95 29.5t-118 10t-117 -18.5t-86 -50t-53 -73t-18 -86.5q0 -39 10.5 -71t42.5 -63t90.5 -65t153.5 -77q97 -44 164.5 -85.5t109.5 -89t61 -105t19 -132.5q0 -90 -35.5 -166.5t-100 -132.5t-153.5 -87.5t-197 -31.5
q-93 0 -170.5 19t-140 50.5t-111 72.5t-83.5 84l127 112q37 -44 79 -79.5t91 -60.5t105 -38.5t122 -13.5q67 0 123.5 18t97.5 51.5t63.5 80.5t22.5 106q0 46 -14.5 83.5t-49 72t-92 68.5t-143.5 73q-100 45 -167.5 85.5t-108.5 85.5t-58.5 98t-17.5 122q0 80 34 150.5
t94.5 123.5t145 84t185.5 31q81 0 148 -12t123 -35t102 -55.5t87 -73.5zM688 -205q0 -49 -19 -85t-52 -59t-76.5 -34.5t-92.5 -11.5q-83 0 -145 22t-121 66l51 61q43 -32 90 -48.5t113 -16.5q59 0 94 21t35 65q0 29 -14.5 47t-46.5 18q-29 0 -51.5 -8t-45.5 -25l-67 29
l80 164h92l-53 -104q21 11 44.5 16.5t55.5 5.5q54 0 91.5 -30t37.5 -93z" />
    <glyph glyph-name="scedilla" unicode="&#x15f;" horiz-adv-x="948" 
d="M752 856q-30 28 -60.5 48.5t-63.5 34.5t-70 21t-81 7q-83 0 -134.5 -39t-51.5 -105q0 -29 8 -52.5t31 -46t64 -47t106 -56.5q73 -36 124 -70t83.5 -70t47.5 -78t15 -94q0 -87 -31.5 -150t-84.5 -103.5t-121.5 -59.5t-143.5 -19q-124 0 -222 42.5t-167 113.5l94 109
q62 -63 137 -98t168 -35q106 0 165 46.5t59 127.5q0 29 -9 54t-34 50t-68 51t-111 58q-71 33 -120 65.5t-79.5 68t-44.5 75.5t-14 88q0 142 94.5 223.5t256.5 81.5q60 0 111.5 -10.5t95.5 -28.5t80 -41.5t65 -50.5zM561 -205q0 -49 -19 -85t-52 -59t-76.5 -34.5t-92.5 -11.5
q-83 0 -145 22t-121 66l51 61q43 -32 90 -48.5t113 -16.5q59 0 94 21t35 65q0 29 -14.5 47t-46.5 18q-29 0 -51.5 -8t-45.5 -25l-67 29l80 164h92l-53 -104q21 11 44.5 16.5t55.5 5.5q54 0 91.5 -30t37.5 -93z" />
    <glyph glyph-name="Scaron" unicode="&#x160;" horiz-adv-x="1204" 
d="M1004 1161q-34 35 -70.5 63t-79.5 47.5t-95 29.5t-118 10t-117 -18.5t-86 -50t-53 -73t-18 -86.5q0 -39 10.5 -71t42.5 -63t90.5 -65t153.5 -77q97 -44 164.5 -85.5t109.5 -89t61 -105t19 -132.5q0 -90 -35.5 -166.5t-100 -132.5t-153.5 -87.5t-197 -31.5
q-93 0 -170.5 19t-140 50.5t-111 72.5t-83.5 84l127 112q37 -44 79 -79.5t91 -60.5t105 -38.5t122 -13.5q67 0 123.5 18t97.5 51.5t63.5 80.5t22.5 106q0 46 -14.5 83.5t-49 72t-92 68.5t-143.5 73q-100 45 -167.5 85.5t-108.5 85.5t-58.5 98t-17.5 122q0 80 34 150.5
t94.5 123.5t145 84t185.5 31q81 0 148 -12t123 -35t102 -55.5t87 -73.5zM797 1545h-172l-193 327h129l168 -211l246 211h133z" />
    <glyph glyph-name="scaron" unicode="&#x161;" horiz-adv-x="948" 
d="M752 856q-30 28 -60.5 48.5t-63.5 34.5t-70 21t-81 7q-83 0 -134.5 -39t-51.5 -105q0 -29 8 -52.5t31 -46t64 -47t106 -56.5q73 -36 124 -70t83.5 -70t47.5 -78t15 -94q0 -87 -31.5 -150t-84.5 -103.5t-121.5 -59.5t-143.5 -19q-124 0 -222 42.5t-167 113.5l94 109
q62 -63 137 -98t168 -35q106 0 165 46.5t59 127.5q0 29 -9 54t-34 50t-68 51t-111 58q-71 33 -120 65.5t-79.5 68t-44.5 75.5t-14 88q0 142 94.5 223.5t256.5 81.5q60 0 111.5 -10.5t95.5 -28.5t80 -41.5t65 -50.5zM633 1219h-172l-193 327h129l168 -211l246 211h133z" />
    <glyph glyph-name="Tcedilla" unicode="&#x162;" horiz-adv-x="1196" 
d="M1194 1288h-416l-227 -1288h-160l227 1288h-419l26 146h996zM692 -205q0 -49 -19 -85t-52 -59t-76.5 -34.5t-92.5 -11.5q-83 0 -145 22t-121 66l51 61q43 -32 90 -48.5t113 -16.5q59 0 94 21t35 65q0 29 -14.5 47t-46.5 18q-29 0 -51.5 -8t-45.5 -25l-67 29l80 164h92
l-53 -104q21 11 44.5 16.5t55.5 5.5q54 0 91.5 -30t37.5 -93z" />
    <glyph glyph-name="tcedilla" unicode="&#x163;" horiz-adv-x="762" 
d="M680 946h-266l-121 -692q-3 -17 -4.5 -36t-1.5 -32q0 -34 22.5 -53.5t73.5 -19.5q54 0 88 6t66 20l-37 -135q-41 -15 -75.5 -21t-72.5 -6q-112 0 -168.5 44t-56.5 137q0 23 8 73l125 715h-133l25 129h133l57 332l170 86l-74 -418h267zM496 -205q0 -49 -19 -85t-52 -59
t-76.5 -34.5t-92.5 -11.5q-83 0 -145 22t-121 66l51 61q43 -32 90 -48.5t113 -16.5q59 0 94 21t35 65q0 29 -14.5 47t-46.5 18q-29 0 -51.5 -8t-45.5 -25l-67 29l80 164h92l-53 -104q21 11 44.5 16.5t55.5 5.5q54 0 91.5 -30t37.5 -93z" />
    <glyph glyph-name="Tcaron" unicode="&#x164;" horiz-adv-x="1196" 
d="M1194 1288h-416l-227 -1288h-160l227 1288h-419l26 146h996zM803 1526h-172l-193 327h129l168 -211l246 211h133z" />
    <glyph glyph-name="tcaron" unicode="&#x165;" horiz-adv-x="762" 
d="M680 946h-266l-121 -692q-3 -17 -4.5 -36t-1.5 -32q0 -34 22.5 -53.5t73.5 -19.5q54 0 88 6t66 20l-37 -135q-41 -15 -75.5 -21t-72.5 -6q-112 0 -168.5 44t-56.5 137q0 23 8 73l125 715h-133l25 129h133l57 332l170 86l-74 -418h267zM698.289 1205.26h-100.796
l100.796 411.283h193.492z" />
    <glyph glyph-name="Tbar" unicode="&#x166;" horiz-adv-x="1196" 
d="M180 663l26 146h327l85 479h-419l26 146h996l-27 -146h-416l-85 -479h330l-27 -146h-328l-117 -663h-160l117 663h-328z" />
    <glyph glyph-name="tbar" unicode="&#x167;" horiz-adv-x="762" 
d="M614 573h-265l-56 -319q-3 -17 -4.5 -36t-1.5 -32q0 -35 23 -54t73 -19q54 0 88 6t66 20l-37 -135q-41 -15 -75.5 -21t-72.5 -6q-112 0 -168.5 44t-56.5 137q0 17 2.5 35t5.5 38l60 342h-134l23 129h133l43 244h-133l25 129h133l57 332l170 86l-74 -418h267l-25 -129
h-266l-43 -244h266z" />
    <glyph glyph-name="Utilde" unicode="&#x168;" horiz-adv-x="1380" 
d="M1176 563q-26 -149 -73 -259t-117 -183t-164.5 -108.5t-215.5 -35.5q-114 0 -201.5 29t-147 84.5t-90 135.5t-30.5 182q0 34 5.5 80.5t13.5 93.5l149 852h160l-150 -848q-8 -45 -11 -88.5t-3 -77.5q0 -143 79.5 -220t248.5 -77q85 0 149.5 28t111.5 85t78.5 143.5
t51.5 202.5l149 852h160zM1248 1806q-13 -75 -35.5 -126t-52 -82t-65.5 -44.5t-77 -13.5q-65 0 -110.5 25.5t-73.5 47.5q-26 20 -62.5 45t-74.5 25q-29 0 -53 -30.5t-43 -106.5h-127q13 75 35 126t51.5 82t65.5 44.5t77 13.5q65 0 108 -24t76 -50q26 -19 62.5 -44t74.5 -25
q29 0 53 30t44 107h127z" />
    <glyph glyph-name="utilde" unicode="&#x169;" horiz-adv-x="1153" 
d="M100 311q0 29 3 63t10 66l114 635h154l-111 -618q-5 -29 -7.5 -60t-2.5 -57q0 -115 50 -174.5t159 -59.5q55 0 106.5 25t92 70.5t71 112.5t45.5 153l109 608h154l-191 -1075h-151l18 121q-55 -66 -126.5 -105t-168.5 -39q-151 0 -239.5 88t-88.5 246zM1075 1491
q-13 -75 -35.5 -126t-52 -82t-65.5 -44.5t-77 -13.5q-65 0 -110.5 25.5t-73.5 47.5q-26 20 -62.5 45t-74.5 25q-29 0 -53 -30.5t-43 -106.5h-127q13 75 35 126t51.5 82t65.5 44.5t77 13.5q65 0 108 -24t76 -50q26 -19 62.5 -44t74.5 -25q29 0 53 30t44 107h127z" />
    <glyph glyph-name="Umacron" unicode="&#x16a;" horiz-adv-x="1380" 
d="M1176 563q-26 -149 -73 -259t-117 -183t-164.5 -108.5t-215.5 -35.5q-114 0 -201.5 29t-147 84.5t-90 135.5t-30.5 182q0 34 5.5 80.5t13.5 93.5l149 852h160l-150 -848q-8 -45 -11 -88.5t-3 -77.5q0 -143 79.5 -220t248.5 -77q85 0 149.5 28t111.5 85t78.5 143.5
t51.5 202.5l149 852h160zM1125 1573h-557l24 143h557z" />
    <glyph glyph-name="umacron" unicode="&#x16b;" horiz-adv-x="1153" 
d="M100 311q0 29 3 63t10 66l114 635h154l-111 -618q-5 -29 -7.5 -60t-2.5 -57q0 -115 50 -174.5t159 -59.5q55 0 106.5 25t92 70.5t71 112.5t45.5 153l109 608h154l-191 -1075h-151l18 121q-55 -66 -126.5 -105t-168.5 -39q-151 0 -239.5 88t-88.5 246zM952 1266h-557
l24 143h557z" />
    <glyph glyph-name="Ubreve" unicode="&#x16c;" horiz-adv-x="1380" 
d="M1176 563q-26 -149 -73 -259t-117 -183t-164.5 -108.5t-215.5 -35.5q-114 0 -201.5 29t-147 84.5t-90 135.5t-30.5 182q0 34 5.5 80.5t13.5 93.5l149 852h160l-150 -848q-8 -45 -11 -88.5t-3 -77.5q0 -143 79.5 -220t248.5 -77q85 0 149.5 28t111.5 85t78.5 143.5
t51.5 202.5l149 852h160zM1235 1843q-36 -154 -137.5 -240.5t-258.5 -86.5q-75 0 -134.5 22.5t-99 64.5t-56.5 102.5t-7 137.5h125q-12 -108 39 -160.5t154 -52.5q89 0 154 51.5t94 161.5h127z" />
    <glyph glyph-name="ubreve" unicode="&#x16d;" horiz-adv-x="1153" 
d="M100 311q0 29 3 63t10 66l114 635h154l-111 -618q-5 -29 -7.5 -60t-2.5 -57q0 -115 50 -174.5t159 -59.5q55 0 106.5 25t92 70.5t71 112.5t45.5 153l109 608h154l-191 -1075h-151l18 121q-55 -66 -126.5 -105t-168.5 -39q-151 0 -239.5 88t-88.5 246zM1070 1546
q-36 -154 -137.5 -240.5t-258.5 -86.5q-75 0 -134.5 22.5t-99 64.5t-56.5 102.5t-7 137.5h125q-12 -108 39 -160.5t154 -52.5q89 0 154 51.5t94 161.5h127z" />
    <glyph glyph-name="Uring" unicode="&#x16e;" horiz-adv-x="1380" 
d="M1176 563q-26 -149 -73 -259t-117 -183t-164.5 -108.5t-215.5 -35.5q-114 0 -201.5 29t-147 84.5t-90 135.5t-30.5 182q0 34 5.5 80.5t13.5 93.5l149 852h160l-150 -848q-8 -45 -11 -88.5t-3 -77.5q0 -143 79.5 -220t248.5 -77q85 0 149.5 28t111.5 85t78.5 143.5
t51.5 202.5l149 852h160zM1070 1727q0 -50 -18 -93.5t-49.5 -76t-75.5 -51t-96 -18.5q-53 0 -97 18.5t-75.5 51t-49.5 76t-18 93.5t18 93.5t49.5 75.5t75.5 50.5t97 18.5q52 0 96 -18.5t75.5 -50.5t49.5 -75.5t18 -93.5zM974 1727q0 31 -10 58t-28.5 46.5t-45 30.5t-59.5 11
t-59.5 -11t-45.5 -30.5t-29 -46.5t-10 -58q0 -32 10 -59t29 -46.5t45.5 -30.5t59.5 -11t59.5 11t45 30.5t28.5 46.5t10 59z" />
    <glyph glyph-name="uring" unicode="&#x16f;" horiz-adv-x="1153" 
d="M100 311q0 29 3 63t10 66l114 635h154l-111 -618q-5 -29 -7.5 -60t-2.5 -57q0 -115 50 -174.5t159 -59.5q55 0 106.5 25t92 70.5t71 112.5t45.5 153l109 608h154l-191 -1075h-151l18 121q-55 -66 -126.5 -105t-168.5 -39q-151 0 -239.5 88t-88.5 246zM905 1466
q0 -50 -18 -93.5t-49.5 -76t-75.5 -51t-96 -18.5q-53 0 -97 18.5t-75.5 51t-49.5 76t-18 93.5t18 93.5t49.5 75.5t75.5 50.5t97 18.5q52 0 96 -18.5t75.5 -50.5t49.5 -75.5t18 -93.5zM809 1466q0 31 -10 58t-28.5 46.5t-45 30.5t-59.5 11t-59.5 -11t-45.5 -30.5t-29 -46.5
t-10 -58q0 -32 10 -59t29 -46.5t45.5 -30.5t59.5 -11t59.5 11t45 30.5t28.5 46.5t10 59z" />
    <glyph glyph-name="Uhungarumlaut" unicode="&#x170;" horiz-adv-x="1380" 
d="M1176 563q-26 -149 -73 -259t-117 -183t-164.5 -108.5t-215.5 -35.5q-114 0 -201.5 29t-147 84.5t-90 135.5t-30.5 182q0 34 5.5 80.5t13.5 93.5l149 852h160l-150 -848q-8 -45 -11 -88.5t-3 -77.5q0 -143 79.5 -220t248.5 -77q85 0 149.5 28t111.5 85t78.5 143.5
t51.5 202.5l149 852h160zM1055 1526h-129l268 327h228zM691 1526h-129l268 327h227z" />
    <glyph glyph-name="uhungarumlaut" unicode="&#x171;" horiz-adv-x="1153" 
d="M100 311q0 29 3 63t10 66l114 635h154l-111 -618q-5 -29 -7.5 -60t-2.5 -57q0 -115 50 -174.5t159 -59.5q55 0 106.5 25t92 70.5t71 112.5t45.5 153l109 608h154l-191 -1075h-151l18 121q-55 -66 -126.5 -105t-168.5 -39q-151 0 -239.5 88t-88.5 246zM895 1219h-129
l268 327h228zM531 1219h-129l268 327h227z" />
    <glyph glyph-name="Uogonek" unicode="&#x172;" horiz-adv-x="1380" 
d="M592 -23q-110 1 -194.5 31.5t-142.5 86t-88 135t-30 178.5q0 34 5.5 80t13.5 94l149 852h160l-150 -848q-8 -45 -11 -88.5t-3 -77.5q0 -69 18.5 -124t58.5 -93.5t102 -59t149 -20.5q85 0 149.5 28t111.5 85.5t78.5 143.5t51.5 202l149 852h160l-153 -871
q-23 -131 -58.5 -223t-81.5 -157.5t-107.5 -111.5t-146.5 -71q-23 -11 -61.5 -33t-76 -52t-65 -67t-27.5 -78q0 -27 13 -36.5t27 -9.5q18 0 29.5 12t19.5 26l88 -47q-20 -55 -60.5 -90t-98.5 -35q-35 0 -64 10t-51 28.5t-34 44.5t-12 58q0 38 16 73t42 66t59 58t66 49z" />
    <glyph glyph-name="uogonek" unicode="&#x173;" horiz-adv-x="1153" 
d="M100 311q0 29 3 63t10 66l114 635h154l-111 -618q-5 -29 -7.5 -60t-2.5 -57q0 -115 50 -174.5t159 -59.5q55 0 106.5 25t92 70.5t71 112.5t45.5 153l109 608h154l-191 -1075h-151l18 121q-55 -66 -126.5 -105t-168.5 -39q-151 0 -239.5 88t-88.5 246zM856 0
q-32 -14 -70 -34.5t-75.5 -49t-61 -65.5t-23.5 -76q0 -26 11 -38.5t29 -12.5t30 10t19 28l88 -47q-20 -55 -60.5 -90t-107.5 -35q-75 0 -113.5 40t-38.5 96q0 52 19.5 93t53 76.5t72.5 61t77 43.5h151z" />
    <glyph glyph-name="Wcircumflex" unicode="&#x174;" horiz-adv-x="1745" 
d="M1219 0h-181l-80 1201l-505 -1201h-177l-32 1434h157l8 -1210l504 1210h172l83 -1210l429 1210h158zM1211 1485l-168 211l-246 -211h-133l311 327h172l193 -327h-129z" />
    <glyph glyph-name="wcircumflex" unicode="&#x175;" horiz-adv-x="1487" 
d="M983 0h-141l-76 842l-375 -842h-137l-94 1075h155l48 -845l374 845h140l76 -845l345 845h156zM1032 1211l-168 211l-246 -211h-133l311 327h172l193 -327h-129z" />
    <glyph glyph-name="Ycircumflex" unicode="&#x176;" horiz-adv-x="1327" 
d="M711 561l-99 -561h-159l102 575l-334 859h176l268 -710l509 710h182zM1006 1526l-168 211l-246 -211h-133l311 327h172l193 -327h-129z" />
    <glyph glyph-name="ycircumflex" unicode="&#x177;" horiz-adv-x="1079" 
d="M279 -379h-154l213 391l-193 1063h158l139 -891l453 891h166zM828 1219l-168 211l-246 -211h-133l311 327h172l193 -327h-129z" />
    <glyph glyph-name="Ydieresis" unicode="&#x178;" horiz-adv-x="1327" 
d="M711 561l-99 -561h-159l102 575l-334 859h176l268 -710l509 710h182zM1116 1635q0 -23 -9 -43.5t-24.5 -36t-36 -24.5t-43.5 -9t-43.5 9t-35.5 24.5t-24 36t-9 43.5t9 43.5t24 36.5t35.5 25t43.5 9t43.5 -9t36 -25t24.5 -36.5t9 -43.5zM719 1635q0 -23 -9 -43.5
t-24.5 -36t-35.5 -24.5t-42 -9q-24 0 -44.5 9t-36.5 24.5t-25 36t-9 43.5t9 43.5t25 36.5t36.5 25t44.5 9q22 0 42 -9t35.5 -25t24.5 -36.5t9 -43.5z" />
    <glyph glyph-name="Zacute" unicode="&#x179;" horiz-adv-x="1278" 
d="M1243 1294l-1026 -1155h821l-24 -139h-1016l25 139l1026 1155h-781l25 140h975zM750 1526h-138l269 327h235z" />
    <glyph glyph-name="zacute" unicode="&#x17a;" horiz-adv-x="999" 
d="M907 963l-702 -834h575l-22 -129h-760l20 113l701 833h-529l23 129h713zM572 1219h-138l269 327h235z" />
    <glyph glyph-name="Zdotaccent" unicode="&#x17b;" horiz-adv-x="1278" 
d="M1243 1294l-1026 -1155h821l-24 -139h-1016l25 139l1026 1155h-781l25 140h975zM864 1655q0 -23 -9 -43.5t-24 -36t-35.5 -24.5t-43.5 -9t-43.5 9t-36 24.5t-24.5 36t-9 43.5t9 43.5t24.5 36.5t36 25t43.5 9t43.5 -9t35.5 -25t24 -36.5t9 -43.5z" />
    <glyph glyph-name="zdotaccent" unicode="&#x17c;" horiz-adv-x="999" 
d="M907 963l-702 -834h575l-22 -129h-760l20 113l701 833h-529l23 129h713zM727 1348q0 -23 -9 -43.5t-24 -36t-35.5 -24.5t-43.5 -9t-43.5 9t-36 24.5t-24.5 36t-9 43.5t9 43.5t24.5 36.5t36 25t43.5 9t43.5 -9t35.5 -25t24 -36.5t9 -43.5z" />
    <glyph glyph-name="Zcaron" unicode="&#x17d;" horiz-adv-x="1278" 
d="M1243 1294l-1026 -1155h821l-24 -139h-1016l25 139l1026 1155h-781l25 140h975zM852 1526h-172l-193 327h129l168 -211l246 211h133z" />
    <glyph glyph-name="zcaron" unicode="&#x17e;" horiz-adv-x="999" 
d="M907 963l-702 -834h575l-22 -129h-760l20 113l701 833h-529l23 129h713zM676 1219h-172l-193 327h129l168 -211l246 211h133z" />
    <glyph glyph-name="longs" unicode="&#x17f;" horiz-adv-x="729" 
d="M340 1223q12 73 37.5 123.5t62.5 82t83.5 45t101.5 13.5q29 0 51 -2t39.5 -5.5t31.5 -8t27 -9.5l-22 -139q-25 12 -53 18.5t-68 6.5q-66 0 -95.5 -31.5t-41.5 -102.5l-215 -1214h-154z" />
    <glyph glyph-name="uni018F" unicode="&#x18f;" horiz-adv-x="1436" 
d="M1165 817q2 137 -20.5 221t-65.5 144.5t-106.5 94.5t-145.5 34q-110 0 -197 -39t-167 -131l-113 90q53 61 107.5 104t116 70t131 39t151.5 12q115 0 204 -45t148.5 -124t90 -186.5t30.5 -230.5q0 -104 -20 -211q-33 -135 -78 -235t-109.5 -183t-143.5 -141.5t-170 -90.5
t-190 -32q-116 0 -210.5 40t-160 116t-101 182.5t-35.5 237.5q0 125 28 264h1026zM1122 567q17 54 27 101h-877q-2 -43 -2 -86q0 -105 23.5 -190t72 -144.5t117 -92t158.5 -32.5q109 0 203 57.5t165.5 155.5t112.5 231z" />
    <glyph glyph-name="florin" unicode="&#x192;" 
d="M1128 1292q-28 11 -78.5 18t-107.5 7q-87 0 -139 -36t-70 -120l-19 -86h322l-27 -129h-321l-203 -946h-154l203 946h-250l27 129h250l16 80q17 83 50 140.5t81.5 93t112 51.5t141.5 16q65 0 116.5 -6t80.5 -12z" />
    <glyph glyph-name="Aringacute" unicode="&#x1fa;" horiz-adv-x="1380" 
d="M983 0l-57 365h-588l-186 -365h-168l708 1360q-51 31 -79.5 84.5t-28.5 118.5q0 50 18 93t49.5 75t75.5 50.5t96 18.5t96.5 -18.5t76 -50.5t49.5 -75t18 -93q0 -75 -38 -133.5t-103 -86.5l225 -1343h-164zM790 1245l-378 -735h491zM967 1563q0 32 -10 58t-28.5 46
t-45.5 30.5t-60 10.5t-60 -10.5t-45 -30.5t-28 -46t-10 -58t10 -59.5t28.5 -47t45 -30.5t59.5 -11t59.5 11t45.5 30.5t29 47t10 59.5zM856 1854h-138l269 327h235z" />
    <glyph glyph-name="aringacute" unicode="&#x1fb;" horiz-adv-x="1096" 
d="M946 827q0 -20 -2.5 -42t-5.5 -44l-131 -741h-152l21 123q-58 -59 -143 -102.5t-185 -43.5q-64 0 -121.5 15.5t-101 49.5t-69 88t-25.5 130q0 100 35.5 176t97 127t144 77t177.5 26q81 0 152.5 -18t122.5 -44l22 127q3 17 4.5 37.5t1.5 36.5q0 83 -47 123.5t-147 40.5
q-84 0 -155.5 -22t-143.5 -60l-47 121q77 38 169.5 64t188.5 26q81 0 144 -16t106.5 -49.5t66.5 -84.5t23 -121zM739 481q-51 28 -117 45t-159 17q-65 0 -117 -18t-88 -51.5t-55 -81t-19 -107.5q0 -90 52 -136.5t149 -46.5q47 0 91 12.5t84 34.5t75 51.5t65 63.5zM915 1466
q0 -50 -18 -93.5t-49.5 -76t-75.5 -51t-96 -18.5q-53 0 -97 18.5t-75.5 51t-49.5 76t-18 93.5t18 93.5t49.5 75.5t75.5 50.5t97 18.5q52 0 96 -18.5t75.5 -50.5t49.5 -75.5t18 -93.5zM819 1466q0 31 -10 58t-28.5 46.5t-45 30.5t-59.5 11t-59.5 -11t-45.5 -30.5t-29 -46.5
t-10 -58q0 -32 10 -59t29 -46.5t45.5 -30.5t59.5 -11t59.5 11t45 30.5t28.5 46.5t10 59zM703 1803h-138l269 327h235z" />
    <glyph glyph-name="AEacute" unicode="&#x1fc;" horiz-adv-x="2036" 
d="M1092 145h729l-27 -145h-881l64 365h-567l-304 -365h-182l1215 1434h876l-24 -146h-699l-80 -450h564l-25 -146h-563zM530 510h474l133 729zM1221 1526h-138l269 327h235z" />
    <glyph glyph-name="aeacute" unicode="&#x1fd;" horiz-adv-x="1708" 
d="M1587 668q0 -54 -5.5 -101.5t-14.5 -81.5h-701q-6 -84 8 -152.5t48.5 -118t88.5 -76.5t128 -27q60 0 123 20.5t139 65.5l57 -117q-94 -55 -173 -79t-167 -24q-109 0 -196 48.5t-140 138.5q-92 -88 -197 -137.5t-237 -49.5q-71 0 -129 18t-100 54t-65 90.5t-23 128.5
q0 97 35.5 171t97 124.5t144 76.5t177.5 26q81 0 142 -18t112 -44l23 127q3 17 4.5 37.5t1.5 36.5q0 83 -44.5 123.5t-129.5 40.5q-84 0 -155.5 -22t-143.5 -60l-47 121q77 38 167.5 64t190.5 26q116 0 188.5 -39t98.5 -123q63 74 142.5 118t176.5 44q91 0 161 -31.5
t117.5 -88.5t72 -136t24.5 -174zM1438 610q6 78 -5 143t-40.5 112t-77.5 73.5t-115 26.5q-63 0 -114.5 -27t-91.5 -74.5t-67 -112.5t-42 -141h553zM737 283q-8 32 -12 64.5t-4 74.5v59q-59 33 -119.5 47.5t-138.5 14.5q-65 0 -117 -18t-88 -51.5t-55 -81t-19 -107.5
q0 -90 52 -136.5t149 -46.5q85 0 176 46.5t176 134.5zM934 1219h-138l269 327h235z" />
    <glyph glyph-name="Oslashacute" unicode="&#x1fe;" horiz-adv-x="1436" 
d="M256 125q-69 75 -107 183.5t-38 244.5q0 125 24.5 241t70.5 216.5t109.5 182.5t142 140.5t169.5 90.5t190 32q131 0 244 -55l86 135h141l-131 -205q81 -75 124.5 -189.5t43.5 -260.5q0 -126 -24.5 -241.5t-70 -216t-109.5 -183t-142.5 -141t-170 -90.5t-190.5 -32
q-154 0 -270 72l-96 -151h-141zM979 1270q-81 45 -184 45q-106 0 -201.5 -55.5t-169.5 -155.5t-116 -237t-42 -285q0 -191 80 -314zM430 180q86 -61 211 -61q105 0 201 55t170.5 157t115.5 238t41 283q0 212 -98 340zM891 1526h-138l269 327h235z" />
    <glyph glyph-name="oslashacute" unicode="&#x1ff;" horiz-adv-x="1151" 
d="M207 96q-59 60 -90 146t-31 194q0 154 42.5 276.5t113.5 208t164.5 131.5t195.5 46q63 0 119 -14t102 -40l88 134h136l-134 -203q57 -60 87 -145t30 -191q0 -154 -42.5 -276.5t-113.5 -208t-164.5 -131.5t-195.5 -46q-62 0 -116.5 13.5t-100.5 38.5l-86 -131h-135z
M748 928q-32 20 -72 30.5t-88 10.5q-77 0 -141 -39.5t-110.5 -109.5t-72.5 -167.5t-26 -212.5q0 -130 53 -215zM373 145q69 -39 155 -39q77 0 141.5 39.5t111 110t72.5 167.5t26 212q0 123 -50 209zM707 1219h-138l269 327h235z" />
    <glyph glyph-name="Scommaaccent" unicode="&#x218;" horiz-adv-x="1204" 
d="M1004 1161q-34 35 -70.5 63t-79.5 47.5t-95 29.5t-118 10t-117 -18.5t-86 -50t-53 -73t-18 -86.5q0 -39 10.5 -71t42.5 -63t90.5 -65t153.5 -77q97 -44 164.5 -85.5t109.5 -89t61 -105t19 -132.5q0 -90 -35.5 -166.5t-100 -132.5t-153.5 -87.5t-197 -31.5
q-93 0 -170.5 19t-140 50.5t-111 72.5t-83.5 84l127 112q37 -44 79 -79.5t91 -60.5t105 -38.5t122 -13.5q67 0 123.5 18t97.5 51.5t63.5 80.5t22.5 106q0 46 -14.5 83.5t-49 72t-92 68.5t-143.5 73q-100 45 -167.5 85.5t-108.5 85.5t-58.5 98t-17.5 122q0 80 34 150.5
t94.5 123.5t145 84t185.5 31q81 0 148 -12t123 -35t102 -55.5t87 -73.5zM398 -489h-90l92 385h176z" />
    <glyph glyph-name="scommaaccent" unicode="&#x219;" horiz-adv-x="948" 
d="M752 856q-30 28 -60.5 48.5t-63.5 34.5t-70 21t-81 7q-83 0 -134.5 -39t-51.5 -105q0 -29 8 -52.5t31 -46t64 -47t106 -56.5q73 -36 124 -70t83.5 -70t47.5 -78t15 -94q0 -87 -31.5 -150t-84.5 -103.5t-121.5 -59.5t-143.5 -19q-124 0 -222 42.5t-167 113.5l94 109
q62 -63 137 -98t168 -35q106 0 165 46.5t59 127.5q0 29 -9 54t-34 50t-68 51t-111 58q-71 33 -120 65.5t-79.5 68t-44.5 75.5t-14 88q0 142 94.5 223.5t256.5 81.5q60 0 111.5 -10.5t95.5 -28.5t80 -41.5t65 -50.5zM244 -471h-90l92 385h176z" />
    <glyph glyph-name="Tcommaaccent" unicode="&#x21a;" horiz-adv-x="1196" 
d="M1194 1288h-416l-227 -1288h-160l227 1288h-419l26 146h996zM373 -471h-90l92 385h176z" />
    <glyph glyph-name="tcommaaccent" unicode="&#x21b;" horiz-adv-x="762" 
d="M680 946h-266l-121 -692q-3 -17 -4.5 -36t-1.5 -32q0 -34 22.5 -53.5t73.5 -19.5q54 0 88 6t66 20l-37 -135q-41 -15 -75.5 -21t-72.5 -6q-112 0 -168.5 44t-56.5 137q0 23 8 73l125 715h-133l25 129h133l57 332l170 86l-74 -418h267zM199 -471h-90l92 385h176z" />
    <glyph glyph-name="afii10846" unicode="&#x259;" horiz-adv-x="1098" 
d="M86 408q0 53 5 100t15 82h717q6 86 -8 154.5t-50 117.5t-91.5 76t-130.5 27q-74 0 -138.5 -23.5t-132.5 -62.5l-57 116q88 54 172 78.5t180 24.5q88 0 164 -30t130 -86t85 -139t31 -190q0 -153 -39 -277t-106.5 -213t-159.5 -137.5t-199 -48.5q-94 0 -165.5 31t-121 87.5
t-75 135t-25.5 177.5zM236 465q-7 -78 4.5 -143.5t41 -112.5t80 -72.5t119.5 -25.5q66 0 118 25.5t93 72.5t70 112.5t43 143.5h-569z" />
    <glyph glyph-name="circumflex" unicode="&#x2c6;" horiz-adv-x="1024" 
d="M799 1219l-168 211l-246 -211h-133l311 327h172l193 -327h-129z" />
    <glyph glyph-name="caron" unicode="&#x2c7;" horiz-adv-x="1024" 
d="M676 1219h-172l-193 327h129l168 -211l246 211h133z" />
    <glyph glyph-name="breve" unicode="&#x2d8;" horiz-adv-x="1024" 
d="M1004 1546q-36 -154 -137.5 -240.5t-258.5 -86.5q-75 0 -134.5 22.5t-99 64.5t-56.5 102.5t-7 137.5h125q-12 -108 39 -160.5t154 -52.5q89 0 154 51.5t94 161.5h127z" />
    <glyph glyph-name="dotaccent" unicode="&#x2d9;" horiz-adv-x="1024" 
d="M737 1348q0 -23 -9 -43.5t-24 -36t-35.5 -24.5t-43.5 -9t-43.5 9t-36 24.5t-24.5 36t-9 43.5t9 43.5t24.5 36.5t36 25t43.5 9t43.5 -9t35.5 -25t24 -36.5t9 -43.5z" />
    <glyph glyph-name="ring" unicode="&#x2da;" horiz-adv-x="1024" 
d="M862 1466q0 -50 -18 -93.5t-49.5 -76t-75.5 -51t-96 -18.5q-53 0 -97 18.5t-75.5 51t-49.5 76t-18 93.5t18 93.5t49.5 75.5t75.5 50.5t97 18.5q52 0 96 -18.5t75.5 -50.5t49.5 -75.5t18 -93.5zM766 1466q0 31 -10 58t-28.5 46.5t-45 30.5t-59.5 11t-59.5 -11t-45.5 -30.5
t-29 -46.5t-10 -58q0 -32 10 -59t29 -46.5t45.5 -30.5t59.5 -11t59.5 11t45 30.5t28.5 46.5t10 59z" />
    <glyph glyph-name="ogonek" unicode="&#x2db;" horiz-adv-x="1024" 
d="M616 0q-32 -14 -70 -34.5t-75.5 -49t-61 -65.5t-23.5 -76q0 -26 11 -38.5t29 -12.5t30 10t19 28l88 -47q-20 -55 -60.5 -90t-107.5 -35q-75 0 -113.5 40t-38.5 96q0 52 19.5 93t53 76.5t72.5 61t77 43.5h151z" />
    <glyph glyph-name="tilde" unicode="&#x2dc;" horiz-adv-x="1024" 
d="M1012 1491q-13 -75 -35.5 -126t-52 -82t-65.5 -44.5t-77 -13.5q-65 0 -110.5 25.5t-73.5 47.5q-26 20 -62.5 45t-74.5 25q-29 0 -53 -30.5t-43 -106.5h-127q13 75 35 126t51.5 82t65.5 44.5t77 13.5q65 0 108 -24t76 -50q26 -19 62.5 -44t74.5 -25q29 0 53 30t44 107h127
z" />
    <glyph glyph-name="hungarumlaut" unicode="&#x2dd;" horiz-adv-x="1024" 
d="M733 1219h-129l268 327h228zM369 1219h-129l268 327h227z" />
    <glyph glyph-name="commaaccent" unicode="&#x326;" horiz-adv-x="514" 
d="M31 -471h-90l92 385h176z" />
    <glyph glyph-name="tonos" unicode="&#x384;" horiz-adv-x="1024" 
d="M582 1219h-138l269 327h235z" />
    <glyph glyph-name="dieresistonos" unicode="&#x385;" horiz-adv-x="1024" 
d="M977 1327q0 -23 -9 -43.5t-24.5 -36t-36 -24.5t-43.5 -9t-43.5 9t-35.5 24.5t-24 36t-9 43.5t9 44t24 36.5t35.5 25t43.5 9.5t43.5 -9.5t36 -25t24.5 -36.5t9 -44zM416 1327q0 -23 -9 -43.5t-24 -36t-35.5 -24.5t-42.5 -9q-24 0 -44.5 9t-36.5 24.5t-25 36t-9 43.5t9 44
t25 36.5t36.5 25t44.5 9.5q22 0 42.5 -9.5t35.5 -25t24 -36.5t9 -44zM553 1239h-121l230 328h219z" />
    <glyph glyph-name="Alphatonos" unicode="&#x386;" horiz-adv-x="1380" 
d="M983 0l-57 365h-588l-186 -365h-168l747 1434h176l240 -1434h-164zM790 1245l-378 -735h491zM174 1109h-138l269 327h235z" />
    <glyph glyph-name="Epsilontonos" unicode="&#x388;" horiz-adv-x="1194" 
d="M61 0l254 1434h856l-24 -146h-698l-80 -450h563l-25 -146h-563l-96 -547h729l-27 -145h-889zM-133 1109h-138l269 327h235z" />
    <glyph glyph-name="Etatonos" unicode="&#x389;" horiz-adv-x="1401" 
d="M1085 0h-159l121 676h-705l-121 -676h-160l254 1434h160l-108 -613h704l109 613h159zM-133 1109h-138l269 327h235z" />
    <glyph glyph-name="Iotatonos" unicode="&#x38a;" horiz-adv-x="557" 
d="M231 0h-159l254 1434h159zM-133 1109h-138l269 327h235z" />
    <glyph glyph-name="Omicrontonos" unicode="&#x38c;" horiz-adv-x="1436" 
d="M1325 881q0 -126 -24.5 -241.5t-70 -216t-109.5 -183t-142.5 -141t-170 -90.5t-190.5 -32q-117 0 -210.5 40.5t-159.5 115.5t-101.5 181.5t-35.5 238.5q0 125 24.5 241t70 216.5t109.5 182.5t142.5 140.5t169.5 90.5t190 32q117 0 211 -40.5t160 -115t101.5 -181
t35.5 -238.5zM1165 852q0 104 -24 189t-71 145t-116 92.5t-160 32.5q-106 0 -202 -57t-167.5 -155.5t-113 -231.5t-41.5 -285q0 -105 24 -189.5t71.5 -144.5t116.5 -92.5t159 -32.5q108 0 203 57t166.5 155.5t113 231.5t41.5 285zM-51 1109h-138l269 327h235z" />
    <glyph glyph-name="Upsilontonos" unicode="&#x38e;" horiz-adv-x="1327" 
d="M711 561l-99 -561h-159l102 575l-334 859h176l268 -710l509 710h182zM-174 1109h-138l269 327h235z" />
    <glyph glyph-name="Omegatonos" unicode="&#x38f;" horiz-adv-x="1475" 
d="M770 145q88 73 166 147t135.5 162t91 195.5t33.5 247.5q0 100 -29.5 177.5t-80 130t-117.5 79.5t-142 27q-104 0 -201.5 -41.5t-172.5 -123.5t-120.5 -202.5t-45.5 -279.5q0 -78 17.5 -147.5t50 -132.5t78.5 -122t104 -117l-21 -145h-473l20 145h291q-62 59 -100.5 110.5
t-69.5 122.5t-45 140t-14 141q0 120 28 226t77.5 194.5t117 158.5t147 118.5t167.5 74t178 25.5q117 0 213 -40t164.5 -114t105.5 -178.5t37 -234.5q0 -111 -28 -215.5t-81 -200t-129.5 -178.5t-173.5 -150h295l-20 -145h-473zM-30 1109h-138l269 327h235z" />
    <glyph glyph-name="iotadieresistonos" unicode="&#x390;" horiz-adv-x="514" 
d="M207 0h-154l191 1075h153zM793 1327q0 -23 -9 -43.5t-24.5 -36t-36 -24.5t-43.5 -9t-43.5 9t-35.5 24.5t-24 36t-9 43.5t9 44t24 36.5t35.5 25t43.5 9.5t43.5 -9.5t36 -25t24.5 -36.5t9 -44zM232 1327q0 -23 -9 -43.5t-24 -36t-35.5 -24.5t-42.5 -9q-24 0 -44.5 9
t-36.5 24.5t-25 36t-9 43.5t9 44t25 36.5t36.5 25t44.5 9.5q22 0 42.5 -9.5t35.5 -25t24 -36.5t9 -44zM369 1239h-121l230 328h219z" />
    <glyph glyph-name="Alpha" unicode="&#x391;" horiz-adv-x="1380" 
d="M983 0l-57 365h-588l-186 -365h-168l747 1434h176l240 -1434h-164zM790 1245l-378 -735h491z" />
    <glyph glyph-name="Beta" unicode="&#x392;" horiz-adv-x="1274" 
d="M1176 1104q0 -68 -19.5 -122t-55 -96t-83.5 -72t-105 -48q106 -37 160.5 -114.5t54.5 -194.5q0 -109 -39.5 -194t-112 -143.5t-174 -89t-224.5 -30.5h-517l254 1434h424q99 0 180 -19t138 -59.5t88 -102.5t31 -149zM1016 1098q0 97 -70 143.5t-217 46.5h-280l-78 -446
h356q132 0 210.5 70.5t78.5 185.5zM969 453q0 118 -78.5 181.5t-216.5 63.5h-330l-96 -553h370q81 0 146 19.5t110.5 58.5t70 96.5t24.5 133.5z" />
    <glyph glyph-name="Gamma" unicode="&#x393;" horiz-adv-x="1063" 
d="M449 1288l-228 -1288h-160l252 1434h801l-24 -146h-641z" />
    <glyph glyph-name="uni0394" unicode="&#x394;" horiz-adv-x="1397" 
d="M-29 0l772 1434h172l261 -1434h-1205zM794 1250l-575 -1105h766z" />
    <glyph glyph-name="Epsilon" unicode="&#x395;" horiz-adv-x="1194" 
d="M61 0l254 1434h856l-24 -146h-698l-80 -450h563l-25 -146h-563l-96 -547h729l-27 -145h-889z" />
    <glyph glyph-name="Zeta" unicode="&#x396;" horiz-adv-x="1278" 
d="M1243 1294l-1026 -1155h821l-24 -139h-1016l25 139l1026 1155h-781l25 140h975z" />
    <glyph glyph-name="Eta" unicode="&#x397;" horiz-adv-x="1401" 
d="M1085 0h-159l121 676h-705l-121 -676h-160l254 1434h160l-108 -613h704l109 613h159z" />
    <glyph glyph-name="Theta" unicode="&#x398;" horiz-adv-x="1460" 
d="M1350 881q0 -125 -25.5 -241t-72.5 -216.5t-112.5 -183t-145.5 -141t-172 -90.5t-191 -32q-117 0 -213 40.5t-164 115.5t-105.5 181.5t-37.5 238.5q0 125 25.5 241t72.5 216.5t112.5 182.5t145 140.5t171.5 90.5t191 32q117 0 213 -40.5t164.5 -115t106 -181t37.5 -238.5
zM1190 852q0 104 -26 189t-75.5 145t-120.5 92.5t-161 32.5q-72 0 -139.5 -26t-127 -73t-109.5 -113.5t-85.5 -147.5t-55.5 -174.5t-20 -194.5q0 -105 26 -189.5t75.5 -144.5t120.5 -92.5t161 -32.5q72 0 139.5 26t127 73t109.5 113.5t85.5 147.5t55.5 174t20 195zM510 821
h498l-25 -145h-498z" />
    <glyph glyph-name="Iota" unicode="&#x399;" horiz-adv-x="557" 
d="M231 0h-159l254 1434h159z" />
    <glyph glyph-name="Kappa" unicode="&#x39a;" horiz-adv-x="1307" 
d="M754 895l338 -895h-170l-289 772l-338 -360l-74 -412h-160l254 1434h160l-139 -794l745 794h183z" />
    <glyph glyph-name="Lambda" unicode="&#x39b;" horiz-adv-x="1356" 
d="M773 1236l-615 -1236h-168l729 1434h176l221 -1434h-160z" />
    <glyph glyph-name="Mu" unicode="&#x39c;" horiz-adv-x="1606" 
d="M1290 0h-153l193 1101l-664 -1138l-256 1138l-195 -1101h-154l254 1434h174l241 -1120l636 1120h178z" />
    <glyph glyph-name="Nu" unicode="&#x39d;" horiz-adv-x="1401" 
d="M1085 0h-149l-511 1181l-210 -1181h-154l254 1434h156l506 -1170l209 1170h153z" />
    <glyph glyph-name="Xi" unicode="&#x39e;" horiz-adv-x="1229" 
d="M16 0l25 145h397l97 547h-250l26 146h250l80 450h-385l25 146h925l-24 -146h-381l-80 -450h250l-27 -146h-250l-96 -547h401l-24 -145h-959z" />
    <glyph glyph-name="Omicron" unicode="&#x39f;" horiz-adv-x="1436" 
d="M1325 881q0 -126 -24.5 -241.5t-70 -216t-109.5 -183t-142.5 -141t-170 -90.5t-190.5 -32q-117 0 -210.5 40.5t-159.5 115.5t-101.5 181.5t-35.5 238.5q0 125 24.5 241t70 216.5t109.5 182.5t142.5 140.5t169.5 90.5t190 32q117 0 211 -40.5t160 -115t101.5 -181
t35.5 -238.5zM1165 852q0 104 -24 189t-71 145t-116 92.5t-160 32.5q-106 0 -202 -57t-167.5 -155.5t-113 -231.5t-41.5 -285q0 -105 24 -189.5t71.5 -144.5t116.5 -92.5t159 -32.5q108 0 203 57t166.5 155.5t113 231.5t41.5 285z" />
    <glyph glyph-name="Pi" unicode="&#x3a0;" horiz-adv-x="1376" 
d="M903 0l227 1288h-681l-228 -1288h-160l252 1434h1002l-252 -1434h-160z" />
    <glyph glyph-name="Rho" unicode="&#x3a1;" horiz-adv-x="1257" 
d="M1217 1065q0 -129 -45 -223.5t-124 -156.5t-186 -92t-231 -30h-309l-101 -563h-160l254 1434h424q100 0 187.5 -21.5t152 -66.5t101.5 -114.5t37 -166.5zM1053 1042q0 67 -22.5 114t-64.5 76t-102 42.5t-135 13.5h-280l-103 -579h303q104 0 180 24t127 69t74 106.5
t23 133.5z" />
    <glyph glyph-name="Sigma" unicode="&#x3a3;" horiz-adv-x="1255" 
d="M434 1294l389 -546l-620 -609h837l-24 -139h-1018l22 139l617 611l-385 544l24 140h967l-24 -140h-785z" />
    <glyph glyph-name="Tau" unicode="&#x3a4;" horiz-adv-x="1196" 
d="M1194 1288h-416l-227 -1288h-160l227 1288h-419l26 146h996z" />
    <glyph glyph-name="Upsilon" unicode="&#x3a5;" horiz-adv-x="1327" 
d="M711 561l-99 -561h-159l102 575l-334 859h176l268 -710l509 710h182z" />
    <glyph glyph-name="Phi" unicode="&#x3a6;" horiz-adv-x="1632" 
d="M997 1305q118 -9 215.5 -46t166.5 -98.5t107 -147t38 -192.5q0 -147 -49.5 -266t-143.5 -205t-229 -135t-307 -55l-29 -160h-160l29 162q-127 12 -225 50.5t-165 100t-101.5 145t-34.5 187.5q0 131 35.5 231.5t94.5 173.5t135 122.5t157 79t161 42t146 13.5l22 127h160z
M1362 803q0 81 -28 145t-79 110t-123 74t-159 39l-154 -876q100 4 197 36.5t174 94.5t124.5 155.5t47.5 221.5zM268 663q0 -81 28 -145t79.5 -110t124 -73.5t159.5 -37.5l156 877q-100 -4 -198.5 -39t-175.5 -94.5t-125 -154.5t-48 -223z" />
    <glyph glyph-name="Chi" unicode="&#x3a7;" horiz-adv-x="1286" 
d="M174 0h-184l573 752l-284 682h167l222 -556l405 556h184l-524 -691l309 -743h-168l-244 614z" />
    <glyph glyph-name="Psi" unicode="&#x3a8;" horiz-adv-x="1444" 
d="M504 0l61 354q-114 5 -195.5 40t-134 92t-77.5 132t-25 160q0 26 2.5 57.5t7.5 59.5l95 539h159l-94 -537q-3 -22 -5.5 -50t-2.5 -48q0 -63 17.5 -118t53.5 -96.5t91.5 -66t132.5 -26.5l166 942h159l-165 -945q99 5 172.5 33t125 77t83.5 118.5t47 156.5l98 560h160
l-99 -570q-19 -112 -59.5 -204t-112.5 -158.5t-179.5 -104.5t-260.5 -43l-61 -354h-160z" />
    <glyph glyph-name="uni03A9" unicode="&#x3a9;" horiz-adv-x="1475" 
d="M770 145q88 73 166 147t135.5 162t91 195.5t33.5 247.5q0 100 -29.5 177.5t-80 130t-117.5 79.5t-142 27q-104 0 -201.5 -41.5t-172.5 -123.5t-120.5 -202.5t-45.5 -279.5q0 -78 17.5 -147.5t50 -132.5t78.5 -122t104 -117l-21 -145h-473l20 145h291q-62 59 -100.5 110.5
t-69.5 122.5t-45 140t-14 141q0 120 28 226t77.5 194.5t117 158.5t147 118.5t167.5 74t178 25.5q117 0 213 -40t164.5 -114t105.5 -178.5t37 -234.5q0 -111 -28 -215.5t-81 -200t-129.5 -178.5t-173.5 -150h295l-20 -145h-473z" />
    <glyph glyph-name="Iotadieresis" unicode="&#x3aa;" horiz-adv-x="557" 
d="M231 0h-159l254 1434h159zM754 1663q0 -23 -9 -43.5t-24.5 -36t-36 -24.5t-43.5 -9t-43.5 9t-35.5 24.5t-24 36t-9 43.5t9 43.5t24 36.5t35.5 25t43.5 9t43.5 -9t36 -25t24.5 -36.5t9 -43.5zM357 1663q0 -23 -9 -43.5t-24.5 -36t-35.5 -24.5t-42 -9q-24 0 -44.5 9
t-36.5 24.5t-25 36t-9 43.5t9 43.5t25 36.5t36.5 25t44.5 9q22 0 42 -9t35.5 -25t24.5 -36.5t9 -43.5z" />
    <glyph glyph-name="Upsilondieresis" unicode="&#x3ab;" horiz-adv-x="1327" 
d="M711 561l-99 -561h-159l102 575l-334 859h176l268 -710l509 710h182zM1116 1635q0 -23 -9 -43.5t-24.5 -36t-36 -24.5t-43.5 -9t-43.5 9t-35.5 24.5t-24 36t-9 43.5t9 43.5t24 36.5t35.5 25t43.5 9t43.5 -9t36 -25t24.5 -36.5t9 -43.5zM719 1635q0 -23 -9 -43.5
t-24.5 -36t-35.5 -24.5t-42 -9q-24 0 -44.5 9t-36.5 24.5t-25 36t-9 43.5t9 43.5t25 36.5t36.5 25t44.5 9q22 0 42 -9t35.5 -25t24.5 -36.5t9 -43.5z" />
    <glyph glyph-name="alphatonos" unicode="&#x3ac;" horiz-adv-x="1137" 
d="M551 1098q93 0 166 -39t135 -127l27 143h151l-188 -1075h-156l21 113q-76 -73 -145 -104.5t-148 -31.5q-72 0 -135 26.5t-110.5 80t-75 134.5t-27.5 190q0 164 38.5 292.5t104.5 217t154 134.5t188 46zM825 780q-20 40 -46 74t-60 58.5t-76.5 38.5t-95.5 14
q-71 0 -131 -35.5t-104 -104t-68.5 -169.5t-24.5 -232q0 -152 62 -232.5t180 -80.5q38 0 72 9.5t66 27.5t64.5 44t67.5 60zM711 1219h-138l269 327h235z" />
    <glyph glyph-name="epsilontonos" unicode="&#x3ad;" horiz-adv-x="1040" 
d="M885 111q-97 -63 -205 -98.5t-236 -35.5q-182 0 -278 67.5t-96 201.5q0 56 20.5 110t58 98.5t90 76t115.5 42.5q-41 10 -73 30.5t-54.5 48t-34.5 61t-12 69.5q0 54 25.5 110t78 102t132.5 75t190 29q64 0 121.5 -10t106 -26.5t87 -38.5t66.5 -46l-90 -115
q-62 51 -133.5 77t-165.5 26q-75 0 -126 -17t-82 -44t-44.5 -60.5t-13.5 -65.5q0 -27 11.5 -53.5t35.5 -47.5t62 -33.5t91 -12.5h226l-19 -125h-262q-50 0 -95.5 -18.5t-80.5 -50.5t-55.5 -75.5t-20.5 -93.5q0 -74 56.5 -115.5t171.5 -41.5q96 0 190.5 30.5t179.5 85.5z
M735 1219h-138l269 327h235z" />
    <glyph glyph-name="etatonos" unicode="&#x3ae;" horiz-adv-x="1153" 
d="M808 -309l-170 -86l181 1013q5 29 7.5 60t2.5 57q0 115 -49.5 174.5t-158.5 59.5q-56 0 -106.5 -24.5t-91.5 -70t-72 -113t-46 -153.5l-108 -608h-154l190 1075h152l-18 -121q57 67 129 105.5t166 38.5q153 0 240 -89.5t87 -244.5q0 -29 -3 -63t-9 -66zM729 1219h-138
l269 327h235z" />
    <glyph glyph-name="iotatonos" unicode="&#x3af;" horiz-adv-x="514" 
d="M207 0h-154l191 1075h153zM410 1219h-138l269 327h235z" />
    <glyph glyph-name="upsilondieresistonos" unicode="&#x3b0;" horiz-adv-x="1147" 
d="M932 442q-18 -101 -49.5 -186t-85.5 -147t-133.5 -97t-192.5 -35q-86 0 -154.5 22t-116 64t-73 103t-25.5 139q0 47 8 106t19 119l96 545h154l-105 -592q-6 -37 -11 -73t-5 -70q0 -48 9.5 -90t35 -73t69.5 -48.5t113 -17.5q64 0 112 20t83.5 59.5t58.5 98t37 135.5
l115 651h153zM1106 1327q0 -23 -9 -43.5t-24.5 -36t-36 -24.5t-43.5 -9t-43.5 9t-35.5 24.5t-24 36t-9 43.5t9 44t24 36.5t35.5 25t43.5 9.5t43.5 -9.5t36 -25t24.5 -36.5t9 -44zM545 1327q0 -23 -9 -43.5t-24 -36t-35.5 -24.5t-42.5 -9q-24 0 -44.5 9t-36.5 24.5t-25 36
t-9 43.5t9 44t25 36.5t36.5 25t44.5 9.5q22 0 42.5 -9.5t35.5 -25t24 -36.5t9 -44zM682 1239h-121l230 328h219z" />
    <glyph glyph-name="alpha" unicode="&#x3b1;" horiz-adv-x="1137" 
d="M551 1098q93 0 166 -39t135 -127l27 143h151l-188 -1075h-156l21 113q-76 -73 -145 -104.5t-148 -31.5q-72 0 -135 26.5t-110.5 80t-75 134.5t-27.5 190q0 164 38.5 292.5t104.5 217t154 134.5t188 46zM825 780q-20 40 -46 74t-60 58.5t-76.5 38.5t-95.5 14
q-71 0 -131 -35.5t-104 -104t-68.5 -169.5t-24.5 -232q0 -152 62 -232.5t180 -80.5q38 0 72 9.5t66 27.5t64.5 44t67.5 60z" />
    <glyph glyph-name="beta" unicode="&#x3b2;" horiz-adv-x="1137" 
d="M516 -20q-110 0 -184.5 35t-118.5 87l-72 -411l-170 -86l258 1458q21 116 60.5 196.5t96 131t127.5 73.5t155 23q81 0 143.5 -23t104.5 -63.5t63.5 -96t21.5 -120.5q0 -74 -19.5 -135t-53.5 -108t-80 -79.5t-98 -48.5q57 -14 104.5 -44t81.5 -72.5t53 -96.5t19 -115
q0 -107 -36 -199.5t-101 -160.5t-155.5 -106.5t-199.5 -38.5zM504 113q81 0 145.5 24t110 70.5t70 113.5t24.5 154q0 124 -74.5 193t-234.5 69h-39l24 133h21q76 0 132 25t92.5 66.5t54.5 95.5t18 112q0 39 -12.5 73t-37 59t-60 39t-81.5 14q-54 0 -98.5 -15.5t-79 -49.5
t-58.5 -88t-38 -132l-147 -840q58 -59 130.5 -87.5t137.5 -28.5z" />
    <glyph glyph-name="gamma" unicode="&#x3b3;" horiz-adv-x="1044" 
d="M473 0l-53 -309l-170 -86l69 395l-174 1075h164l115 -921l444 921h158z" />
    <glyph glyph-name="delta" unicode="&#x3b4;" horiz-adv-x="1149" 
d="M690 920q-96 0 -166.5 -24.5t-120.5 -64.5t-81.5 -91t-49 -104.5t-24 -104.5t-6.5 -91q0 -76 19.5 -137t56.5 -103.5t90 -65.5t120 -23q56 0 103.5 20.5t86.5 55.5t68.5 82t49.5 100.5t30.5 110t10.5 110.5q0 57 -11 105t-29 88t-40.5 72.5t-46.5 59.5q-16 2 -31 3.5
t-29 1.5zM565 1333l269 -303q33 -37 67.5 -79.5t63 -94t47 -113t18.5 -135.5q0 -67 -13.5 -139.5t-41 -142.5t-70 -133.5t-100 -111t-131 -76t-162.5 -28.5q-104 0 -183.5 34.5t-133.5 95.5t-81.5 144t-27.5 181q0 151 48.5 262t126.5 184t175 108.5t213 35.5l-280 311
l24 131h699l-25 -131h-502z" />
    <glyph glyph-name="epsilon" unicode="&#x3b5;" horiz-adv-x="1040" 
d="M885 111q-97 -63 -205 -98.5t-236 -35.5q-182 0 -278 67.5t-96 201.5q0 56 20.5 110t58 98.5t90 76t115.5 42.5q-41 10 -73 30.5t-54.5 48t-34.5 61t-12 69.5q0 54 25.5 110t78 102t132.5 75t190 29q64 0 121.5 -10t106 -26.5t87 -38.5t66.5 -46l-90 -115
q-62 51 -133.5 77t-165.5 26q-75 0 -126 -17t-82 -44t-44.5 -60.5t-13.5 -65.5q0 -27 11.5 -53.5t35.5 -47.5t62 -33.5t91 -12.5h226l-19 -125h-262q-50 0 -95.5 -18.5t-80.5 -50.5t-55.5 -75.5t-20.5 -93.5q0 -74 56.5 -115.5t171.5 -41.5q96 0 190.5 30.5t179.5 85.5z" />
    <glyph glyph-name="zeta" unicode="&#x3b6;" horiz-adv-x="983" 
d="M864 1321h-565l25 143h741l-23 -137q-190 -123 -341.5 -248.5t-257 -248.5t-162 -241.5t-56.5 -226.5q0 -73 22 -117t57.5 -68t81 -32t93.5 -8h203q68 0 111 -42t43 -105q0 -53 -18.5 -100t-47.5 -88.5t-66.5 -78t-74.5 -67.5l-90 72q68 58 108.5 112.5t40.5 102.5
q0 32 -21 44.5t-63 12.5h-139q-88 0 -160.5 17.5t-124.5 57t-81 103.5t-29 156q0 97 32.5 192.5t89 186t133 175.5t165 162.5t184 145.5t190.5 125z" />
    <glyph glyph-name="eta" unicode="&#x3b7;" horiz-adv-x="1153" 
d="M808 -309l-170 -86l181 1013q5 29 7.5 60t2.5 57q0 115 -49.5 174.5t-158.5 59.5q-56 0 -106.5 -24.5t-91.5 -70t-72 -113t-46 -153.5l-108 -608h-154l190 1075h152l-18 -121q57 67 129 105.5t166 38.5q153 0 240 -89.5t87 -244.5q0 -29 -3 -63t-9 -66z" />
    <glyph glyph-name="theta" unicode="&#x3b8;" horiz-adv-x="1161" 
d="M702 1487q94 0 161 -33.5t110 -94t63.5 -145t20.5 -186.5q0 -72 -8.5 -155t-20.5 -158q-39 -205 -76 -307t-99.5 -202t-161 -164.5t-224.5 -64.5q-94 0 -161 34t-110.5 95t-64 146.5t-20.5 189.5q0 72 7 155t21 159q32 176 83 302.5t117.5 220.5t159 151t203.5 57z
M692 1354q-83 0 -143.5 -43t-105 -117t-76 -173t-56.5 -210h576q3 24 9.5 104t6.5 115q0 72 -10 131.5t-34 102t-65 66.5t-102 24zM287 682q-10 -54 -15.5 -110t-5.5 -132q0 -72 10 -132.5t34.5 -104t65 -68t101.5 -24.5q87 0 149.5 46t107.5 124.5t76.5 182t55.5 218.5
h-579z" />
    <glyph glyph-name="iota" unicode="&#x3b9;" horiz-adv-x="514" 
d="M207 0h-154l191 1075h153z" />
    <glyph glyph-name="kappa" unicode="&#x3ba;" horiz-adv-x="1049" 
d="M807 1075h176l-383 -399l258 -676h-162l-211 555l-233 -246l-55 -309h-154l190 1075h154l-98 -553z" />
    <glyph glyph-name="lambda" unicode="&#x3bb;" horiz-adv-x="1085" 
d="M601 835l-478 -835h-152l598 1032l-51 244q-8 40 -28 56t-70 16q-31 0 -63 -8.5t-58 -22.5l25 143q21 9 59 18t68 9q43 0 76.5 -9t58.5 -29.5t41.5 -54.5t25.5 -85l248 -1309h-147z" />
    <glyph glyph-name="uni03BC" unicode="&#x3bc;" horiz-adv-x="1159" 
d="M862 0h-151l18 121q-26 -30 -56 -56.5t-65.5 -46t-78.5 -30.5t-95 -11q-63 0 -117.5 16t-110.5 63l-65 -365l-170 -86l262 1470h154l-111 -618q-5 -29 -7.5 -60t-2.5 -57q0 -115 50 -174.5t159 -59.5q55 0 106 24t92.5 70.5t72 113.5t45.5 153l108 608h154z" />
    <glyph glyph-name="nu" unicode="&#x3bd;" horiz-adv-x="1061" 
d="M469 0h-135l-189 1075h160l130 -896l444 896h163z" />
    <glyph glyph-name="xi" unicode="&#x3be;" horiz-adv-x="989" 
d="M504 1333h-197l23 131h747l-22 -131h-262q-71 0 -140.5 -15.5t-124 -49.5t-88.5 -88t-34 -131q0 -42 14 -78.5t42 -64.5t69.5 -44t97.5 -16h229l-22 -125h-230q-95 0 -166.5 -32.5t-119 -85.5t-71.5 -120t-24 -137q0 -102 69 -155.5t189 -53.5h199q61 0 107.5 -39.5
t46.5 -107.5q0 -53 -18.5 -100t-47.5 -88.5t-66.5 -78t-74.5 -67.5l-90 72q74 63 111.5 117.5t37.5 97.5q0 29 -18 43t-66 14h-145q-88 0 -159.5 23t-122.5 66.5t-79 106.5t-28 144q0 80 28 154t77.5 134t118.5 103t150 60q-42 11 -77 33t-60 54t-39 73t-14 91
q0 62 21.5 111t56.5 85.5t80 60t92 34.5z" />
    <glyph glyph-name="omicron" unicode="&#x3bf;" horiz-adv-x="1151" 
d="M86 436q0 154 42.5 276.5t113.5 208t164.5 131.5t195.5 46q97 0 176.5 -32t135 -91.5t86 -144.5t30.5 -191q0 -154 -42.5 -276.5t-113.5 -208t-164.5 -131.5t-195.5 -46q-98 0 -177 32t-134.5 91.5t-86 144.5t-30.5 191zM242 440q0 -80 19.5 -141.5t58 -104.5t92.5 -63
t116 -20q76 0 139.5 39t109.5 108.5t71.5 166t25.5 210.5q0 70 -17 131.5t-54.5 107t-92.5 68.5t-122 23q-76 0 -139.5 -39t-109.5 -109t-71.5 -166.5t-25.5 -210.5z" />
    <glyph glyph-name="pi" unicode="&#x3c0;" horiz-adv-x="1237" 
d="M147 1075h1074l-23 -129h-133l-168 -946h-154l168 946h-499l-168 -946h-154l168 946h-133z" />
    <glyph glyph-name="rho" unicode="&#x3c1;" horiz-adv-x="1100" 
d="M979 672q0 -67 -10.5 -145t-34 -155t-60.5 -148.5t-90.5 -126t-124 -87.5t-159.5 -33q-56 0 -101.5 12.5t-83 34.5t-68.5 52.5t-57 66.5l-79 -452l-170 -86l172 973q29 169 91 279t134 159.5t134 65.5t128 16q82 0 151.5 -23.5t120 -74.5t79 -132t28.5 -196zM827 676
q0 147 -58 218t-177 71q-136 0 -214.5 -94.5t-113.5 -307.5l-47 -268q20 -42 46 -76t60 -58t77 -37t96 -13q68 0 119.5 29t88 76.5t60.5 108t38 123.5t19.5 122.5t5.5 105.5z" />
    <glyph glyph-name="sigma1" unicode="&#x3c2;" horiz-adv-x="1006" 
d="M422 -272q89 74 123.5 118.5t34.5 77.5q0 25 -17 47t-46.5 42t-68.5 38.5t-83 36.5q-56 22 -106.5 56t-88.5 83.5t-61 116t-23 154.5q0 109 34.5 216.5t102 195.5t163 138t212.5 50q65 0 116.5 -11.5t93.5 -31.5t75.5 -46.5t62.5 -56.5l-106 -108q-24 26 -49 48t-54 38.5
t-64 25.5t-79 9q-85 0 -150.5 -42t-109.5 -108t-67 -146.5t-23 -158.5q0 -66 15 -113.5t41.5 -82.5t62.5 -59.5t79 -45.5q52 -26 103 -46.5t91 -45t64.5 -58t24.5 -84.5q0 -47 -18 -89.5t-47.5 -81.5t-68 -76t-79.5 -72z" />
    <glyph glyph-name="sigma" unicode="&#x3c3;" horiz-adv-x="1182" 
d="M645 946q-101 0 -176.5 -39.5t-125.5 -109t-75.5 -164t-25.5 -203.5q0 -79 21.5 -139t59.5 -100t89.5 -60t111.5 -20q92 0 162.5 50.5t114 141t58.5 179.5t15 169q0 102 -28.5 174.5t-79.5 120.5h-121zM903 946q58 -57 92.5 -137t34.5 -182q0 -112 -31 -225t-100 -213.5
t-168 -156t-221 -55.5q-93 0 -171 31t-134 89.5t-87.5 143t-31.5 191.5q0 157 46 277t124 201.5t180.5 123t214.5 41.5h477l-24 -129h-201z" />
    <glyph glyph-name="tau" unicode="&#x3c4;" horiz-adv-x="924" 
d="M535 946l-117 -670q-2 -8 -6 -38.5t-4 -44.5q0 -42 22 -61t80 -19q37 0 71 4.5t76 21.5l-36 -135q-23 -8 -42 -13.5t-37 -8.5t-36.5 -4t-42.5 -1q-37 0 -75 7t-69 27t-51 55.5t-20 91.5q0 20 6 62t8 50l119 676h-309l22 129h785l-23 -129h-321z" />
    <glyph glyph-name="upsilon" unicode="&#x3c5;" horiz-adv-x="1147" 
d="M932 442q-18 -101 -49.5 -186t-85.5 -147t-133.5 -97t-192.5 -35q-86 0 -154.5 22t-116 64t-73 103t-25.5 139q0 47 8 106t19 119l96 545h154l-105 -592q-6 -37 -11 -73t-5 -70q0 -48 9.5 -90t35 -73t69.5 -48.5t113 -17.5q64 0 112 20t83.5 59.5t58.5 98t37 135.5
l115 651h153z" />
    <glyph glyph-name="phi" unicode="&#x3c6;" horiz-adv-x="1427" 
d="M520 -16q-87 9 -166 40.5t-138.5 87.5t-94.5 137t-35 189q0 148 52 268t139.5 204.5t201 132t236.5 51.5l39 219l170 88l-56 -309q87 -8 166.5 -39t140 -87t96.5 -138t36 -191q0 -147 -52.5 -267t-140.5 -205.5t-202 -133.5t-238 -49l-51 -291l-170 -86zM244 449
q0 -84 24.5 -145t65.5 -102t95.5 -63.5t113.5 -29.5l149 858q-87 0 -167.5 -39.5t-143 -109t-100 -164.5t-37.5 -205zM1151 619q0 84 -27 148t-70.5 105.5t-96.5 64t-111 28.5l-150 -856q86 0 169 39t147 106t101.5 161t37.5 204z" />
    <glyph glyph-name="chi" unicode="&#x3c7;" horiz-adv-x="1069" 
d="M521 664l317 411h172l-424 -518l256 -557h-162l-192 445l-343 -445h-172l455 553l-244 522h162z" />
    <glyph glyph-name="psi" unicode="&#x3c8;" horiz-adv-x="1452" 
d="M453 -395l67 377q-99 1 -176.5 31.5t-131.5 83.5t-82 124.5t-28 155.5q0 28 3 55.5t8 56.5l104 586h154l-103 -579q-3 -17 -5.5 -42.5t-2.5 -54.5q0 -58 16 -109t50 -90t88 -63t129 -28l211 1204l170 88l-228 -1292q107 6 179 38.5t119 84t72.5 119.5t39.5 145l102 579
h154l-102 -577q-20 -111 -60 -205t-108.5 -162t-170.5 -107.5t-247 -41.5l-51 -291z" />
    <glyph glyph-name="omega" unicode="&#x3c9;" horiz-adv-x="1483" 
d="M852 737l-76 -399q-3 -16 -5.5 -36.5t-2.5 -33.5q0 -44 12.5 -74t34.5 -48.5t52 -26.5t65 -8q73 0 126.5 48t84.5 120t46 155t15 154q0 72 -14 136t-39.5 123t-62 115t-80.5 113h174q81 -97 129.5 -220t48.5 -265q0 -101 -24 -204t-76 -197.5t-139 -153t-201 -58.5
q-53 0 -95.5 14.5t-74 38t-51.5 53.5t-27 62q-18 -33 -45 -63.5t-62.5 -53.5t-79 -37t-94.5 -14q-84 0 -144 29t-98.5 79.5t-56.5 118.5t-18 146q0 111 22 208.5t65 185.5t106 169.5t145 161.5h174q-75 -68 -140.5 -149.5t-113.5 -173t-75.5 -192t-27.5 -208.5
q0 -118 42.5 -179.5t129.5 -61.5q83 0 140 54t82 173l75 399h154z" />
    <glyph glyph-name="iotadieresis" unicode="&#x3ca;" horiz-adv-x="514" 
d="M207 0h-154l191 1075h153zM672 1348q0 -23 -9 -43.5t-24.5 -36t-36 -24.5t-43.5 -9t-43.5 9t-35.5 24.5t-24 36t-9 43.5t9 43.5t24 36.5t35.5 25t43.5 9t43.5 -9t36 -25t24.5 -36.5t9 -43.5zM275 1348q0 -23 -9 -43.5t-24.5 -36t-35.5 -24.5t-42 -9q-24 0 -44.5 9
t-36.5 24.5t-25 36t-9 43.5t9 43.5t25 36.5t36.5 25t44.5 9q22 0 42 -9t35.5 -25t24.5 -36.5t9 -43.5z" />
    <glyph glyph-name="upsilondieresis" unicode="&#x3cb;" horiz-adv-x="1147" 
d="M932 442q-18 -101 -49.5 -186t-85.5 -147t-133.5 -97t-192.5 -35q-86 0 -154.5 22t-116 64t-73 103t-25.5 139q0 47 8 106t19 119l96 545h154l-105 -592q-6 -37 -11 -73t-5 -70q0 -48 9.5 -90t35 -73t69.5 -48.5t113 -17.5q64 0 112 20t83.5 59.5t58.5 98t37 135.5
l115 651h153zM989 1348q0 -23 -9 -43.5t-24.5 -36t-36 -24.5t-43.5 -9t-43.5 9t-35.5 24.5t-24 36t-9 43.5t9 43.5t24 36.5t35.5 25t43.5 9t43.5 -9t36 -25t24.5 -36.5t9 -43.5zM592 1348q0 -23 -9 -43.5t-24.5 -36t-35.5 -24.5t-42 -9q-24 0 -44.5 9t-36.5 24.5t-25 36
t-9 43.5t9 43.5t25 36.5t36.5 25t44.5 9q22 0 42 -9t35.5 -25t24.5 -36.5t9 -43.5z" />
    <glyph glyph-name="omicrontonos" unicode="&#x3cc;" horiz-adv-x="1151" 
d="M86 436q0 154 42.5 276.5t113.5 208t164.5 131.5t195.5 46q97 0 176.5 -32t135 -91.5t86 -144.5t30.5 -191q0 -154 -42.5 -276.5t-113.5 -208t-164.5 -131.5t-195.5 -46q-98 0 -177 32t-134.5 91.5t-86 144.5t-30.5 191zM242 440q0 -80 19.5 -141.5t58 -104.5t92.5 -63
t116 -20q76 0 139.5 39t109.5 108.5t71.5 166t25.5 210.5q0 70 -17 131.5t-54.5 107t-92.5 68.5t-122 23q-76 0 -139.5 -39t-109.5 -109t-71.5 -166.5t-25.5 -210.5zM691 1219h-138l269 327h235z" />
    <glyph glyph-name="upsilontonos" unicode="&#x3cd;" horiz-adv-x="1147" 
d="M932 442q-18 -101 -49.5 -186t-85.5 -147t-133.5 -97t-192.5 -35q-86 0 -154.5 22t-116 64t-73 103t-25.5 139q0 47 8 106t19 119l96 545h154l-105 -592q-6 -37 -11 -73t-5 -70q0 -48 9.5 -90t35 -73t69.5 -48.5t113 -17.5q64 0 112 20t83.5 59.5t58.5 98t37 135.5
l115 651h153zM703 1219h-138l269 327h235z" />
    <glyph glyph-name="omegatonos" unicode="&#x3ce;" horiz-adv-x="1483" 
d="M852 737l-76 -399q-3 -16 -5.5 -36.5t-2.5 -33.5q0 -44 12.5 -74t34.5 -48.5t52 -26.5t65 -8q73 0 126.5 48t84.5 120t46 155t15 154q0 72 -14 136t-39.5 123t-62 115t-80.5 113h174q81 -97 129.5 -220t48.5 -265q0 -101 -24 -204t-76 -197.5t-139 -153t-201 -58.5
q-53 0 -95.5 14.5t-74 38t-51.5 53.5t-27 62q-18 -33 -45 -63.5t-62.5 -53.5t-79 -37t-94.5 -14q-84 0 -144 29t-98.5 79.5t-56.5 118.5t-18 146q0 111 22 208.5t65 185.5t106 169.5t145 161.5h174q-75 -68 -140.5 -149.5t-113.5 -173t-75.5 -192t-27.5 -208.5
q0 -118 42.5 -179.5t129.5 -61.5q83 0 140 54t82 173l75 399h154zM899 1219h-138l269 327h235z" />
    <glyph glyph-name="afii10023" unicode="&#x401;" horiz-adv-x="1194" 
d="M61 0l254 1434h856l-24 -146h-698l-80 -450h563l-25 -146h-563l-96 -547h729l-27 -145h-889zM1067 1655q0 -23 -9 -43.5t-24.5 -36t-36 -24.5t-43.5 -9t-43.5 9t-35.5 24.5t-24 36t-9 43.5t9 43.5t24 36.5t35.5 25t43.5 9t43.5 -9t36 -25t24.5 -36.5t9 -43.5zM670 1655
q0 -23 -9 -43.5t-24.5 -36t-35.5 -24.5t-42 -9q-24 0 -44.5 9t-36.5 24.5t-25 36t-9 43.5t9 43.5t25 36.5t36.5 25t44.5 9q22 0 42 -9t35.5 -25t24.5 -36.5t9 -43.5z" />
    <glyph glyph-name="afii10051" unicode="&#x402;" horiz-adv-x="1618" 
d="M1432 549q0 -111 -27.5 -206t-83 -169t-140 -124.5t-198.5 -72.5l-18 146q81 15 138.5 51.5t93.5 89t52.5 120t16.5 144.5q0 116 -69.5 174t-205.5 58q-88 0 -182.5 -19.5t-175.5 -50.5l-123 -690h-160l228 1288h-379l26 146h1016l-27 -146h-477l-80 -450q91 32 186 49.5
t201 17.5q189 0 288.5 -93.5t99.5 -262.5z" />
    <glyph glyph-name="afii10052" unicode="&#x403;" horiz-adv-x="1094" 
d="M1126 1288h-677l-228 -1288h-160l254 1434h838zM705 1487h-138l269 327h235z" />
    <glyph glyph-name="afii10053" unicode="&#x404;" horiz-adv-x="1305" 
d="M1106 1141q-47 85 -115 127.5t-168 42.5q-85 0 -165 -28t-149 -91t-118.5 -154.5t-81.5 -220.5h522l-26 -149h-526q-6 -57 -5 -105q0 -96 22 -177t65 -139.5t106 -91t145 -32.5q61 0 112.5 11t97.5 33t88 56t85 80l105 -90q-50 -57 -104.5 -101t-116.5 -74t-134 -45.5
t-157 -15.5q-114 0 -202.5 44.5t-149.5 123t-93 185t-32 231.5q0 108 21.5 216.5t64 208t105 185.5t145 149.5t183.5 99.5t220 36q137 0 240 -57t157 -168z" />
    <glyph glyph-name="afii10054" unicode="&#x405;" horiz-adv-x="1204" 
d="M1004 1161q-34 35 -70.5 63t-79.5 47.5t-95 29.5t-118 10t-117 -18.5t-86 -50t-53 -73t-18 -86.5q0 -39 10.5 -71t42.5 -63t90.5 -65t153.5 -77q97 -44 164.5 -85.5t109.5 -89t61 -105t19 -132.5q0 -90 -35.5 -166.5t-100 -132.5t-153.5 -87.5t-197 -31.5
q-93 0 -170.5 19t-140 50.5t-111 72.5t-83.5 84l127 112q37 -44 79 -79.5t91 -60.5t105 -38.5t122 -13.5q67 0 123.5 18t97.5 51.5t63.5 80.5t22.5 106q0 46 -14.5 83.5t-49 72t-92 68.5t-143.5 73q-100 45 -167.5 85.5t-108.5 85.5t-58.5 98t-17.5 122q0 80 34 150.5
t94.5 123.5t145 84t185.5 31q81 0 148 -12t123 -35t102 -55.5t87 -73.5z" />
    <glyph glyph-name="afii10055" unicode="&#x406;" horiz-adv-x="557" 
d="M231 0h-159l254 1434h159z" />
    <glyph glyph-name="afii10056" unicode="&#x407;" horiz-adv-x="557" 
d="M231 0h-159l254 1434h159zM746 1664q0 -23 -9 -43.5t-24.5 -36t-36 -24.5t-43.5 -9t-43.5 9t-35.5 24.5t-24 36t-9 43.5t9 43.5t24 36.5t35.5 25t43.5 9t43.5 -9t36 -25t24.5 -36.5t9 -43.5zM349 1664q0 -23 -9 -43.5t-24.5 -36t-35.5 -24.5t-42 -9q-24 0 -44.5 9
t-36.5 24.5t-25 36t-9 43.5t9 43.5t25 36.5t36.5 25t44.5 9q22 0 42 -9t35.5 -25t24.5 -36.5t9 -43.5z" />
    <glyph glyph-name="afii10057" unicode="&#x408;" horiz-adv-x="1176" 
d="M969 559q-30 -178 -86.5 -301t-165.5 -197q-125 -84 -287 -84q-105 0 -182.5 29t-131 77.5t-84.5 113t-42 135.5l153 41q15 -59 37 -105t55.5 -78.5t82 -49.5t116.5 -17q78 0 139 24.5t106.5 76.5t77 131.5t50.5 189.5l156 889h159z" />
    <glyph glyph-name="afii10058" unicode="&#x409;" horiz-adv-x="2120" 
d="M1931 539q0 -133 -41.5 -234t-116.5 -168.5t-179 -102t-228 -34.5h-502l228 1288h-539l-137 -663q-35 -169 -84.5 -285.5t-111.5 -192t-134.5 -115.5t-153.5 -55l-18 150q64 9 116 39t94.5 88.5t76.5 149t63 221.5l174 809h840l-98 -549h333q88 0 164 -22.5t132.5 -66.5
t89 -108.5t32.5 -148.5zM1765 508q0 114 -73.5 172.5t-206.5 58.5h-330l-104 -594h342q85 0 154 22t117.5 67t74.5 113.5t26 160.5z" />
    <glyph glyph-name="afii10059" unicode="&#x40a;" horiz-adv-x="2181" 
d="M1993 539q0 -133 -42 -234t-117 -168.5t-179 -102t-228 -34.5h-501l121 676h-705l-121 -676h-160l254 1434h160l-108 -613h704l109 613h159l-98 -549h334q87 0 163.5 -22.5t133 -66.5t89 -108.5t32.5 -148.5zM1827 508q0 114 -74 172.5t-207 58.5h-329l-105 -594h342
q85 0 154 22t117.5 67t75 113.5t26.5 160.5z" />
    <glyph glyph-name="afii10060" unicode="&#x40b;" horiz-adv-x="1618" 
d="M1417 549q0 -28 -3.5 -62.5t-6.5 -56.5l-76 -430h-155l75 430q3 14 4.5 39.5t1.5 48.5q0 116 -62 179t-198 63q-44 0 -91.5 -5t-95.5 -14.5t-94.5 -22.5t-86.5 -28l-123 -690h-156l228 1284h-379l26 150h1016l-27 -150h-481l-80 -446q91 32 188 49.5t206 17.5
q94 0 163.5 -24.5t115.5 -70.5t68.5 -112t22.5 -149z" />
    <glyph glyph-name="afii10061" unicode="&#x40c;" horiz-adv-x="1307" 
d="M754 895l338 -895h-170l-289 772l-338 -360l-74 -412h-160l254 1434h160l-139 -794l745 794h183zM725 1487h-138l269 327h235z" />
    <glyph glyph-name="afii10062" unicode="&#x40e;" horiz-adv-x="1284" 
d="M635 587l518 847h190l-927 -1434h-176l288 428l-358 1006h178zM1128 1735q-13 -38 -40 -75.5t-70.5 -67t-105 -48t-142.5 -18.5q-78 0 -132 19.5t-88 50t-49.5 67.5t-15.5 72l150 32q0 -29 8 -53.5t26 -42.5t47 -28.5t72 -10.5q47 0 81 10.5t58 29t39 43t25 52.5z" />
    <glyph glyph-name="afii10145" unicode="&#x40f;" horiz-adv-x="1409" 
d="M1094 0h-435l-68 -309h-149l54 309h-435l253 1434h160l-227 -1289h713l227 1289h160z" />
    <glyph glyph-name="afii10017" unicode="&#x410;" horiz-adv-x="1380" 
d="M983 0l-57 365h-588l-186 -365h-168l747 1434h176l240 -1434h-164zM790 1245l-378 -735h491z" />
    <glyph glyph-name="afii10018" unicode="&#x411;" horiz-adv-x="1311" 
d="M1194 1288h-745l-74 -422h346q100 0 178 -25t132 -71.5t82 -113t28 -148.5q0 -127 -43 -222t-119.5 -158.5t-181 -95.5t-226.5 -32h-510l254 1434h906zM975 492q0 109 -70 169t-213 60h-344l-100 -576h352q86 0 155.5 21.5t118 64.5t75 108t26.5 153z" />
    <glyph glyph-name="afii10019" unicode="&#x412;" horiz-adv-x="1274" 
d="M1176 1104q0 -68 -19.5 -122t-55 -96t-83.5 -72t-105 -48q106 -37 160.5 -114.5t54.5 -194.5q0 -109 -39.5 -194t-112 -143.5t-174 -89t-224.5 -30.5h-517l254 1434h424q99 0 180 -19t138 -59.5t88 -102.5t31 -149zM1016 1098q0 97 -70 143.5t-217 46.5h-280l-78 -446
h356q132 0 210.5 70.5t78.5 185.5zM969 453q0 118 -78.5 181.5t-216.5 63.5h-330l-96 -553h370q81 0 146 19.5t110.5 58.5t70 96.5t24.5 133.5z" />
    <glyph glyph-name="afii10020" unicode="&#x413;" horiz-adv-x="1094" 
d="M1126 1288h-677l-228 -1288h-160l254 1434h838z" />
    <glyph glyph-name="afii10021" unicode="&#x414;" horiz-adv-x="1413" 
d="M1085 145h175l-80 -454h-149l39 309h-1001l-69 -309h-148l80 454h119q54 93 96.5 183.5t80 188.5t62.5 181t52 195l129 541h842zM588 1288l-94 -395q-27 -111 -56.5 -209.5t-63.5 -189.5t-73.5 -177t-87.5 -172h713l200 1143h-538z" />
    <glyph glyph-name="afii10022" unicode="&#x415;" horiz-adv-x="1194" 
d="M61 0l254 1434h856l-24 -146h-698l-80 -450h563l-25 -146h-563l-96 -547h729l-27 -145h-889z" />
    <glyph glyph-name="afii10024" unicode="&#x416;" horiz-adv-x="1948" 
d="M1173 1434l-136 -775l727 775h183l-547 -579l324 -855h-170l-275 732l-282 -301l-76 -431h-161l77 433l-177 295l-527 -728h-178l626 860l-341 574h172l465 -777l136 777h160z" />
    <glyph glyph-name="afii10025" unicode="&#x417;" horiz-adv-x="1155" 
d="M1030 1141q0 -68 -17.5 -127.5t-52 -109t-85 -86.5t-115.5 -58q40 -9 80.5 -31t72.5 -58t52 -86t20 -114q0 -120 -47.5 -212t-128.5 -154.5t-189 -95t-229 -32.5q-68 0 -131 14.5t-117.5 40.5t-98.5 62t-75 78l123 109q28 -36 65.5 -65t81 -49.5t91.5 -32t98 -11.5
q78 0 149 20.5t125 61.5t85.5 103.5t31.5 146.5q0 103 -69 163t-197 60h-209l25 143h192q70 0 126.5 20.5t96 58.5t61 91.5t21.5 120.5q0 44 -16 80.5t-47.5 63t-78.5 41t-110 14.5q-106 0 -190 -36t-152 -93l-84 106q42 35 91.5 66t106 53.5t119 35.5t130.5 13
q96 0 169.5 -23t124 -64t76 -99.5t25.5 -128.5z" />
    <glyph glyph-name="afii10026" unicode="&#x418;" horiz-adv-x="1421" 
d="M1142 1143l-921 -1143h-160l252 1434h160l-199 -1141l920 1141h160l-252 -1434h-160z" />
    <glyph glyph-name="afii10027" unicode="&#x419;" horiz-adv-x="1421" 
d="M1142 1143l-921 -1143h-160l252 1434h160l-199 -1141l920 1141h160l-252 -1434h-160zM1194 1735q-13 -38 -40 -75.5t-70.5 -67t-105 -48t-142.5 -18.5q-78 0 -132 19.5t-88 50t-49.5 67.5t-15.5 72l150 32q0 -29 8 -53.5t26 -42.5t47 -28.5t72 -10.5q47 0 81 10.5t58 29
t39 43t25 52.5z" />
    <glyph glyph-name="afii10028" unicode="&#x41a;" horiz-adv-x="1307" 
d="M754 895l338 -895h-170l-289 772l-338 -360l-74 -412h-160l254 1434h160l-139 -794l745 794h183z" />
    <glyph glyph-name="afii10029" unicode="&#x41b;" horiz-adv-x="1339" 
d="M1024 0h-160l228 1288h-539l-137 -663q-35 -169 -84.5 -285.5t-111.5 -192t-134.5 -115.5t-153.5 -55l-18 150q64 9 116 39t94.5 88.5t76.5 149t63 221.5l174 809h840z" />
    <glyph glyph-name="afii10030" unicode="&#x41c;" horiz-adv-x="1606" 
d="M1290 0h-153l193 1101l-664 -1138l-256 1138l-195 -1101h-154l254 1434h174l241 -1120l636 1120h178z" />
    <glyph glyph-name="afii10031" unicode="&#x41d;" horiz-adv-x="1401" 
d="M1085 0h-159l121 676h-705l-121 -676h-160l254 1434h160l-108 -613h704l109 613h159z" />
    <glyph glyph-name="afii10032" unicode="&#x41e;" horiz-adv-x="1436" 
d="M1325 881q0 -126 -24.5 -241.5t-70 -216t-109.5 -183t-142.5 -141t-170 -90.5t-190.5 -32q-117 0 -210.5 40.5t-159.5 115.5t-101.5 181.5t-35.5 238.5q0 125 24.5 241t70 216.5t109.5 182.5t142.5 140.5t169.5 90.5t190 32q117 0 211 -40.5t160 -115t101.5 -181
t35.5 -238.5zM1165 852q0 104 -24 189t-71 145t-116 92.5t-160 32.5q-106 0 -202 -57t-167.5 -155.5t-113 -231.5t-41.5 -285q0 -105 24 -189.5t71.5 -144.5t116.5 -92.5t159 -32.5q108 0 203 57t166.5 155.5t113 231.5t41.5 285z" />
    <glyph glyph-name="afii10033" unicode="&#x41f;" horiz-adv-x="1401" 
d="M1085 0h-159l227 1288h-704l-228 -1288h-160l254 1434h1024z" />
    <glyph glyph-name="afii10034" unicode="&#x420;" horiz-adv-x="1257" 
d="M1217 1065q0 -129 -45 -223.5t-124 -156.5t-186 -92t-231 -30h-309l-101 -563h-160l254 1434h424q100 0 187.5 -21.5t152 -66.5t101.5 -114.5t37 -166.5zM1053 1042q0 67 -22.5 114t-64.5 76t-102 42.5t-135 13.5h-280l-103 -579h303q104 0 180 24t127 69t74 106.5
t23 133.5z" />
    <glyph glyph-name="afii10035" unicode="&#x421;" horiz-adv-x="1278" 
d="M1112 1118q-27 46 -57 82t-67.5 60.5t-85 37.5t-109.5 13q-115 0 -216.5 -67t-170 -177t-102.5 -233.5t-34 -258.5q0 -107 26.5 -190.5t74 -142t114 -89t146.5 -30.5q104 0 191.5 44.5t178.5 143.5l97 -102q-47 -51 -100 -94t-112 -73.5t-125.5 -47.5t-139.5 -17
q-114 0 -208 38.5t-161 113.5t-104 185t-37 253q0 119 24.5 231t69.5 210.5t109 181t142 141.5t169 92t190 33q82 0 148 -17t119 -49.5t94.5 -79.5t74.5 -106z" />
    <glyph glyph-name="afii10036" unicode="&#x422;" horiz-adv-x="1196" 
d="M1194 1288h-416l-227 -1288h-160l227 1288h-419l26 146h996z" />
    <glyph glyph-name="afii10037" unicode="&#x423;" horiz-adv-x="1284" 
d="M635 587l518 847h190l-927 -1434h-176l288 428l-358 1006h178z" />
    <glyph glyph-name="afii10038" unicode="&#x424;" horiz-adv-x="1720" 
d="M1606 821q0 -168 -60 -295.5t-163.5 -213.5t-243 -129.5t-299.5 -43.5l-35 -188h-160l35 188q-125 0 -229 30.5t-178 90.5t-115 148.5t-41 203.5q0 168 60 296t163.5 213.5t243 129t299.5 43.5l32 181h160l-33 -181q125 0 229 -30.5t178.5 -90.5t115.5 -148.5t41 -203.5z
M1440 793q0 71 -22.5 135.5t-72.5 113.5t-130.5 78t-196.5 29l-154 -864q122 0 227 32t182.5 96t121.5 159t45 221zM858 1149q-122 0 -227 -32t-182 -96t-121 -159t-45 -221q0 -71 22.5 -135.5t72.5 -113.5t130.5 -78t196.5 -29z" />
    <glyph glyph-name="afii10039" unicode="&#x425;" horiz-adv-x="1286" 
d="M174 0h-184l573 752l-284 682h167l222 -556l405 556h184l-524 -691l309 -743h-168l-244 614z" />
    <glyph glyph-name="afii10040" unicode="&#x426;" horiz-adv-x="1452" 
d="M1120 145h174l-80 -454h-150l40 309h-1043l254 1434h160l-227 -1289h713l227 1289h160z" />
    <glyph glyph-name="afii10041" unicode="&#x427;" horiz-adv-x="1354" 
d="M1038 0h-159l118 676q-96 -37 -195.5 -57.5t-211.5 -20.5q-194 0 -285.5 85t-91.5 245q0 30 2.5 61t7.5 55l65 391l165 -1l-70 -390q-3 -21 -5.5 -46t-2.5 -42q0 -106 62 -159.5t202 -53.5q46 0 96.5 6t100.5 17t98 26t90 33l109 609h159z" />
    <glyph glyph-name="afii10042" unicode="&#x428;" horiz-adv-x="1921" 
d="M1602 0h-1541l254 1434h160l-227 -1289h530l228 1289h159l-227 -1289h530l228 1289h159z" />
    <glyph glyph-name="afii10043" unicode="&#x429;" horiz-adv-x="1958" 
d="M1628 145h172l-80 -454h-149l39 309h-1549l254 1434h160l-227 -1289h530l228 1289h159l-227 -1289h530l228 1289h159z" />
    <glyph glyph-name="afii10044" unicode="&#x42a;" horiz-adv-x="1430" 
d="M1294 539q0 -133 -41.5 -234t-116.5 -168.5t-179 -102t-228 -34.5h-502l230 1288h-320l27 146h477l-98 -549h334q87 0 163.5 -22.5t132.5 -66.5t88.5 -108.5t32.5 -148.5zM1128 508q0 114 -73.5 172.5t-206.5 58.5h-330l-104 -594h342q85 0 154 22t117.5 67t74.5 113.5
t26 160.5z" />
    <glyph glyph-name="afii10045" unicode="&#x42b;" horiz-adv-x="1694" 
d="M1374 0h-160l254 1434h160zM1102 539q0 -133 -41.5 -234t-116.5 -168.5t-179 -102t-228 -34.5h-476l254 1434h160l-98 -549h307q88 0 164 -22.5t132.5 -66.5t89 -108.5t32.5 -148.5zM936 508q0 114 -74 172.5t-207 58.5h-303l-104 -594h315q85 0 154 22t118 67t75 113.5
t26 160.5z" />
    <glyph glyph-name="afii10046" unicode="&#x42c;" horiz-adv-x="1264" 
d="M1128 539q0 -133 -41.5 -234t-116.5 -168.5t-179 -102t-228 -34.5h-502l254 1434h160l-98 -549h334q87 0 163.5 -22.5t132.5 -66.5t88.5 -108.5t32.5 -148.5zM963 508q0 114 -74 172.5t-207 58.5h-330l-104 -594h342q85 0 154 22t117.5 67t75 113.5t26.5 160.5z" />
    <glyph glyph-name="afii10047" unicode="&#x42d;" horiz-adv-x="1305" 
d="M1190 870q0 -104 -21 -210.5t-62.5 -205.5t-103 -186t-143.5 -151.5t-184 -102t-223 -37.5q-60 0 -120.5 16t-114.5 46.5t-98.5 74.5t-72.5 99l133 90q53 -90 129 -135t170 -45q99 0 184.5 37t154 107t116.5 171.5t72 229.5h-519l27 149h512q2 137 -21 221.5t-66 144.5
t-106 94t-145 34q-111 0 -198 -39t-168 -131l-111 90q53 62 107.5 105t115.5 69.5t130.5 38.5t152.5 12q114 0 202.5 -45t148.5 -124t91 -186t31 -231z" />
    <glyph glyph-name="afii10048" unicode="&#x42e;" horiz-adv-x="1919" 
d="M1808 881q0 -125 -24.5 -241t-70 -216.5t-109.5 -183t-142.5 -141t-169.5 -90.5t-190 -32q-117 0 -211 40.5t-160 115.5t-101.5 181.5t-35.5 238.5q0 59 6 115h-264l-119 -668h-156l254 1434h156l-111 -621h263q32 140 96 258t152.5 203.5t197.5 133.5t231 48
q117 0 211 -40.5t160 -115t101.5 -181t35.5 -238.5zM1649 852q0 104 -24 189t-71.5 145t-116.5 92.5t-159 32.5q-72 0 -138.5 -26t-125 -73t-106.5 -113.5t-82 -147.5t-53 -174.5t-19 -194.5q0 -105 24 -189.5t71 -144.5t116 -92.5t159 -32.5q72 0 138.5 26t125 73
t106.5 113.5t82.5 147.5t53.5 174t19 195z" />
    <glyph glyph-name="afii10049" unicode="&#x42f;" horiz-adv-x="1313" 
d="M997 0h-153l106 602h-344l-407 -602h-197l430 616q-122 28 -189 109.5t-67 208.5q0 116 39.5 208.5t110.5 157.5t169 99.5t216 34.5h540zM690 1288q-79 0 -144 -21t-111 -62.5t-71.5 -102.5t-25.5 -141q0 -103 67 -158t203 -55h369l94 540h-381z" />
    <glyph glyph-name="afii10065" unicode="&#x430;" horiz-adv-x="1096" 
d="M946 827q0 -20 -2.5 -42t-5.5 -44l-131 -741h-152l21 123q-58 -59 -143 -102.5t-185 -43.5q-64 0 -121.5 15.5t-101 49.5t-69 88t-25.5 130q0 100 35.5 176t97 127t144 77t177.5 26q81 0 152.5 -18t122.5 -44l22 127q3 17 4.5 37.5t1.5 36.5q0 83 -47 123.5t-147 40.5
q-84 0 -155.5 -22t-143.5 -60l-47 121q77 38 169.5 64t188.5 26q81 0 144 -16t106.5 -49.5t66.5 -84.5t23 -121zM739 481q-51 28 -117 45t-159 17q-65 0 -117 -18t-88 -51.5t-55 -81t-19 -107.5q0 -90 52 -136.5t149 -46.5q47 0 91 12.5t84 34.5t75 51.5t65 63.5z" />
    <glyph glyph-name="afii10066" unicode="&#x431;" horiz-adv-x="1159" 
d="M1077 1384q-45 -9 -98 -14.5t-107 -5.5q-144 0 -247.5 -42.5t-173 -113t-109 -163.5t-57.5 -193q34 60 77 102.5t92.5 69t104.5 39t113 12.5q83 0 149 -31.5t112 -88t70.5 -135.5t24.5 -173q0 -83 -16.5 -165t-49.5 -156.5t-81.5 -138t-111.5 -110.5t-141 -73.5
t-169 -26.5q-84 0 -152 31.5t-117 89t-75.5 137t-26.5 175.5q0 12 1.5 44.5t6.5 71.5l54 297q29 163 91.5 288t156.5 210t218.5 128.5t278.5 43.5q45 0 94 4.5t111 15.5zM870 633q0 69 -15.5 126.5t-45 99t-73 64.5t-99.5 23q-68 0 -123.5 -21t-99.5 -58t-76.5 -87.5
t-53.5 -108.5t-31.5 -121t-10.5 -126q0 -71 16.5 -129.5t47.5 -100.5t76.5 -65t102.5 -23q66 0 120.5 23t97 62.5t74 92t52.5 111t31 119.5t10 119z" />
    <glyph glyph-name="afii10067" unicode="&#x432;" horiz-adv-x="1106" 
d="M987 850q0 -99 -49.5 -166.5t-140.5 -105.5q28 -9 54.5 -27.5t47 -45.5t33 -62.5t12.5 -77.5q0 -93 -34.5 -161.5t-93 -114t-136.5 -67.5t-166 -22h-471l188 1075h480q60 0 111 -15t87.5 -43.5t57 -70.5t20.5 -96zM829 817q0 57 -39.5 93t-125.5 36h-302l-55 -315h301
q45 0 85.5 11t70.5 34t47.5 58t17.5 83zM784 346q0 71 -49 114.5t-143 43.5h-307l-66 -375h303q55 0 103 12t83.5 38t55.5 67t20 100z" />
    <glyph glyph-name="afii10068" unicode="&#x433;" horiz-adv-x="872" 
d="M879 946h-517l-165 -946h-154l188 1075h670z" />
    <glyph glyph-name="afii10069" unicode="&#x434;" horiz-adv-x="1176" 
d="M889 129h141l-74 -438h-145l45 309h-805l-66 -309h-132l77 438h107q59 96 115.5 229.5t99.5 305.5l102 411h703zM473 946l-74 -282q-21 -82 -43.5 -154t-47 -137.5t-53 -125.5t-62.5 -118h542l146 817h-408z" />
    <glyph glyph-name="afii10070" unicode="&#x435;" horiz-adv-x="1098" 
d="M977 668q0 -54 -5.5 -101.5t-15.5 -81.5h-716q-6 -86 8 -155t49.5 -118t91 -75t131.5 -26q74 0 139 23t132 63l57 -117q-89 -53 -173 -78t-179 -25q-89 0 -164.5 29.5t-130 86t-85 139.5t-30.5 190q0 153 39 277.5t107 213t160 137t198 48.5q94 0 166 -31t121 -87.5
t74.5 -135.5t25.5 -176zM827 610q6 78 -5 143.5t-41 112.5t-79.5 73t-119.5 26q-65 0 -118 -26t-93.5 -73t-69 -112.5t-43.5 -143.5h569z" />
    <glyph glyph-name="afii10072" unicode="&#x436;" horiz-adv-x="1538" 
d="M619 309l-141 247l-362 -556h-172l457 688l-219 387h176l298 -553l98 553l168 86l-112 -638l485 552h180l-349 -387l217 -688h-160l-173 565l-237 -259l-55 -306h-153z" />
    <glyph glyph-name="afii10073" unicode="&#x437;" horiz-adv-x="940" 
d="M821 848q0 -94 -54 -166.5t-151 -108.5q31 -8 60.5 -26.5t52.5 -46.5t37 -64.5t14 -81.5q0 -97 -41.5 -168t-108.5 -117.5t-151.5 -69t-169.5 -22.5q-63 0 -116 11t-98 30.5t-82 46t-68 56.5l90 112q51 -57 124.5 -92t172.5 -35q58 0 111 14t93 43.5t63.5 74t23.5 106.5
q0 69 -52.5 114.5t-156.5 45.5h-125l22 127h119q45 0 88.5 12t77 36t54 61t20.5 87q0 31 -11.5 57t-35.5 45t-60.5 29.5t-85.5 10.5q-84 0 -159 -28t-156 -83l-49 115q37 25 81 47.5t92 40t99 27.5t104 10q78 0 140 -17t104.5 -49.5t65 -79t22.5 -104.5z" />
    <glyph glyph-name="afii10074" unicode="&#x438;" horiz-adv-x="1186" 
d="M886 814l-691 -814h-152l188 1075h154l-141 -811l690 811h151l-188 -1075h-154z" />
    <glyph glyph-name="afii10075" unicode="&#x439;" horiz-adv-x="1186" 
d="M886 814l-691 -814h-152l188 1075h154l-141 -811l690 811h151l-188 -1075h-154zM1006 1391q-12 -35 -37 -71.5t-66 -66.5t-99.5 -49.5t-137.5 -19.5q-74 0 -125.5 19.5t-84 50t-47 67t-14.5 70.5l133 34q0 -63 35.5 -103t118.5 -40q85 0 133 40t70 103z" />
    <glyph glyph-name="afii10076" unicode="&#x43a;" horiz-adv-x="1053" 
d="M232 1075l169 86l-112 -638l485 552h180l-349 -387l217 -688h-160l-173 565l-237 -259l-55 -306h-154z" />
    <glyph glyph-name="afii10077" unicode="&#x43b;" horiz-adv-x="1112" 
d="M823 0h-153l166 946h-410l-90 -416q-30 -137 -65.5 -235t-82 -164t-107 -103t-140.5 -51l-17 132q49 7 87.5 31.5t70 73t58 125.5t50.5 191l119 545h703z" />
    <glyph glyph-name="afii10078" unicode="&#x43c;" horiz-adv-x="1348" 
d="M1052 823l-507 -841l-209 841l-143 -823h-150l188 1075h170l196 -780l472 780h176l-188 -1075h-150z" />
    <glyph glyph-name="afii10079" unicode="&#x43d;" horiz-adv-x="1171" 
d="M883 0h-154l88 506h-532l-88 -506h-154l188 1075h154l-78 -440h533l78 440h153z" />
    <glyph glyph-name="afii10080" unicode="&#x43e;" horiz-adv-x="1151" 
d="M86 436q0 154 42.5 276.5t113.5 208t164.5 131.5t195.5 46q97 0 176.5 -32t135 -91.5t86 -144.5t30.5 -191q0 -154 -42.5 -276.5t-113.5 -208t-164.5 -131.5t-195.5 -46q-98 0 -177 32t-134.5 91.5t-86 144.5t-30.5 191zM242 440q0 -80 19.5 -141.5t58 -104.5t92.5 -63
t116 -20q76 0 139.5 39t109.5 108.5t71.5 166t25.5 210.5q0 70 -17 131.5t-54.5 107t-92.5 68.5t-122 23q-76 0 -139.5 -39t-109.5 -109t-71.5 -166.5t-25.5 -210.5z" />
    <glyph glyph-name="afii10081" unicode="&#x43f;" horiz-adv-x="1171" 
d="M883 0h-154l166 946h-533l-165 -946h-154l188 1075h840z" />
    <glyph glyph-name="afii10082" unicode="&#x440;" horiz-adv-x="1137" 
d="M1008 668q0 -165 -38.5 -293.5t-104.5 -217t-154.5 -134.5t-188.5 -46q-55 0 -99 12.5t-80 34.5t-66 52.5t-56 66.5l-80 -452l-170 -86l262 1470h152l-18 -112q85 81 152 108t140 27q72 0 135.5 -26.5t111 -80t75 -134t27.5 -189.5zM854 651q0 152 -62 233t-180 81
q-38 0 -72 -9.5t-66 -27.5t-64.5 -44.5t-67.5 -60.5l-94 -528q20 -40 46 -74t60 -58.5t76.5 -38t95.5 -13.5q71 0 131 35t104 103.5t68.5 169.5t24.5 232z" />
    <glyph glyph-name="afii10083" unicode="&#x441;" horiz-adv-x="1006" 
d="M840 844q-44 52 -103.5 86.5t-142.5 34.5q-79 0 -144 -39.5t-111 -109.5t-71.5 -166t-25.5 -210q0 -162 72 -245.5t206 -83.5q70 0 125.5 28.5t104.5 73.5l77 -100q-77 -70 -154 -103t-171 -33q-95 0 -171.5 31t-131 89.5t-84 144t-29.5 194.5q0 154 42.5 276.5
t113.5 208t164.5 131.5t195.5 46q65 0 116.5 -11.5t92.5 -31.5t73.5 -46.5t61.5 -56.5z" />
    <glyph glyph-name="afii10084" unicode="&#x442;" horiz-adv-x="928" 
d="M928 946h-346l-166 -946h-154l166 946h-346l22 129h846z" />
    <glyph glyph-name="afii10085" unicode="&#x443;" horiz-adv-x="1079" 
d="M279 -379h-154l213 391l-193 1063h158l139 -891l453 891h166z" />
    <glyph glyph-name="afii10086" unicode="&#x444;" horiz-adv-x="1640" 
d="M1513 702q0 -77 -11.5 -161t-36 -164.5t-62.5 -153t-91.5 -127.5t-123 -87t-156.5 -32q-37 0 -72.5 10.5t-67.5 29t-58.5 43t-45.5 53.5l-73 -424l-166 -82l88 506q-65 -70 -135 -105t-160 -35q-66 0 -118 27t-88.5 78t-55.5 124.5t-19 166.5q0 77 11.5 161t36 164.5
t63 153t92 127.5t123 87t156.5 32q37 0 72.5 -10.5t67.5 -29t58.5 -43.5t44.5 -53l80 453l166 82l-94 -535q65 70 135 105t160 35q66 0 118 -27t88 -78t55 -124.5t19 -166.5zM758 801q-18 33 -41.5 61.5t-50.5 49t-57.5 32.5t-63.5 12q-60 0 -108 -23.5t-84.5 -64.5
t-62 -96.5t-42 -119.5t-24 -133.5t-7.5 -137.5q0 -133 47 -201.5t135 -68.5q75 0 140.5 41t124.5 110zM817 271q18 -34 41.5 -62.5t50.5 -49t57.5 -32.5t63.5 -12q60 0 108 23.5t84.5 65t62 97t42 119.5t24 133.5t7.5 137.5q-1 128 -47.5 199t-134.5 71q-75 0 -140.5 -41.5
t-124.5 -110.5z" />
    <glyph glyph-name="afii10087" unicode="&#x445;" horiz-adv-x="1024" 
d="M793 0h-158l-172 441l-318 -441h-168l429 561l-218 514h158l158 -403l287 403h167l-397 -522z" />
    <glyph glyph-name="afii10088" unicode="&#x446;" horiz-adv-x="1208" 
d="M905 129h142l-56 -322l-160 -71l48 264h-836l190 1075h154l-168 -946h533l168 946h153z" />
    <glyph glyph-name="afii10089" unicode="&#x447;" horiz-adv-x="1083" 
d="M795 0h-154l82 471q-59 -31 -135.5 -54.5t-177.5 -23.5q-144 0 -216.5 75.5t-72.5 209.5q0 28 3 57t5 37l53 303h154l-55 -313q-5 -34 -5 -72q0 -87 46.5 -127.5t146.5 -40.5q70 0 144 21.5t135 58.5l81 473h154z" />
    <glyph glyph-name="afii10090" unicode="&#x448;" horiz-adv-x="1714" 
d="M1425 0h-1382l188 1075h154l-166 -946h461l166 946h153l-165 -946h460l166 946h154z" />
    <glyph glyph-name="afii10091" unicode="&#x449;" horiz-adv-x="1749" 
d="M1448 129h139l-55 -322l-158 -71l47 264h-1378l190 1075h154l-168 -946h461l168 946h153l-167 -946h460l168 946h154z" />
    <glyph glyph-name="afii10092" unicode="&#x44a;" horiz-adv-x="1192" 
d="M1071 401q0 -95 -33 -169.5t-91.5 -126t-138 -78.5t-173.5 -27h-465l166 946h-262l22 129h416l-70 -399h318q68 0 125 -18t98.5 -52.5t64.5 -86t23 -118.5zM911 377q0 78 -49.5 124t-142.5 46h-299l-74 -418h299q60 0 109 16.5t84 48t54 78t19 105.5z" />
    <glyph glyph-name="afii10093" unicode="&#x44b;" horiz-adv-x="1460" 
d="M1171 0h-153l188 1075h154zM909 401q0 -95 -33 -169.5t-91.5 -126t-138 -78.5t-173.5 -27h-430l188 1075h154l-70 -399h283q68 0 125 -18t98.5 -52.5t64.5 -86t23 -118.5zM750 377q0 78 -50 124t-143 46h-264l-74 -418h264q60 0 109 16.5t84.5 48t54.5 78t19 105.5z" />
    <glyph glyph-name="afii10094" unicode="&#x44c;" horiz-adv-x="1065" 
d="M944 401q0 -95 -33 -169.5t-91.5 -126t-138 -78.5t-173.5 -27h-465l188 1075h154l-70 -399h318q68 0 125 -18t98.5 -52.5t64.5 -86t23 -118.5zM784 377q0 78 -49.5 124t-142.5 46h-299l-74 -418h299q60 0 109 16.5t84 48t54 78t19 105.5z" />
    <glyph glyph-name="afii10095" unicode="&#x44d;" horiz-adv-x="1038" 
d="M911 680q0 -84 -15 -169t-46 -163.5t-77.5 -146t-108.5 -117.5t-140.5 -78.5t-173.5 -28.5q-56 0 -103.5 13t-87.5 35.5t-72.5 53.5t-57.5 66l108 95q50 -62 104 -98t126 -36q129 0 226.5 95t143.5 299h-385l23 127h379q0 73 -14.5 136t-43 108.5t-72.5 71.5t-102 26
q-82 0 -155 -33t-148 -96l-72 106q88 76 183 114t215 38q70 0 136 -27t117 -80t82 -131t31 -180z" />
    <glyph glyph-name="afii10096" unicode="&#x44e;" horiz-adv-x="1589" 
d="M1462 662q0 -87 -17.5 -171.5t-51 -160.5t-83 -140.5t-114 -112t-143 -74t-170.5 -26.5q-86 0 -155.5 31t-118.5 88.5t-76 138t-27 179.5q0 21 1 42.5t3 43.5h-225l-88 -500h-154l188 1075h154l-78 -446h228q25 97 73.5 182t118 149t159.5 101t199 37q85 0 155 -31
t119 -88t76 -137.5t27 -179.5zM1307 641q0 72 -17 132.5t-49 104t-78.5 67.5t-105.5 24q-68 0 -123.5 -23.5t-99.5 -64t-76.5 -94t-53.5 -113t-31.5 -121.5t-10.5 -119q0 -72 17 -132.5t49 -104t78 -67.5t105 -24q68 0 123.5 23.5t99.5 64t76.5 94t54 113t32 121.5t10.5 119
z" />
    <glyph glyph-name="afii10097" unicode="&#x44f;" horiz-adv-x="1114" 
d="M825 0h-155l78 444h-269l-325 -444h-199l356 469q-85 17 -134.5 77.5t-49.5 158.5q0 89 31 158t86 116t129.5 71.5t161.5 24.5h479zM530 946q-52 0 -96.5 -14.5t-77 -42.5t-51 -69t-18.5 -95q0 -72 46.5 -112t131.5 -40h305l66 373h-306z" />
    <glyph glyph-name="afii10071" unicode="&#x451;" horiz-adv-x="1098" 
d="M977 668q0 -54 -5.5 -101.5t-15.5 -81.5h-716q-6 -86 8 -155t49.5 -118t91 -75t131.5 -26q74 0 139 23t132 63l57 -117q-89 -53 -173 -78t-179 -25q-89 0 -164.5 29.5t-130 86t-85 139.5t-30.5 190q0 153 39 277.5t107 213t160 137t198 48.5q94 0 166 -31t121 -87.5
t74.5 -135.5t25.5 -176zM827 610q6 78 -5 143.5t-41 112.5t-79.5 73t-119.5 26q-65 0 -118 -26t-93.5 -73t-69 -112.5t-43.5 -143.5h569zM979 1340q0 -23 -9 -43.5t-24.5 -36t-36 -24.5t-43.5 -9t-43.5 9t-35.5 24.5t-24 36t-9 43.5t9 43.5t24 36.5t35.5 25t43.5 9t43.5 -9
t36 -25t24.5 -36.5t9 -43.5zM582 1340q0 -23 -9 -43.5t-24.5 -36t-35.5 -24.5t-42 -9q-24 0 -44.5 9t-36.5 24.5t-25 36t-9 43.5t9 43.5t25 36.5t36.5 25t44.5 9q22 0 42 -9t35.5 -25t24.5 -36.5t9 -43.5z" />
    <glyph glyph-name="afii10099" unicode="&#x452;" horiz-adv-x="1167" 
d="M1018 662q0 -31 -2 -55t-8 -68l-80 -459q-16 -92 -42.5 -168.5t-68 -136.5t-98.5 -103t-135 -67l-17 131q42 19 74 43.5t56 61.5t41.5 90.5t31.5 131.5l82 463q5 37 7.5 64.5t2.5 36.5q0 118 -55 177.5t-158 59.5q-117 0 -206 -78.5t-121 -248.5l-95 -537h-153l209 1184
h-170l16 98h170l23 129l167 82l-36 -211h501l-16 -98h-502l-63 -353q54 79 141.5 120.5t190.5 41.5q151 0 232 -84.5t81 -246.5z" />
    <glyph glyph-name="afii10100" unicode="&#x453;" horiz-adv-x="872" 
d="M879 946h-517l-165 -946h-154l188 1075h670zM543 1219h-138l269 327h235z" />
    <glyph glyph-name="afii10101" unicode="&#x454;" horiz-adv-x="1038" 
d="M866 840q-49 62 -105.5 95.5t-133.5 33.5q-116 0 -216.5 -87.5t-142.5 -254.5h396l-23 -127h-399q-2 -35 -2 -80q0 -70 16 -128t47 -99t75 -64t101 -23q81 0 151.5 34t141.5 100l76 -95q-75 -80 -173 -124t-224 -44q-79 0 -146 31t-115.5 89t-76 140t-27.5 183
q0 80 16 161t48 156.5t80 141t111 114.5t141.5 77t172.5 28q100 0 182 -40.5t138 -111.5z" />
    <glyph glyph-name="afii10102" unicode="&#x455;" horiz-adv-x="948" 
d="M752 856q-30 28 -60.5 48.5t-63.5 34.5t-70 21t-81 7q-83 0 -134.5 -39t-51.5 -105q0 -29 8 -52.5t31 -46t64 -47t106 -56.5q73 -36 124 -70t83.5 -70t47.5 -78t15 -94q0 -87 -31.5 -150t-84.5 -103.5t-121.5 -59.5t-143.5 -19q-124 0 -222 42.5t-167 113.5l94 109
q62 -63 137 -98t168 -35q106 0 165 46.5t59 127.5q0 29 -9 54t-34 50t-68 51t-111 58q-71 33 -120 65.5t-79.5 68t-44.5 75.5t-14 88q0 142 94.5 223.5t256.5 81.5q60 0 111.5 -10.5t95.5 -28.5t80 -41.5t65 -50.5z" />
    <glyph glyph-name="afii10103" unicode="&#x456;" horiz-adv-x="514" 
d="M477 1376q0 -22 -8.5 -41.5t-23 -34.5t-34 -23.5t-40.5 -8.5q-24 0 -44.5 8.5t-36 23.5t-24 34.5t-8.5 41.5q0 23 8.5 43.5t24 35.5t36 23.5t44.5 8.5q21 0 40.5 -8.5t34 -23.5t23 -35.5t8.5 -43.5zM207 0h-154l191 1075h153z" />
    <glyph glyph-name="afii10104" unicode="&#x457;" horiz-adv-x="514" 
d="M207 0h-154l191 1075h153zM670 1330q0 -23 -9 -43.5t-24.5 -36t-36 -24.5t-43.5 -9t-43.5 9t-35.5 24.5t-24 36t-9 43.5t9 43.5t24 36.5t35.5 25t43.5 9t43.5 -9t36 -25t24.5 -36.5t9 -43.5zM273 1330q0 -23 -9 -43.5t-24.5 -36t-35.5 -24.5t-42 -9q-24 0 -44.5 9
t-36.5 24.5t-25 36t-9 43.5t9 43.5t25 36.5t36.5 25t44.5 9q22 0 42 -9t35.5 -25t24.5 -36.5t9 -43.5z" />
    <glyph glyph-name="afii10105" unicode="&#x458;" horiz-adv-x="514" 
d="M477 1376q0 -22 -8.5 -41.5t-23 -34.5t-34 -23.5t-40.5 -8.5q-24 0 -44.5 8.5t-36 23.5t-24 34.5t-8.5 41.5q0 23 8.5 43.5t24 35.5t36 23.5t44.5 8.5q21 0 40.5 -8.5t34 -23.5t23 -35.5t8.5 -43.5zM209 14q-17 -92 -43.5 -160.5t-71.5 -117.5t-112 -81t-164 -50l-33 123
q70 15 116.5 35.5t76.5 53.5t47.5 83.5t31.5 126.5l187 1048h153z" />
    <glyph glyph-name="afii10106" unicode="&#x459;" horiz-adv-x="1692" 
d="M1571 401q0 -95 -33 -169.5t-91.5 -126t-138.5 -78.5t-173 -27h-465l166 946h-410l-90 -416q-30 -137 -65.5 -235t-82 -164t-107 -103t-140.5 -51l-17 132q49 7 87.5 31.5t70 73t58 125.5t50.5 191l119 545h703l-70 -399h318q68 0 125 -18t98.5 -52.5t64.5 -86t23 -118.5
zM1411 377q0 78 -50 124t-142 46h-299l-74 -418h299q60 0 109 16.5t84 48t54 78t19 105.5z" />
    <glyph glyph-name="afii10107" unicode="&#x45a;" horiz-adv-x="1751" 
d="M1630 401q0 -95 -33 -169.5t-91.5 -126t-138 -78.5t-173.5 -27h-465l88 506h-532l-88 -506h-154l188 1075h154l-78 -440h533l78 440h153l-70 -399h318q68 0 125 -18t98.5 -52.5t64.5 -86t23 -118.5zM1470 377q0 78 -49.5 124t-142.5 46h-299l-74 -418h299q60 0 109 16.5
t84 48t54 78t19 105.5z" />
    <glyph glyph-name="afii10108" unicode="&#x45b;" horiz-adv-x="1167" 
d="M983 659q0 -26 -2.5 -61.5t-7.5 -58.5l-94 -539h-152l92 526q5 25 7.5 58t2.5 55q0 119 -55.5 173t-159.5 54q-56 0 -109 -19.5t-97 -60t-76 -102.5t-47 -147l-95 -537h-151l209 1184h-170l16 98h170l23 129l166 82l-37 -211h504l-17 -98h-504l-63 -350q27 39 64 68.5
t80.5 50t92 30.5t99.5 10q151 0 231 -86t80 -248z" />
    <glyph glyph-name="afii10109" unicode="&#x45c;" horiz-adv-x="1053" 
d="M232 1075l169 86l-112 -638l485 552h180l-349 -387l217 -688h-160l-173 565l-237 -259l-55 -306h-154zM563 1219h-138l269 327h235z" />
    <glyph glyph-name="afii10110" unicode="&#x45e;" horiz-adv-x="1079" 
d="M279 -379h-154l213 391l-193 1063h158l139 -891l453 891h166zM965 1391q-12 -35 -37 -71.5t-66 -66.5t-99.5 -49.5t-137.5 -19.5q-74 0 -125.5 19.5t-84 50t-47 67t-14.5 70.5l133 34q0 -63 35.5 -103t118.5 -40q85 0 133 40t70 103z" />
    <glyph glyph-name="afii10193" unicode="&#x45f;" horiz-adv-x="1167" 
d="M883 0h-348l-41 -242l-160 -75l55 317h-346l190 1075h152l-166 -944h537l166 944h151z" />
    <glyph glyph-name="afii10050" unicode="&#x490;" horiz-adv-x="1135" 
d="M449 1288l-228 -1288h-160l254 1434h699l33 180l147 69l-68 -395h-677z" />
    <glyph glyph-name="afii10098" unicode="&#x491;" horiz-adv-x="872" 
d="M362 946l-165 -946h-154l188 1075h549l33 180l131 62l-65 -371h-517z" />
    <glyph glyph-name="Wgrave" unicode="&#x1e80;" horiz-adv-x="1745" 
d="M1219 0h-181l-80 1201l-505 -1201h-177l-32 1434h157l8 -1210l504 1210h172l83 -1210l429 1210h158zM963 1526l-252 327h211l154 -327h-113z" />
    <glyph glyph-name="wgrave" unicode="&#x1e81;" horiz-adv-x="1487" 
d="M983 0h-141l-76 842l-375 -842h-137l-94 1075h155l48 -845l374 845h140l76 -845l345 845h156zM786 1219l-252 327h211l154 -327h-113z" />
    <glyph glyph-name="Wacute" unicode="&#x1e82;" horiz-adv-x="1745" 
d="M1219 0h-181l-80 1201l-505 -1201h-177l-32 1434h157l8 -1210l504 1210h172l83 -1210l429 1210h158zM1080 1526h-138l269 327h235z" />
    <glyph glyph-name="wacute" unicode="&#x1e83;" horiz-adv-x="1487" 
d="M983 0h-141l-76 842l-375 -842h-137l-94 1075h155l48 -845l374 845h140l76 -845l345 845h156zM895 1219h-138l269 327h235z" />
    <glyph glyph-name="Wdieresis" unicode="&#x1e84;" horiz-adv-x="1745" 
d="M1219 0h-181l-80 1201l-505 -1201h-177l-32 1434h157l8 -1210l504 1210h172l83 -1210l429 1210h158zM1333 1655q0 -23 -9 -43.5t-24.5 -36t-36 -24.5t-43.5 -9t-43.5 9t-35.5 24.5t-24 36t-9 43.5t9 43.5t24 36.5t35.5 25t43.5 9t43.5 -9t36 -25t24.5 -36.5t9 -43.5z
M936 1655q0 -23 -9 -43.5t-24.5 -36t-35.5 -24.5t-42 -9q-24 0 -44.5 9t-36.5 24.5t-25 36t-9 43.5t9 43.5t25 36.5t36.5 25t44.5 9q22 0 42 -9t35.5 -25t24.5 -36.5t9 -43.5z" />
    <glyph glyph-name="wdieresis" unicode="&#x1e85;" horiz-adv-x="1487" 
d="M983 0h-141l-76 842l-375 -842h-137l-94 1075h155l48 -845l374 845h140l76 -845l345 845h156zM1163 1348q0 -23 -9 -43.5t-24.5 -36t-36 -24.5t-43.5 -9t-43.5 9t-35.5 24.5t-24 36t-9 43.5t9 43.5t24 36.5t35.5 25t43.5 9t43.5 -9t36 -25t24.5 -36.5t9 -43.5zM766 1348
q0 -23 -9 -43.5t-24.5 -36t-35.5 -24.5t-42 -9q-24 0 -44.5 9t-36.5 24.5t-25 36t-9 43.5t9 43.5t25 36.5t36.5 25t44.5 9q22 0 42 -9t35.5 -25t24.5 -36.5t9 -43.5z" />
    <glyph glyph-name="Ygrave" unicode="&#x1ef2;" horiz-adv-x="1327" 
d="M711 561l-99 -561h-159l102 575l-334 859h176l268 -710l509 710h182zM846 1526l-252 327h211l154 -327h-113z" />
    <glyph glyph-name="ygrave" unicode="&#x1ef3;" horiz-adv-x="1079" 
d="M279 -379h-154l213 391l-193 1063h158l139 -891l453 891h166zM662 1219l-252 327h211l154 -327h-113z" />
    <glyph glyph-name="endash" unicode="&#x2013;" horiz-adv-x="864" 
d="M754 676h-656l25 145h655z" />
    <glyph glyph-name="emdash" unicode="&#x2014;" horiz-adv-x="1188" 
d="M1075 676h-979l25 145h979z" />
    <glyph glyph-name="quoteleft" unicode="&#x2018;" horiz-adv-x="516" 
d="M379 977h-215l215 457h113z" />
    <glyph glyph-name="quoteright" unicode="&#x2019;" horiz-adv-x="516" 
d="M307 977h-112l112 457h215z" />
    <glyph glyph-name="quotesinglbase" unicode="&#x201a;" horiz-adv-x="516" 
d="M90 -221h-113l113 457h215z" />
    <glyph glyph-name="quotedblleft" unicode="&#x201c;" horiz-adv-x="961" 
d="M823 977h-215l215 457h113zM379 977h-215l215 457h113z" />
    <glyph glyph-name="quotedblright" unicode="&#x201d;" horiz-adv-x="961" 
d="M752 977h-113l113 457h215zM307 977h-112l112 457h215z" />
    <glyph glyph-name="quotedblbase" unicode="&#x201e;" horiz-adv-x="961" 
d="M535 -221h-113l113 457h215zM90 -221h-113l113 457h215z" />
    <glyph glyph-name="dagger" unicode="&#x2020;" horiz-adv-x="1174" 
d="M1077 815h-403l-180 -1020h-142l180 1020h-403l25 135h403l84 484h141l-84 -484h404z" />
    <glyph glyph-name="daggerdbl" unicode="&#x2021;" horiz-adv-x="1174" 
d="M1075 817h-401l-72 -405h404l-25 -133h-401l-86 -484h-142l86 484h-405l24 133h404l71 405h-405l25 133h405l84 484h141l-84 -484h402z" />
    <glyph glyph-name="bullet" unicode="&#x2022;" horiz-adv-x="822" 
d="M757 752l-610 -356v711z" />
    <glyph glyph-name="ellipsis" unicode="&#x2026;" horiz-adv-x="1475" 
d="M1253 109q0 -27 -10.5 -51t-28.5 -42t-42 -28.5t-50 -10.5q-27 0 -50.5 10.5t-41.5 28.5t-28.5 42t-10.5 51t10.5 51t28.5 43t41.5 30t50.5 11q26 0 50 -11t42 -30t28.5 -43t10.5 -51zM762 109q0 -27 -11 -51t-29 -42t-41.5 -28.5t-49.5 -10.5q-27 0 -51 10.5t-41.5 28.5
t-28 42t-10.5 51t10.5 51t28 43t41.5 30t51 11q26 0 49.5 -11t41.5 -30t29 -43t11 -51zM270 109q0 -27 -10.5 -51t-28.5 -42t-42 -28.5t-50 -10.5q-27 0 -50.5 10.5t-41.5 28.5t-28.5 42t-10.5 51t10.5 51t28.5 43t41.5 30t50.5 11q26 0 50 -11t42 -30t28.5 -43t10.5 -51z
" />
    <glyph glyph-name="perthousand" unicode="&#x2030;" horiz-adv-x="2755" 
d="M866 1120q0 -103 -28 -202.5t-80.5 -178t-128 -126.5t-169.5 -48q-62 0 -112.5 22.5t-87 65t-56.5 105t-20 143.5q0 103 28 202.5t80 178t127 126.5t170 48q61 0 112 -22.5t88 -65t57 -105t20 -143.5zM503 0h-145l1149 1434h145zM2629 532q0 -103 -28 -202.5t-80 -178
t-127.5 -126.5t-169.5 -48q-62 0 -112.5 22.5t-87.5 65t-57 105t-20 143.5q0 103 28 202.5t80.5 178t127.5 126.5t170 48q61 0 112 -22t87.5 -65t56.5 -105.5t20 -143.5zM1826 532q0 -103 -28 -202.5t-80 -178t-127.5 -126.5t-169.5 -48q-62 0 -112.5 22.5t-87.5 65t-57 105
t-20 143.5q0 103 28 202.5t80.5 178t127.5 126.5t170 48q61 0 112 -22t87.5 -65t56.5 -105.5t20 -143.5zM727 1110q0 116 -41.5 173.5t-110.5 57.5q-51 0 -97 -33.5t-80.5 -92t-54.5 -137t-20 -167.5q0 -115 41 -173t111 -58q51 0 97 33.5t80.5 92t54.5 137t20 167.5z
M2490 522q0 116 -41.5 174t-110.5 58q-51 0 -97 -34t-80.5 -92.5t-54.5 -136.5t-20 -167q0 -116 41.5 -174t110.5 -58q51 0 97 34t80.5 92.5t54.5 136.5t20 167zM1687 522q0 116 -41 174t-110 58q-52 0 -97.5 -34t-80 -92.5t-54.5 -136.5t-20 -167q0 -116 41 -174t110 -58
q51 0 97 34t80.5 92.5t54.5 136.5t20 167z" />
    <glyph glyph-name="guilsinglleft" unicode="&#x2039;" horiz-adv-x="743" 
d="M205 530l317 -530h-170l-321 537l510 538h178z" />
    <glyph glyph-name="guilsinglright" unicode="&#x203a;" horiz-adv-x="743" 
d="M141 0h-178l514 545l-317 530h170l321 -536z" />
    <glyph glyph-name="fraction" unicode="&#x2044;" horiz-adv-x="936" 
d="M-39 0h-172l1226 1434h172z" />
    <glyph glyph-name="fraction" unicode="&#x2215;" horiz-adv-x="936" 
d="M-39 0h-172l1226 1434h172z" />
    <glyph glyph-name="four.superior" unicode="&#x2074;" horiz-adv-x="885" 
d="M550 736h-459l20 112l563 594h137l-101 -573h119l-23 -133h-119l-36 -203h-137zM573 869l64 358l-343 -358h279z" />
    <glyph glyph-name="Euro" unicode="&#x20ac;" 
d="M79 813l23 127h141q37 118 94 213.5t131.5 162.5t163.5 103.5t191 36.5q73 0 130 -15.5t101.5 -46t79 -76t62.5 -106.5l-140 -69q-23 50 -46 83.5t-52 53.5t-66.5 28.5t-89.5 8.5q-66 0 -125.5 -26.5t-110 -75.5t-91.5 -118.5t-70 -156.5h508l-23 -127h-520
q-18 -83 -24 -174h514l-23 -127h-498v-20q0 -118 24.5 -191t64.5 -114t89.5 -55.5t100.5 -14.5q95 0 165.5 41.5t149.5 138.5l111 -88q-87 -112 -194.5 -172t-247.5 -60q-197 0 -309.5 134.5t-112.5 386.5v14h-154l23 127h137q6 91 24 174h-131z" />
    <glyph glyph-name="litre" unicode="&#x2113;" horiz-adv-x="1104" 
d="M842 117q-24 -21 -57.5 -46t-75 -47t-89 -36.5t-98.5 -14.5q-106 0 -156.5 55t-50.5 152q0 64 16 151.5t34 178.5l-154 -135l-53 80l233 204l84 467q18 100 48.5 170t69.5 114t84.5 64.5t93.5 20.5q88 0 137.5 -48t49.5 -131q0 -63 -20 -127t-54 -125.5t-78 -120.5
t-91.5 -112t-96 -100t-90.5 -84q-69 -368 -69 -430q0 -64 28 -94.5t82 -30.5q32 0 64 11t61.5 27.5t55.5 36.5t47 38zM555 803q43 42 93 101t93.5 124.5t72.5 133t29 127.5q0 36 -20 59t-55 23q-28 0 -52 -17.5t-43.5 -49t-34 -75t-24.5 -96.5z" />
    <glyph glyph-name="afii61352" unicode="&#x2116;" horiz-adv-x="2294" 
d="M2175 1133q0 -86 -34 -159.5t-92 -128t-134.5 -85.5t-161.5 -31q-68 0 -122.5 23.5t-93.5 64t-60 95.5t-21 118q0 85 34 159t92 128.5t134.5 85.5t161.5 31q67 0 122 -23.5t94 -64.5t60 -95.5t21 -117.5zM2075 453h-707l27 145h706zM2040 1112q0 41 -13.5 76t-38.5 60.5
t-59 40t-76 14.5q-52 0 -99.5 -20t-83.5 -54t-57.5 -80t-21.5 -98q0 -41 13.5 -76t38.5 -60.5t59 -40t76 -14.5q52 0 99.5 20t83.5 54t57.5 80t21.5 98zM1085 0h-149l-511 1181l-210 -1181h-154l254 1434h156l506 -1170l209 1170h153z" />
    <glyph glyph-name="trademark" unicode="&#x2122;" horiz-adv-x="1561" 
d="M725 1348h-238l-127 -732h-98l127 732h-237l16 86h573zM1448 616h-92l106 612l-375 -634l-145 638l-108 -616h-93l144 818h104l136 -626l360 626h106z" />
    <glyph glyph-name="Omega" unicode="&#x2126;" horiz-adv-x="1475" 
d="M770 145q88 73 166 147t135.5 162t91 195.5t33.5 247.5q0 100 -29.5 177.5t-80 130t-117.5 79.5t-142 27q-104 0 -201.5 -41.5t-172.5 -123.5t-120.5 -202.5t-45.5 -279.5q0 -78 17.5 -147.5t50 -132.5t78.5 -122t104 -117l-21 -145h-473l20 145h291q-62 59 -100.5 110.5
t-69.5 122.5t-45 140t-14 141q0 120 28 226t77.5 194.5t117 158.5t147 118.5t167.5 74t178 25.5q117 0 213 -40t164.5 -114t105.5 -178.5t37 -234.5q0 -111 -28 -215.5t-81 -200t-129.5 -178.5t-173.5 -150h295l-20 -145h-473z" />
    <glyph glyph-name="estimated" unicode="&#x212e;" horiz-adv-x="1427" 
d="M356 651v-450q73 -72 161.5 -109t195.5 -37q91 0 163 22.5t130 62t104.5 94t87.5 118.5l76 -47q-48 -73 -102 -133.5t-120.5 -104t-149.5 -68t-189 -24.5q-145 0 -262.5 54t-200 146.5t-127.5 215.5t-45 262q0 141 44 264.5t126.5 215.5t201.5 145t269 53t268 -54
t200 -146.5t126.5 -216t46.5 -263.5h-1004zM1075 1106q-33 31 -74 58t-87 46t-96 30t-101 11q-105 0 -197 -36.5t-164 -108.5v-373h719v373z" />
    <glyph glyph-name="down.arrow" unicode="&#x2193;" horiz-adv-x="750" 
d="M618 352q3 -4 2.5 -9t-6.5 -13l-239 -361l-240 361q-5 7 -6 12.5t2 9.5q4 6 9.5 7t9.5 -1l153 -61v1137h143v-1137l154 61q6 3 10.5 1t7.5 -7z" />
    <glyph glyph-name="leftright.arrow" unicode="&#x2194;" horiz-adv-x="1577" 
d="M1176 467q-9 -6 -14.5 -6t-8.5 2q-6 4 -7 8.5t1 9.5l61 154h-839l61 -154q2 -4 1.5 -8.5t-7.5 -9.5q-4 -3 -10 -2t-13 6l-360 240l360 239q8 5 13 6t10 -2t6.5 -8t-0.5 -10l-61 -154h839l-61 154q-3 6 -1 10.5t7 7.5q4 3 9.5 2t13.5 -6l360 -239z" />
    <glyph glyph-name="partialdiff" unicode="&#x2202;" horiz-adv-x="1151" 
d="M483 1321l25 135q128 -13 216 -56.5t155.5 -116t111 -193t43.5 -297.5q0 -148 -22 -265.5t-60.5 -208t-90.5 -155.5t-112 -106.5t-126 -61t-131 -19.5q-93 0 -169.5 29.5t-131.5 83.5t-85 131t-30 172q0 138 42.5 248.5t113 187t161 117.5t187.5 41q118 0 197.5 -48.5
t127.5 -133.5q-3 142 -39.5 236t-94 152.5t-131.5 87.5t-157 40zM840 571q0 70 -19 123t-54.5 88.5t-86.5 53.5t-115 18q-68 0 -129 -32.5t-106.5 -92.5t-72 -144.5t-26.5 -187.5q0 -140 73.5 -213t201.5 -73q70 0 131 33t106 93.5t71 145t26 188.5z" />
    <glyph glyph-name="Delta" unicode="&#x2206;" horiz-adv-x="1397" 
d="M-29 0l772 1434h172l261 -1434h-1205zM794 1251l-575 -1106h766z" />
    <glyph glyph-name="product" unicode="&#x220f;" horiz-adv-x="1376" 
d="M850 -300l280 1588h-681l-281 -1588h-160l305 1734h1002l-305 -1734h-160z" />
    <glyph glyph-name="summation" unicode="&#x2211;" horiz-adv-x="1255" 
d="M428 1294l361 -680l-649 -775h837l-24 -139h-1006l24 139l646 774l-365 681l24 140h966l-24 -140h-790z" />
    <glyph glyph-name="minus" unicode="&#x2212;" 
d="M1099 774v-139h-929v139h929z" />
    <glyph glyph-name="radical" unicode="&#x221a;" horiz-adv-x="1188" 
d="M440 0h-143l-195 696h160l131 -528l682 1266h158z" />
    <glyph glyph-name="infinity" unicode="&#x221e;" horiz-adv-x="1939" 
d="M645 1184q108 0 194.5 -44t138.5 -134q50 93 135.5 135.5t195.5 42.5q84 0 155.5 -30.5t124.5 -87t83 -136.5t30 -180q0 -107 -30 -190.5t-83.5 -141t-127 -87.5t-159.5 -30q-108 0 -195 46t-138 138q-51 -94 -136 -139t-194 -45q-84 0 -155.5 31.5t-124.5 89t-83 138.5
t-30 181t31.5 182t85.5 140t126.5 89.5t155.5 31.5zM909 745q0 78 -18.5 137.5t-52 99t-80.5 59.5t-105 20t-105.5 -21.5t-81.5 -62t-52.5 -99t-18.5 -133.5t19 -134.5t54 -101t84 -63.5t109 -22q48 0 90 14.5t75 43t56 71.5t33 101q-6 43 -6 91zM1038 750q0 -86 18.5 -148
t52.5 -101.5t81.5 -58t105.5 -18.5q61 0 109 22.5t81 64t50.5 101t17.5 133.5q0 75 -19.5 134t-54.5 99.5t-84.5 61.5t-109.5 21q-44 0 -85.5 -13t-76.5 -42.5t-57.5 -71.5t-33.5 -100q2 -20 3.5 -41t1.5 -43z" />
    <glyph glyph-name="integral" unicode="&#x222b;" horiz-adv-x="805" 
d="M795 1282q-31 16 -67 25.5t-83 9.5q-60 0 -92.5 -32.5t-44.5 -104.5l-234 -1317q-23 -136 -93 -197t-204 -61q-51 0 -90.5 9.5t-73.5 25.5l22 139q31 -16 67 -25.5t83 -9.5q60 0 92.5 32t45.5 105l233 1317q23 136 93 197t204 61q51 0 90.5 -9.5t73.5 -25.5z" />
    <glyph glyph-name="approxequal" unicode="&#x2248;" horiz-adv-x="1182" 
d="M780 785q-55 0 -103.5 17t-100.5 52.5t-85 49.5t-65 14q-47 0 -81 -32.5t-40 -94.5h-139q0 68 23.5 118t59 83t78 49t80.5 16q54 0 102.5 -16.5t92.5 -46.5t82.5 -50t77.5 -20q47 0 81 34t40 93h139q0 -68 -23.5 -118t-59 -83t-78 -49t-81.5 -16zM780 342
q-55 0 -103.5 17t-100.5 52.5t-85 49.5t-65 14q-47 0 -81 -32.5t-40 -94.5h-139q0 68 23.5 118t59 83t78 49t80.5 16q54 0 102.5 -16.5t92.5 -46.5t82.5 -50t77.5 -20q47 0 81 34t40 93h139q0 -68 -23.5 -118t-59 -83t-78 -49t-81.5 -16z" />
    <glyph glyph-name="notequal" unicode="&#x2260;" horiz-adv-x="1182" 
d="M774 999h248v-143h-295l-102 -303h397v-143h-447l-90 -269h-151l90 269h-256v143h305l102 303h-407v143h454l89 258h151z" />
    <glyph glyph-name="lessequal" unicode="&#x2264;" horiz-adv-x="788" 
d="M121 696v140l530 446v-190l-409 -324l409 -324v-194zM117 59v140h534v-140h-534z" />
    <glyph glyph-name="greaterequal" unicode="&#x2265;" horiz-adv-x="788" 
d="M145 250v194l410 324l-410 324v190l531 -446v-140zM145 59v140h535v-140h-535z" />
    <glyph glyph-name="lozenge" unicode="&#x25ca;" horiz-adv-x="1126" 
d="M567 1157l-327 -514l327 -514l328 514zM1071 641l-403 -641h-199l-406 641l404 641h199z" />
    <glyph glyph-name="apple" unicode="&#xf8ff;" horiz-adv-x="1491" 
d="M1110 459q-11 -9 -18 -6q-11 4 -5 20l62 164h-330v-367l164 62q16 6 21 -3q3 -7 -7 -20l-247 -340l-248 340q-9 11 -6 19q4 10 20 4l164 -62v367h-338l61 -164q6 -16 -4 -20q-7 -3 -18 6l-340 248l340 247q11 9 18 7q12 -5 4 -21l-61 -164h338v387l-164 -61q-17 -5 -20 4
q-2 7 6 18l248 340l247 -340q9 -11 7 -18q-5 -10 -21 -4l-164 61v-387h330l-62 164q-6 16 5 21q7 3 18 -7l340 -247z" />
    <glyph glyph-name="DEL" horiz-adv-x="0" 
 />
    <glyph glyph-name="quotedbl.lfprop" horiz-adv-x="942" 
d="M733 764h-121l84 670h191zM326 764h-121l84 670h190z" />
    <glyph glyph-name="numbersign.lfprop" horiz-adv-x="1376" 
d="M1307 930h-246l-74 -426h246l-27 -144h-245l-64 -360h-154l64 360h-365l-63 -360h-154l64 360h-246l27 144h245l74 426h-246l27 143h246l63 361h154l-64 -361h365l63 361h154l-64 -361h246zM543 930l-74 -426h365l73 426h-364z" />
    </font>
</defs>
</svg>
